<?xml version="1.0" encoding="UTF-8"?>
<svg width="24" height="24" viewBox="0 0 24 24">
  <path d="M10.6618 16.3938C10.9363 16.4659 11.2304 16.5174 11.5441 16.5483V18.3971C11.5441 18.7301 11.8141 19 12.1471 19C12.4801 19 12.75 18.7301 12.75 18.3971V16.4865C13.1225 16.4041 13.4461 16.2754 13.7206 16.1004C14.0049 15.9151 14.2402 15.6988 14.4265 15.4517C14.6225 15.2046 14.7647 14.9369 14.8529 14.6486C14.951 14.3604 15 14.0618 15 13.7529C15 13.3925 14.9461 13.0785 14.8382 12.8108C14.7402 12.5431 14.5931 12.3063 14.3971 12.1004C14.201 11.8945 13.9608 11.7091 13.6765 11.5444C13.3922 11.3797 13.0686 11.2201 12.7059 11.0656C12.4314 10.9627 12.1863 10.8597 11.9706 10.7568C11.7647 10.6435 11.5882 10.5251 11.4412 10.4015C11.3039 10.278 11.1961 10.139 11.1176 9.98456C11.049 9.81982 11.0147 9.63449 11.0147 9.42857C11.0147 9.0991 11.1422 8.86744 11.3971 8.73359C11.6618 8.58945 11.9608 8.51737 12.2941 8.51737C12.5 8.51737 12.7059 8.54311 12.9118 8.59459C13.1176 8.64607 13.3088 8.70785 13.4853 8.77992C13.6618 8.85199 13.8186 8.92407 13.9559 8.99614C14.1029 9.05791 14.2157 9.1094 14.2941 9.15058L14.8824 7.88417C14.8235 7.85328 14.7255 7.80695 14.5882 7.74517C14.4608 7.6731 14.3039 7.60103 14.1176 7.52896C13.9314 7.45688 13.7206 7.38996 13.4853 7.32818C13.25 7.26641 13.0049 7.22008 12.75 7.18919V5.60294C12.75 5.26995 12.4801 5 12.1471 5C11.8141 5 11.5441 5.26995 11.5441 5.60294V7.22008C11.2108 7.28185 10.9069 7.38996 10.6324 7.5444C10.3578 7.68855 10.1225 7.86873 9.92647 8.08494C9.73039 8.29086 9.57843 8.52767 9.47059 8.79537C9.36275 9.06306 9.30882 9.34105 9.30882 9.62934C9.30882 10 9.36765 10.3295 9.48529 10.6178C9.60294 10.906 9.77451 11.1634 10 11.39C10.2255 11.6165 10.4951 11.8224 10.8088 12.0077C11.1324 12.1828 11.5 12.3526 11.9118 12.5174C12.1275 12.5997 12.3186 12.6821 12.4853 12.7645C12.6618 12.8366 12.8088 12.9241 12.9265 13.027C13.0539 13.1197 13.1471 13.2329 13.2059 13.3668C13.2745 13.5006 13.3088 13.6705 13.3088 13.8764C13.3088 14.731 12.8186 15.1583 11.8382 15.1583C11.6422 15.1583 11.4314 15.1223 11.2059 15.0502C10.9804 14.9781 10.7598 14.8958 10.5441 14.8031C10.3382 14.7001 10.152 14.6023 9.98529 14.5097C9.81863 14.417 9.70098 14.3449 9.63235 14.2934L9 15.6525C9.07843 15.704 9.19608 15.7761 9.35294 15.8687C9.51961 15.9511 9.71078 16.0386 9.92647 16.1313C10.152 16.2239 10.3971 16.3115 10.6618 16.3938Z" />
  <path fill-rule="evenodd" clip-rule="evenodd" d="M2 12C2 6.48 6.48 2 12 2C17.52 2 22 6.48 22 12C22 17.52 17.52 22 12 22C6.48 22 2 17.52 2 12ZM4 12C4 16.41 7.59 20 12 20C16.41 20 20 16.41 20 12C20 7.59 16.41 4 12 4C7.59 4 4 7.59 4 12Z" />
</svg>
