<?xml version="1.0" encoding="UTF-8"?>
<svg width="24px" height="24px" viewBox="0 0 24 24" version="1.1" xmlns="http://www.w3.org/2000/svg" xmlns:xlink="http://www.w3.org/1999/xlink">
    <!-- Generator: Sketch 63.1 (92452) - https://sketch.com -->
    <title>icon_checkin_outline</title>
    <desc>Created with Sketch.</desc>
    <g id="icon_checkin_outline" stroke="none" stroke-width="1" fill="none" fill-rule="evenodd">
        <path d="M12,2 C14.1217,2 16.1566,2.86201 17.6569,4.3964 C19.1571,5.93079 20,8.01186 20,10.1818 C20,15.0742 15.2715,19.4293 13.0851,21.1815 C12.4432,21.696 11.5568,21.696 10.9149,21.1815 L10.4567144,20.8060384 L9.94575327,20.3675891 C7.57546314,18.2840457 4,14.4360609 4,10.1818 C4,8.01186 4.84285,5.93079 6.34315,4.3964 C7.84344,2.86201 9.87827,2 12,2 Z M12,4 C10.4234,4 8.90202,4.64012 7.77316,5.79463 C6.64281,6.95067 6,8.52798 6,10.1818 C6,11.9992 6.89284,13.8859 8.2312,15.6508 C9.47972,17.2973 10.9733,18.6496 12,19.4869 C13.0267,18.6496 14.5203,17.2973 15.7688,15.6508 C17.1072,13.8859 18,11.9992 18,10.1818 C18,8.52798 17.3572,6.95067 16.2268,5.79463 C15.098,4.64012 13.5766,4 12,4 Z M13.7929,7.79292 C14.1834,7.4024 14.8166,7.4024 15.2071,7.79292 C15.5675615,8.15340923 15.5952893,8.72063645 15.2902834,9.11293152 L15.2071,9.20714 L11.0001,13.4142 L8.48027,10.8944 C8.08974,10.5038 8.08974,9.87067 8.48027,9.48014 C8.84075,9.11966 9.40797651,9.09193077 9.80027153,9.39695231 L9.89448,9.48014 L11.0001,10.5857 L13.7929,7.79292 Z" id="Shape" fill="#6B6B78" fill-rule="nonzero"></path>
    </g>
</svg>