<svg width="120" height="111" fill="none" xmlns="http://www.w3.org/2000/svg"><path fill-rule="evenodd" clip-rule="evenodd" d="M120 111H0V47.834A93.25 93.25 0 0129.725 43C72.42 43 108.473 71.685 120 111z" fill="#F5F5FA"/><path fill-rule="evenodd" clip-rule="evenodd" d="M57.567 91.62c-21.844 0-39.552-1.465-39.552-3.272 0-1.807 17.708-3.272 39.552-3.272s39.552 1.465 39.552 3.272c0 1.807-17.708 3.272-39.552 3.272z" fill="#EBE6FF"/><path fill-rule="evenodd" clip-rule="evenodd" d="M63.792 2.248s2.112 2.229 3.685.595c0 0 .582-.977-.97-.68 0 0 .474-1.273-.97-1.486 0 0-1.013-.148-1.444.276 0 0-.108-.806-2.608-.912 0 0-3.728-.616-5.625 2.929 0 0-.28.53-.345 1.57 0 0-.215 1.359-1.573 2.25l-2.22 1.592s-3.233 2.505-4.914 2.526c0 0-2.759-.255-3.578-.806 0 0-.646.7-.474 1.974 0 0-.258 2.59 2.414 3.098 0 0 5.13-2.886 7.953-3.778 0 0 3.966-.764 5.216-.721l1.12-4.5s3.04.106 4.333-3.927z" fill="#21364F"/><path fill-rule="evenodd" clip-rule="evenodd" d="M68.144 11.29s-2.5-.679-4.138-.721L62.93 8.36s1.66.594 2.004 0l-.065-2.229h.776l-.926-3.523-1.143-.785-3.642 3.205-1.25 1.4-.905 3.673-3.47.636s2.521 4.967 6.142 5.307c0 0 5.776 1.485 7.694-4.755z" fill="#F46152"/><path fill-rule="evenodd" clip-rule="evenodd" d="M74.093 28.048s5.787-3.47 7.339-5.827c0 0-3.233-2.897-4.559-4.807 0 0-4.267-5.943-8.729-6.124 0 0-1.848 5.866-8.052 4.705 0 0-3.786-1.065-5.561-4.853 0 0-3.98.725-7.614 3.085 0 0-3.989 2.232-7.06 2.837l3.588 8.086s5.076-2.801 7.016-2.451c0 0 .42 2.26-.065 4.553 0 0-2.005 10.665-3.718 15.537 0 0 4.268.254 5.528.54 0 0 8.341 1.88 12.285.574 0 0 4.882-.732 6.466-.541 0 0 1.067-5.063.938-8.724 0 0-.065-4.935-.582-8.628 0 0-.097-1.688.032-2.133 0 0 1.617 1.4 2.748 4.17z" fill="#E8EFF9"/><path fill-rule="evenodd" clip-rule="evenodd" d="M74.158 53.518s-8.276 6.59-10.604 7.737l-5.302-3.869s-6.498-4.123-8.438-7.052c0 0-2.407-2.584-1.333-7.42l.299-.73s18.46.827 18.46.923c0 .095-.259 2.26-.324 2.802 0 0-.161 1.178.906 2.1l6.336 5.509z" fill="#652CDB"/><path fill-rule="evenodd" clip-rule="evenodd" d="M58.316 56.447s-4.332 4.648-6.368 6.113c0 0-7.21-3.98-9.279-7.578 0 0 5.69-7.195 6.24-8.437 0 0 1.422 5.03 9.407 9.902z" fill="#652CDB"/><path fill-rule="evenodd" clip-rule="evenodd" d="M96.207 85.324l-5.076 2.993-1.067-2.229 2.36-1.337 3.783.573zM17.711 79.593l-1.713-6.144 1.907-.446.97 2.802-1.164 3.788z" fill="#FFAC6F"/><path fill-rule="evenodd" clip-rule="evenodd" d="M92.424 84.751l-2.36 1.337s-4.009-7.64-4.72-8.723c0 0-3.524-7.323-6.919-10.316 0 0-7.532-5.985-13.804-7.068l8.405-6.017s7.048 4.584 11.121 9.837c0 0 2.813 4.299 3.686 7.865l4.59 13.085zM44.545 56.606s-3.071 4.617-5.916 6.559c0 0-4.3 2.801-6.078 3.597 0 0-8.946 4.585-14.645 6.24l.97 2.803s10.021-1.847 12.543-2.802c0 0 9.02-3.47 10.83-4.68 0 0 3.395-1.178 5.302-3.407l3.847-3.661-6.853-4.649zM95.668 20.353s-1.164 1.89-.754 3.503c0 0-1.725 1.74-2.651 2.462 0 0-3.535 2.844-6.143 3.48 0 0-2.22.659-4.181-1.782 0 0-2.112-2.547-2.78-4.288l-4.268 3.396s2.155 4.224 3.901 5.328c0 0 2.974 3.269 7.845 1.74 0 0 4.98-1.74 7.695-5.412 0 0 1.94-2.93 2.22-3.46l1.185-2.016s1.272-1.571 1.595-1.826c0 0-.086-.323-.814.297l-.986.812s1.196-2.053 1.585-2.563c0 0-.033-.166-.235-.071 0 0 .065-.279-.097-.223 0 0-1.511.979-2.174 2.061 0 0 1.05-1.822 1.503-2.276 0 0-.283.008-.452.191 0 0-1.076 1.162-1.366 1.664l-.768 1.122s.048-.43.089-.86c0 0 .13-1.106.153-1.273 0 0-.041-.11-.102-.006zM42.951 22.964s-4.397 1.635-6.164 3.566c0 0-2.608 1.868-2.069 5.964 0 0 .323 3.672 1.595 5.816 0 0 .95.212 1.42.49 0 0 .606.303 1.018.232 0 0 .186.294-.372.382 0 0-1.042.159-1.293.15 0 0 .703.447 1.253.566 0 0 1.043-.541 1.52-.056 0 0-.017.39-.3.55 0 0 .695.135.688.422 0 0-.082.206-.251.294 0 0 .08.398-.485.62 0 0 .064.55-1.1.622 0 0-1.794.199-3.087-1.099 0 0-1.22-.86-2.53-3.884 0 0-1.276-2.515-1.972-5.492 0 0-.646-3.136 0-5.205 0 0 .857-2.93 4.09-5.636 0 0 3.54-2.706 5.69-3.423l2.35 5.121z" fill="#F46152"/></svg>
