<?xml version="1.0" encoding="UTF-8"?>
<svg width="24px" height="24px" viewBox="0 0 24 24" version="1.1" xmlns="http://www.w3.org/2000/svg" xmlns:xlink="http://www.w3.org/1999/xlink">
    <!-- Generator: Sketch 63.1 (92452) - https://sketch.com -->
    <title>icon_home_outline</title>
    <desc>Created with Sketch.</desc>
    <g id="icon_home_outline" stroke="none" stroke-width="1" fill="none" fill-rule="evenodd">
        <path d="M10.6755,2.54129 C11.3770333,1.85966556 12.4537315,1.82179753 13.1969498,2.42768593 L13.3245,2.54129 L22.7952,11.7159 L22.7952,11.7159 C23.0072,11.9434 23.0555,12.2749 22.9359,12.5498 C22.9027,12.6264 22.8564,12.6985 22.797,12.7628 C22.5411818,13.0397091 22.1304876,13.0756264 21.8347896,12.8630389 L21.7498,12.7918 L21.4999991,12.5498 L21.4999991,20.5 C21.4999991,21.2796706 20.9050878,21.9204457 20.1444551,21.9931332 L19.9999991,22 L13.9999991,22 L13.9999991,15 L9.99999915,15 L9.99999915,22 L3.99999915,22 C3.22030113,22 2.57955024,21.4050879 2.5068657,20.6444558 L2.49999915,20.5 L2.49999915,12.5498 L2.25018,12.7918 C1.9532,13.0804 1.48436,13.0674 1.203,12.7628 C1.14362,12.6985 1.09733,12.6264 1.06405,12.5498 C0.959434125,12.3092625 0.983358266,12.0253906 1.13298597,11.8057738 L1.21866875,11.7013875 L1.21866875,11.7013875 L10.6755,2.54129 Z M12,4.04271 L4.5,11.3071 L4.5,20 L8,20 L8,13 L16,13 L16,20 L19.5,20 L19.5,11.3071 L12,4.04271 Z" id="Shape" fill="#6B6B78"></path>
    </g>
</svg>