<?xml version="1.0" encoding="UTF-8"?>
<svg width="24px" height="24px" viewBox="0 0 24 24" version="1.1" xmlns="http://www.w3.org/2000/svg" xmlns:xlink="http://www.w3.org/1999/xlink">
    <g id="ic_lock" stroke="none" stroke-width="1" fill-rule="evenodd">
        <path d="M12,2 C15.3137,2 18,4.68629 18,8 L18,9 C19.1046,9 20,9.89543 20,11 L20,20 C20,21.1046 19.1046,22 18,22 L6,22 C4.89543,22 4,21.1046 4,20 L4,11 C4,9.89543 4.89543,9 6,9 L6,8 C6,4.68629 8.68629,2 12,2 Z M18,11 L6,11 L6,20 L18,20 L18,11 Z M12,13 C12.5523,13 13,13.4477 13,14 L13,16 C13,16.5523 12.5523,17 12,17 C11.4477,17 11,16.5523 11,16 L11,14 C11,13.4477 11.4477,13 12,13 Z M12,4 C9.79086,4 8,5.79086 8,8 L8,9 L16,9 L16,8 C16,5.79086 14.2091,4 12,4 Z" id="Shape"></path>
    </g>
</svg>
