<svg width="166" height="124" viewBox="0 0 166 124" fill="none" xmlns="http://www.w3.org/2000/svg">
<g style="mix-blend-mode:multiply" opacity="0.1">
<path fill-rule="evenodd" clip-rule="evenodd" d="M71.873 123.744C111.567 123.744 143.746 121.514 143.746 118.764C143.746 116.014 111.567 113.784 71.873 113.784C32.1786 113.784 0 116.014 0 118.764C0 121.514 32.1786 123.744 71.873 123.744Z" fill="#6B6B78"/>
</g>
<path fill-rule="evenodd" clip-rule="evenodd" d="M53.9049 119.518C72.6494 119.518 87.8449 104.357 87.8449 85.6546C87.8449 66.9523 72.6494 51.7911 53.9049 51.7911C35.1603 51.7911 19.9648 66.9523 19.9648 85.6546C19.9648 104.357 35.1603 119.518 53.9049 119.518Z" fill="#D8D0FC"/>
<path fill-rule="evenodd" clip-rule="evenodd" d="M58.2356 18.9277C48.5413 19.0053 33.3749 20.9206 24.1503 22.2497C14.9254 23.5786 4.62477 26.4774 3.37959 27.1152C2.13416 27.753 2.07203 28.4485 2.07203 28.4485C2.07203 28.4485 1.13826 28.9701 1.01375 29.3181C0.889227 29.6659 1.01375 30.1295 1.01375 30.1295C1.01375 30.1295 0.391155 30.7671 0.515428 31.289C0.639946 31.8106 1.01375 32.3904 3.06817 32.1006C5.12284 31.8106 6.92848 31.6947 7.67558 31.7529C7.67558 31.7529 6.30589 32.2165 5.4964 32.2745C4.68715 32.3324 4.18883 32.4484 4.1267 32.8541C4.06456 33.2598 4.37573 33.7816 6.99086 33.7237C9.60549 33.6657 14.0653 33.3892 18.9905 33.1547C23.7173 32.9297 31.3814 34.0537 38.8083 34.679C46.2352 35.3045 53.9496 36.8026 53.9496 36.8026L61.5187 35.5781L62.3005 20.8035L58.2356 18.9277Z" fill="#F46152"/>
<mask id="mask0" mask-type="alpha" maskUnits="userSpaceOnUse" x="0" y="18" width="63" height="19">
<path fill-rule="evenodd" clip-rule="evenodd" d="M58.2356 18.9277C48.5413 19.0053 33.3749 20.9206 24.1503 22.2497C14.9254 23.5786 4.62477 26.4774 3.37959 27.1152C2.13416 27.753 2.07203 28.4485 2.07203 28.4485C2.07203 28.4485 1.13826 28.9701 1.01375 29.3181C0.889227 29.6659 1.01375 30.1295 1.01375 30.1295C1.01375 30.1295 0.391155 30.7671 0.515428 31.289C0.639946 31.8106 1.01375 32.3904 3.06817 32.1006C5.12284 31.8106 6.92848 31.6947 7.67558 31.7529C7.67558 31.7529 6.30589 32.2165 5.4964 32.2745C4.68715 32.3324 4.18883 32.4484 4.1267 32.8541C4.06456 33.2598 4.37573 33.7816 6.99086 33.7237C9.60549 33.6657 14.0653 33.3892 18.9905 33.1547C23.7173 32.9297 31.3814 34.0537 38.8083 34.679C46.2352 35.3045 53.9496 36.8026 53.9496 36.8026L61.5187 35.5781L62.3005 20.8035L58.2356 18.9277Z" fill="white"/>
</mask>
<g mask="url(#mask0)">
<path fill-rule="evenodd" clip-rule="evenodd" d="M33.9177 23.4057C35.5837 23.4057 36.9347 22.1584 36.9347 20.6198C36.9347 20.5517 36.931 20.4845 36.9258 20.4177C34.8737 20.6364 32.8601 20.8659 30.9453 21.095C31.1896 22.4069 32.4269 23.4057 33.9177 23.4057Z" fill="#F56151"/>
</g>
<path fill-rule="evenodd" clip-rule="evenodd" d="M103.492 23.1188C111.137 24.9405 123.432 26.0792 128.081 26.2311C132.732 26.3828 145.657 26.6864 149.44 26.155C153.222 25.6237 158.267 25.5479 159.843 26.0034C161.419 26.4586 162.365 27.2177 162.365 27.2177C162.365 27.2177 163.547 27.4457 163.862 27.977C164.178 28.5083 164.335 28.9638 164.335 28.9638C164.335 28.9638 166.148 29.571 165.99 30.4819C165.833 31.3929 164.729 31.5448 162.759 31.1652C160.789 30.7855 158.503 31.3168 158.503 31.3168C158.503 31.3168 160.631 31.3168 161.419 31.4687C162.207 31.6206 162.286 32.3797 161.892 32.7591C161.498 33.1388 160.473 33.7459 157.715 34.2014C154.956 34.6569 152.119 34.8847 148.257 36.327C144.396 37.7692 132.259 39.7429 123.116 39.7429C113.974 39.7429 104.674 38.9077 104.674 38.9077L103.492 23.1188Z" fill="#F46152"/>
<mask id="mask1" mask-type="alpha" maskUnits="userSpaceOnUse" x="103" y="23" width="63" height="17">
<path fill-rule="evenodd" clip-rule="evenodd" d="M103.492 23.1188C111.137 24.9405 123.432 26.0792 128.081 26.2311C132.732 26.3828 145.657 26.6864 149.44 26.155C153.222 25.6237 158.267 25.5479 159.843 26.0034C161.419 26.4586 162.365 27.2177 162.365 27.2177C162.365 27.2177 163.547 27.4457 163.862 27.977C164.178 28.5083 164.335 28.9638 164.335 28.9638C164.335 28.9638 166.148 29.571 165.99 30.4819C165.833 31.3929 164.729 31.5448 162.759 31.1652C160.789 30.7855 158.503 31.3168 158.503 31.3168C158.503 31.3168 160.631 31.3168 161.419 31.4687C162.207 31.6206 162.286 32.3797 161.892 32.7591C161.498 33.1388 160.473 33.7459 157.715 34.2014C154.956 34.6569 152.119 34.8847 148.257 36.327C144.396 37.7692 132.259 39.7429 123.116 39.7429C113.974 39.7429 104.674 38.9077 104.674 38.9077L103.492 23.1188Z" fill="white"/>
</mask>
<g mask="url(#mask1)">
<path fill-rule="evenodd" clip-rule="evenodd" d="M125.279 40.8354C127.222 40.7588 129.252 40.5919 131.268 40.3616C130.881 38.906 129.708 37.8474 128.321 37.8474C126.788 37.8474 125.517 39.1412 125.279 40.8354Z" fill="#F56151"/>
</g>
<path fill-rule="evenodd" clip-rule="evenodd" d="M106.273 45.2802C106.102 51.5895 105.784 56.0575 105.478 59.097C102.14 59.6089 93.0852 60.8424 83.8818 60.7501C73.7792 60.6483 60.4425 58.9474 52.4072 56.1898C52.4166 56.0774 53.856 36.9148 53.856 36.9148C53.856 36.9148 58.6908 33.3948 59.0455 27.7836C59.4004 22.1721 58.1786 19.094 58.1786 19.094C66.4573 18.6264 91.3716 18.8602 103.908 23.2244C103.908 23.2244 106.668 30.706 106.273 45.2802Z" fill="#58C2B4"/>
<path fill-rule="evenodd" clip-rule="evenodd" d="M88.3438 6.21326C88.3438 6.21326 88.8855 7.61322 89.1917 9.07626C89.4981 10.5395 89.6832 11.9518 89.6832 11.9518C89.6832 11.9518 91.8589 11.6489 92.2514 9.6948C92.6013 7.95304 91.8379 6.66255 90.6256 6.15325C89.599 5.72177 88.3438 6.21326 88.3438 6.21326Z" fill="#F46152"/>
<path fill-rule="evenodd" clip-rule="evenodd" d="M80.5267 1.09681C75.6815 1.70485 72.4489 5.56498 73.6055 13.2332C74.7624 20.9017 81.6911 39.6917 92.7062 37.7006C103.054 35.8301 93.0341 19.6172 91.3442 11.6213C89.6542 3.62535 86.3851 0.361481 80.5267 1.09681Z" fill="#2B4A6F"/>
<path fill-rule="evenodd" clip-rule="evenodd" d="M74.9628 9.76702C74.9628 9.76702 75.2484 11.2586 75.7779 12.6542C76.3074 14.0499 76.9165 15.3277 76.9165 15.3277C76.9165 15.3277 74.8193 16.4444 73.4007 15.0838C72.136 13.8713 72.1073 12.3306 72.9042 11.1503C73.5793 10.1511 74.9628 9.76702 74.9628 9.76702Z" fill="#F46152"/>
<path fill-rule="evenodd" clip-rule="evenodd" d="M88.3554 13.1557C87.1391 12.6174 85.5624 12.4096 83.9037 12.6603C82.2448 12.9107 80.8162 13.5723 79.8394 14.4418C78.3369 13.5685 77.2384 12.1316 76.9421 10.3908C76.3919 7.15657 78.816 4.1012 82.3566 3.5664C85.897 3.03159 89.2132 5.22007 89.7636 8.45407C90.0596 10.1953 89.4929 11.8836 88.3554 13.1557Z" fill="#F46152"/>
<path fill-rule="evenodd" clip-rule="evenodd" d="M81.3563 1.70105L81.2051 0.459191L80.7781 1.18506L80.2085 0L79.9325 1.13324L79.3599 0.449209L79.5094 1.99197L81.3563 1.70105Z" fill="#2B4A6F"/>
<path fill-rule="evenodd" clip-rule="evenodd" d="M85.8484 15.6405C85.5572 15.934 85.2308 16.1149 84.894 16.2426C84.5569 16.3672 84.2069 16.4298 83.8573 16.4335C83.5069 16.4381 83.1565 16.3824 82.8181 16.2656C82.4801 16.1457 82.1517 15.9726 81.8555 15.6864C82.2162 15.5654 82.5517 15.5216 82.881 15.4867C83.2099 15.4554 83.5301 15.4408 83.8511 15.4382C84.1713 15.4356 84.4923 15.4439 84.8212 15.4679C85.1505 15.4961 85.4856 15.5315 85.8484 15.6405Z" fill="#F46152"/>
<path fill-rule="evenodd" clip-rule="evenodd" d="M86.061 3.86071L85.4101 4.72285L84.9055 4.25727L84.4298 4.57351L84.0235 4.21632L83.4269 4.59976L82.9902 4.22236L82.5357 4.65855L81.9997 4.32052L81.665 4.83701L81.2369 4.50738L80.8758 5.02781L80.3568 4.78557L80.0357 5.22648L79.6579 5.03699L79.3365 5.4779L78.3672 5.02781L81.2369 3.48594L84.0235 3.05579L86.061 3.86071Z" fill="#2B4A6F"/>
<path fill-rule="evenodd" clip-rule="evenodd" d="M36.4355 111.122C33.0122 111.418 29.9345 111.441 27.6916 111.305C20.0295 110.841 14.3413 110.377 14.3413 110.377C14.3413 110.377 12.2515 115.95 13.5667 116.879C14.8833 117.808 15.5021 117.266 15.3479 117.963C15.1921 118.659 14.3413 119.434 13.2581 119.511C12.1737 119.588 11.3228 118.969 11.3228 118.969C11.3228 118.969 10.472 119.511 9.77542 119.511C9.07883 119.511 7.99443 118.969 7.99443 118.969C7.99443 118.969 7.22149 119.356 6.52466 119.124C5.82831 118.891 6.83369 116.801 6.83369 116.801C6.83369 116.801 4.89952 115.021 5.6727 110.841C6.4471 106.661 6.91125 105.035 6.7571 102.558C6.60149 100.08 8.22663 98.997 12.0971 99.0749C15.9665 99.1515 27.73 96.9068 32.4512 95.978C32.9633 95.8768 33.488 95.7596 34.0219 95.6144C33.5937 97.051 33.2038 99.2466 33.3803 102.248C33.604 106.065 35.2758 109.302 36.4355 111.122Z" fill="#F46152"/>
<path fill-rule="evenodd" clip-rule="evenodd" d="M136.477 120.435C134.42 120.613 123.425 120.435 121.779 120.435C120.133 120.435 119.898 118.053 120.015 112.755C120.133 107.457 119.133 99.7178 119.31 95.3123C119.377 93.6481 119.418 92.1965 119.444 91.0345C121.397 91.2439 124.726 91.4382 128.246 90.9071C131.379 90.4345 133.227 89.4271 134.24 88.6426C134.054 91.4953 133.694 94.7458 133.185 98.5271C131.068 114.244 130.48 115.315 130.48 115.315C130.48 115.315 135.948 118.649 136.889 118.649C137.83 118.649 138.241 118.827 138.241 118.827C138.241 118.827 138.535 120.256 136.477 120.435Z" fill="#F46152"/>
<path fill-rule="evenodd" clip-rule="evenodd" d="M134.114 88.8825C133.098 89.6506 131.242 90.637 128.098 91.0999C124.563 91.6198 121.222 91.4298 119.261 91.2244C119.304 89.35 119.304 88.2435 119.304 88.2435C119.304 88.2435 109.094 89.7009 98.5881 89.7009C88.0829 89.7009 84.0694 88.3018 78.9938 89.351C73.9182 90.4004 67.7804 95.1801 59.9898 102.991C54.4799 108.515 44.0088 110.832 35.5936 111.55C34.4146 109.723 32.7148 106.473 32.4871 102.641C32.3076 99.6275 32.7042 97.423 33.1398 95.981C37.6005 94.7941 42.6808 91.8493 46.2585 82.3562C50.2174 71.8549 51.8159 63.8774 52.538 55.7751C60.5577 58.5251 73.8688 60.2213 83.9515 60.3228C93.137 60.4149 102.174 59.185 105.506 58.6743C105.106 62.6451 104.726 64.1699 104.726 64.1699C104.726 64.1699 125.265 63.2372 129.986 69.999C133.572 75.133 134.706 80.0667 134.114 88.8825Z" fill="#21364F"/>
</svg>
