<svg width="128" height="160" fill="none" xmlns="http://www.w3.org/2000/svg"><path fill-rule="evenodd" clip-rule="evenodd" d="M58.498 159.787c15.218 0 27.554-1.395 27.554-3.116 0-1.72-12.336-3.115-27.554-3.115-15.218 0-27.555 1.395-27.555 3.115 0 1.721 12.337 3.116 27.555 3.116z" fill="#6B6B78" opacity=".1"/><path fill-rule="evenodd" clip-rule="evenodd" d="M80.797 149.185l-2.75 3.295s-8.623-8.541-10.927-11.432c0 0-12.265-12.44-7.953-24.141l9.737.739s-4.116 4.371-.98 11.499c0 0 5.068 10.491 10.791 17.014l2.082 3.026zM38.13 153.892h-3.716l2.974-14.122s6.095-21.25 6.913-22.863h9.811s-6.021 13.718-7.061 16.341c0 0-6.616 16.744-8.92 20.644z" fill="#F46152"/><path fill-rule="evenodd" clip-rule="evenodd" d="M37.462 156.784h-7.359l4.312-2.892h3.716l-.669 2.892zM77.451 158.667l.595-6.187 2.75-3.295 2.23 2.622-5.575 6.86z" fill="#0F3E78"/><path fill-rule="evenodd" clip-rule="evenodd" d="M19.678 77.332s-2.341-.403-3.623 0c0 0-1.58.152-2.323 0 0 0 .037.605 1.524.639h1.523s-1.635 1.059-3.66 1.345c0 0-1.19.218-1.116.571 0 0 2.082.085 4.219-.538 0 0-.223.555-1.691 1.16 0 0-2.212.925-2.379 1.547 0 0 .539.807 2.732-.1l1.877-.74s-.818 1.31-1.803 1.967c0 0-.427.302 1.245-.286 0 0 1.43-.69 2.323-1.699 0 0 1.078-1.143 1.858-1.31l-.706-2.556z" fill="#F46152"/><path fill-rule="evenodd" clip-rule="evenodd" d="M12.371 82.377l-.125-.369c.993-.276 4.267-1.732 4.3-1.747l.188.346c-.136.06-3.338 1.485-4.363 1.77z" fill="#E63B2E"/><path fill-rule="evenodd" clip-rule="evenodd" d="M95.811 117.646s-17.096 1.076-22.67.606c0 0-7.36-.068-13.454-.606 0 0-17.468-.538-20.292 0 0 0 5.797-21.989 20.886-32.345l.595-.74 28.765-.807s9.292 6.523 6.17 33.892z" fill="#652CDB"/><path fill-rule="evenodd" clip-rule="evenodd" d="M66.153 31.2l-.483 1.514-.929 2.488s-.075.538 1.263.47l-.074 1.985s.074.605 2.341.37l-.223 2.925-2.564.773-.316 1.678.39 1.953 1.821.807 3.122-.37 3.196-1.445 2.64-3.194-4.2-3.027-1.97-5.144-.669-1.513-3.345-.27z" fill="#F46152"/><path fill-rule="evenodd" clip-rule="evenodd" d="M19.994 80.257s-1.04-2.42-1.264-3.362c0 0 16.8-5.716 21.63-11.432l5.204-5.783 5.426-6.523s8.491-10.256 15.297-11.674c0 0-1.648 3.268 1.636 4.008 0 0 4.955.065 8.414-5.11 0 0 7.73 2.353 11.447 7.934 0 0 2.824 4.573 3.642 12.004 0 0 1.932 18.055 5.574 23.435 0 0-4.682 1.614-9.663.74 0 0-6.764-.874-11 .807 0 0-8.846 1.412-14.866 0 0 0-5.575-.942-6.616-.673 0 0-2.081-14.525-1.412-17.35l-2.23-.2-2.007.94s-7.953 9.751-29.212 12.24z" fill="#fff"/><path fill-rule="evenodd" clip-rule="evenodd" d="M24.045 61.865s-1.412-1.177-1.56-1.513l11.409-12.91 1.062 1.08.425.432-11.336 12.911z" fill="#0F3E78"/><path fill-rule="evenodd" clip-rule="evenodd" d="M60.467 24.467a.227.227 0 01-.145-.05l-7.47-6.22a.18.18 0 01-.013-.273.231.231 0 01.302-.012l7.47 6.22a.18.18 0 01.013.273.225.225 0 01-.157.062zM58.906 27.46a.226.226 0 01-.147-.053l-9.068-7.8a.18.18 0 01-.007-.273.23.23 0 01.3-.007l9.07 7.8a.18.18 0 01.007.273.224.224 0 01-.155.06zM57.234 29.78a.225.225 0 01-.15-.055l-9.493-8.423a.18.18 0 01-.003-.272.229.229 0 01.301-.003l9.494 8.422a.18.18 0 01.003.273.224.224 0 01-.152.058zM54.855 31.797a.223.223 0 01-.153-.059L45.93 23.5a.18.18 0 01.005-.272.23.23 0 01.302.005l8.77 8.238a.18.18 0 01-.005.272.225.225 0 01-.148.054zM52.105 33.563a.224.224 0 01-.155-.06l-7.53-7.247a.18.18 0 01.008-.273.23.23 0 01.302.009l7.53 7.246a.18.18 0 01-.009.273.225.225 0 01-.146.052z" fill="#AFB5E8"/><path fill-rule="evenodd" clip-rule="evenodd" d="M44.575 26.922a.224.224 0 01-.15-.056.18.18 0 01-.002-.273l10.058-9.212a.23.23 0 01.3-.002.18.18 0 01.003.273l-10.058 9.213a.224.224 0 01-.151.057zM44.178 29.94a.226.226 0 01-.15-.056.18.18 0 010-.273l13.316-12.063a.23.23 0 01.3 0 .18.18 0 010 .273L44.33 29.884a.226.226 0 01-.15.056zM45.002 32.335a.224.224 0 01-.15-.056.18.18 0 01-.001-.272l14.313-13.113a.229.229 0 01.301-.002.18.18 0 01.002.273L45.154 32.278a.224.224 0 01-.152.057zM46.752 33.344a.223.223 0 01-.152-.058.18.18 0 01.003-.273l13.714-12.138a.23.23 0 01.301.003.18.18 0 01-.003.273L46.901 33.289a.226.226 0 01-.149.055zM48.797 34.117a.225.225 0 01-.158-.063.18.18 0 01.015-.272l11.075-9.078a.23.23 0 01.301.013.18.18 0 01-.015.272L48.94 34.067a.226.226 0 01-.143.05z" fill="#AFB5E8"/><path fill-rule="evenodd" clip-rule="evenodd" d="M45.638 31.57c-1.97-4 1.263-8.54 1.263-8.54 3.059-4.61 8.548-5.346 8.548-5.346 4.646.572 4.646 4.674 4.646 4.674-.142 2.78-1.97 5.245-1.97 5.245-2.416 3.9-7.284 5.615-7.284 5.615-3.568.774-5.203-1.647-5.203-1.647zM34.45 47.678l.504.845 10.831-14.564s2.862 2.185 8.474-.773c0 0 5.984-3.968 6.504-8.81 0 0 2.007-6.052-5.017-7.464 0 0-6.43-.168-10.704 7.195 0 0-2.788 3.632 0 9.314l-7.098 9.28-3.494 4.977z" fill="#652CDB"/><path fill-rule="evenodd" clip-rule="evenodd" d="M42.627 16.172s3.01 1.479 3.865-.572c0 0 .297-1.547-1.04-2.656 0 0-2.045.504-2.825 3.228z" fill="#0F3E78"/><path fill-rule="evenodd" clip-rule="evenodd" d="M42.889 16.07l-8.437-4.673-.78-2.657 2.118.169V6.925l2.044.403.446-2.151 2.007.605.52-1.782 1.227.941 3.568 8.473" fill="#fff"/><path fill-rule="evenodd" clip-rule="evenodd" d="M44.574 13.809a.216.216 0 01-.191-.107l-4.289-7.835c-.052-.095-.009-.21.097-.258.105-.047.233-.009.286.087l4.288 7.834c.051.096.009.211-.097.259a.234.234 0 01-.094.02zM43.966 14.549a.223.223 0 01-.167-.074l-6.132-7.027a.18.18 0 01.035-.27.228.228 0 01.3.031l6.132 7.027a.182.182 0 01-.036.271.229.229 0 01-.132.042zM43.408 15.49a.227.227 0 01-.145-.051L35.644 9.05a.18.18 0 01-.011-.273.23.23 0 01.301-.01l7.62 6.387a.18.18 0 01.01.273.224.224 0 01-.156.062z" fill="#AFB5E8"/><path fill-rule="evenodd" clip-rule="evenodd" d="M37.834 13.463a.24.24 0 01-.073-.011c-.11-.037-.167-.147-.127-.248 1.616-4.02 5.673-5.17 5.714-5.181.111-.032.231.026.265.128.034.102-.03.21-.142.24-.039.011-3.896 1.112-5.436 4.945a.214.214 0 01-.2.127zM39.635 14.462a.24.24 0 01-.061-.008c-.113-.031-.177-.139-.143-.24.703-2.116 4.474-4.253 4.634-4.342a.226.226 0 01.293.062c.063.09.031.209-.068.265-.038.021-3.794 2.15-4.45 4.126a.212.212 0 01-.205.137z" fill="#AFB5E8"/><path fill-rule="evenodd" clip-rule="evenodd" d="M93.543 41.523s3.624-3.126 2.063-5.75c0 0-2.285-1.815-6.969.858 0 0-4.014 1.11-11.65-2.673 0 0-3.01-1.816-3.401-2.32 0 0-1.84-3.48-6.467-2.37 0 0-1.673.756-1.951 2.27l3.567.655s1.116.353 1.227 2.068c0 0 .613 5.648 5.853 7.262 0 0 6.189 2.723 13.714 1.614 0 0 2.007-.453 4.014-1.614z" fill="#0F3E78"/><path fill-rule="evenodd" clip-rule="evenodd" d="M33.616 57.57s-1.088-1.37-1.2-2.606v-2.219l-1.142 1.008s-1.226-1.588-.502-2.723l.307-.378s-1.477-.29-2.3.946c0 0-.669.39-.975 1.185 0 0-.683.416-.502 1.777 0 0 .237 1.753 2.021 3.102l1.338 1.426.515.352 2.44-1.87z" fill="#F46152"/><path fill-rule="evenodd" clip-rule="evenodd" d="M30.131 54.199a.213.213 0 01-.2-.129c-.033-.082-.785-2.03-.243-3.386.04-.1.162-.151.273-.116.11.036.168.147.128.247-.49 1.226.236 3.108.243 3.127.04.1-.018.21-.13.245a.228.228 0 01-.07.012zM29.21 54.779a.213.213 0 01-.203-.135c-.029-.082-.711-2.03-.436-3.09.027-.104.14-.17.256-.144.115.024.186.128.159.232-.248.958.42 2.866.428 2.885.036.101-.026.21-.139.243a.246.246 0 01-.064.009zM28.374 55.334a.214.214 0 01-.199-.124c-.025-.06-.628-1.486-.585-2.435a.2.2 0 01.222-.185c.118.004.209.095.204.2-.04.87.551 2.268.557 2.282.042.099-.012.21-.122.249a.24.24 0 01-.077.013z" fill="#E63B2E"/><path fill-rule="evenodd" clip-rule="evenodd" d="M83.397 50.047c.622-2.099-.223-4.186-1.957-4.963-.663-.297-1.755-.628-2.503-.535 0 0-3.623.455-8.752 5.65 0 0-4.07 5.648-13.993 11.347 0 0-9.756 5.8-22.3-5.044 0 0-2.563 1.967-3.511 3.077 0 0 8.752 8.876 18.786 10.894 0 0 8.698 1.513 20.237-5.7a46.806 46.806 0 009.425-7.192c1.496-1.484 3.732-4.714 4.568-7.534z" fill="#fff"/></svg>