<svg width="64" height="64" viewBox="0 0 64 64" xmlns="http://www.w3.org/2000/svg">
<path fill-rule="evenodd" clip-rule="evenodd" d="M34.8936 56.4841C40.724 51.8116 53.3334 40.198 53.3334 27.1515C53.3334 21.365 51.0858 15.8154 47.085 11.7237C43.0842 7.63204 37.658 5.33334 32.0001 5.33334C26.3421 5.33334 20.9159 7.63204 16.9151 11.7237C12.9144 15.8154 10.6667 21.365 10.6667 27.1515C10.6667 40.198 23.2762 51.8116 29.1066 56.4841C30.8183 57.8559 33.1819 57.8559 34.8936 56.4841ZM26.6667 26.6667C26.6667 23.7212 29.0546 21.3333 32.0001 21.3333C34.9456 21.3333 37.3334 23.7212 37.3334 26.6667C37.3334 29.6122 34.9456 32 32.0001 32C29.0546 32 26.6667 29.6122 26.6667 26.6667Z" />
</svg>
