<svg width="150" height="168" viewBox="0 0 150 168" fill="none" xmlns="http://www.w3.org/2000/svg">
<g style="mix-blend-mode:multiply">
<path fill-rule="evenodd" clip-rule="evenodd" d="M74.8234 167.916C35.5041 167.916 3.62958 165.231 3.62958 161.919C3.62958 158.607 35.5041 155.922 74.8234 155.922C114.143 155.922 146.017 158.607 146.017 161.919C146.017 165.231 114.143 167.916 74.8234 167.916Z" fill="#F5F5FA"/>
</g>
<path fill-rule="evenodd" clip-rule="evenodd" d="M86.0274 4.12079C86.0274 4.12079 89.8291 8.20519 92.6612 5.21022C92.6612 5.21022 93.7087 3.42036 90.9156 3.96508C90.9156 3.96508 91.7689 1.631 89.1701 1.24198C89.1701 1.24198 87.3461 0.969623 86.5707 1.74765C86.5707 1.74765 86.3764 0.269693 81.8762 0.074939C81.8762 0.074939 75.1645 -1.05305 71.7508 5.44353C71.7508 5.44353 71.2465 6.41582 71.1301 8.32185C71.1301 8.32185 70.7422 10.8116 68.2981 12.4453L64.3021 15.3632C64.3021 15.3632 58.4832 19.9532 55.4569 19.9918C55.4569 19.9918 50.4913 19.5252 49.0168 18.5138C49.0168 18.5138 47.8535 19.7975 48.1635 22.1316C48.1635 22.1316 47.6982 26.8774 52.5085 27.8111C52.5085 27.8111 61.7417 22.5206 66.8236 20.8865C66.8236 20.8865 73.9622 19.4861 76.2121 19.5642L78.2298 11.3173C78.2298 11.3173 83.6997 11.5121 86.0274 4.12079" fill="#21364F"/>
<path fill-rule="evenodd" clip-rule="evenodd" d="M93.8638 20.6912C93.8638 20.6912 89.3635 19.4466 86.4151 19.3685L84.4758 15.3231C84.4758 15.3231 87.4627 16.4121 88.0833 15.3231L87.967 11.2382H89.3635L87.6953 4.7812L85.6392 3.3418L79.0833 9.21557L76.8329 11.7835L75.2032 18.5129L68.9579 19.6799C68.9579 19.6799 73.4966 28.7824 80.014 29.4048C80.014 29.4048 90.4111 32.1279 93.8638 20.6912" fill="#F46152"/>
<path fill-rule="evenodd" clip-rule="evenodd" d="M104.571 51.4041C104.571 51.4041 114.988 45.044 117.781 40.7258C117.781 40.7258 111.962 35.416 109.576 31.9149C109.576 31.9149 101.894 21.023 93.8636 20.6923C93.8636 20.6923 90.5366 31.4423 79.3686 29.3154C79.3686 29.3154 72.5549 27.3639 69.3595 20.4199C69.3595 20.4199 62.1967 21.7501 55.6551 26.0742C55.6551 26.0742 48.4742 30.1646 42.9456 31.2733L49.4049 46.0944C49.4049 46.0944 58.5409 40.9596 62.0326 41.6012C62.0326 41.6012 62.7893 45.7439 61.9162 49.9455C61.9162 49.9455 58.3083 69.4926 55.2243 78.4201C55.2243 78.4201 62.9056 78.8872 65.1752 79.4122C65.1752 79.4122 80.1889 82.855 87.288 80.4626C87.288 80.4626 96.075 79.1206 98.9263 79.4705C98.9263 79.4705 100.847 70.193 100.614 63.4829C100.614 63.4829 100.498 54.4382 99.5667 47.6697C99.5667 47.6697 99.3922 44.5769 99.6249 43.7603C99.6249 43.7603 102.534 46.3277 104.571 51.4041" fill="#FFC24C"/>
<path fill-rule="evenodd" clip-rule="evenodd" d="M80.7125 62.4317L63.3711 60.5059C63.3711 60.5059 60.8688 70.7759 63.3711 73.5183C63.3711 73.5183 66.63 75.8524 73.322 75.2686C73.322 75.2686 79.9558 75.3858 80.7125 62.4317" fill="#FFE461"/>
<path fill-rule="evenodd" clip-rule="evenodd" d="M100.63 64.1229L94.3295 63.6562C94.3295 63.6562 92.3483 76.6875 99.4489 76.6198C99.4489 76.6198 100.703 67.1529 100.63 64.1229" fill="#FFE461"/>
<path fill-rule="evenodd" clip-rule="evenodd" d="M104.688 98.083C104.688 98.083 89.7904 110.162 85.6008 112.263L76.057 105.173C76.057 105.173 64.3605 97.6164 60.8689 92.2478C60.8689 92.2478 56.5362 87.5119 58.4696 78.6476L59.0065 77.3105C59.0065 77.3105 92.2345 78.8276 92.2345 79.0025C92.2345 79.1775 91.7687 83.1458 91.6524 84.1373C91.6524 84.1373 91.3615 86.2964 93.2821 87.9884L104.688 98.083Z" fill="#3C6493"/>
<path fill-rule="evenodd" clip-rule="evenodd" d="M76.1735 103.451C76.1735 103.451 68.3759 111.971 64.7097 114.655C64.7097 114.655 51.7325 107.361 48.0087 100.767C48.0087 100.767 58.2504 87.5804 59.2393 85.3047C59.2393 85.3047 61.7997 94.5239 76.1735 103.451" fill="#2B4A6F"/>
<path fill-rule="evenodd" clip-rule="evenodd" d="M144.375 156.377L135.239 161.861L133.318 157.777L137.566 155.326L144.375 156.377Z" fill="#FFAC6F"/>
<path fill-rule="evenodd" clip-rule="evenodd" d="M3.08399 145.873L3.04986e-05 134.612L3.43301 133.795L5.17908 138.93L3.08399 145.873Z" fill="#FFAC6F"/>
<path fill-rule="evenodd" clip-rule="evenodd" d="M137.566 156.325L133.318 158.776C133.318 158.776 126.102 144.771 124.822 142.787C124.822 142.787 118.479 129.367 112.369 123.882C112.369 123.882 98.8101 112.912 87.5207 110.928L102.651 99.9004C102.651 99.9004 115.337 108.303 122.669 117.93C122.669 117.93 127.732 125.808 129.303 132.343L137.566 156.325Z" fill="#F46152"/>
<path fill-rule="evenodd" clip-rule="evenodd" d="M51.3837 103.744C51.3837 103.744 45.8556 112.205 40.7342 115.764C40.7342 115.764 32.9947 120.899 29.7944 122.358C29.7944 122.358 13.6913 130.76 3.4333 133.795L5.17887 138.929C5.17887 138.929 23.2183 135.545 27.7575 133.795C27.7575 133.795 43.9932 127.434 47.2522 125.217C47.2522 125.217 53.3619 123.058 56.7954 118.974L63.72 112.263L51.3837 103.744Z" fill="#F46152"/>
<path fill-rule="evenodd" clip-rule="evenodd" d="M143.405 37.3019C143.405 37.3019 141.31 40.764 142.047 43.7204C142.047 43.7204 138.943 46.9101 137.275 48.2329C137.275 48.2329 130.913 53.4453 126.219 54.6128C126.219 54.6128 122.223 55.8184 118.693 51.345C118.693 51.345 114.891 46.6768 113.688 43.4871L106.007 49.7108C106.007 49.7108 109.886 57.4521 113.028 59.4747C113.028 59.4747 118.382 65.4657 127.15 62.665C127.15 62.665 136.111 59.4747 141 52.7453C141 52.7453 144.491 47.3772 144.996 46.4045L147.129 42.7091C147.129 42.7091 149.418 39.8303 150 39.3636C150 39.3636 149.845 38.7705 148.536 39.9079L146.761 41.3962C146.761 41.3962 148.914 37.6326 149.612 36.6989C149.612 36.6989 149.554 36.3929 149.19 36.5679C149.19 36.5679 149.307 36.0568 149.016 36.1591C149.016 36.1591 146.295 37.9534 145.102 39.9375C145.102 39.9375 146.994 36.597 147.808 35.7656C147.808 35.7656 147.299 35.78 146.994 36.1156C146.994 36.1156 145.058 38.245 144.535 39.1644L143.153 41.2212C143.153 41.2212 143.24 40.4333 143.313 39.6454C143.313 39.6454 143.546 37.6178 143.589 37.3118C143.589 37.3118 143.515 37.1091 143.405 37.3019" fill="#F46152"/>
<path fill-rule="evenodd" clip-rule="evenodd" d="M48.5128 42.0879C48.5128 42.0879 40.5987 45.0834 37.4177 48.6231C37.4177 48.6231 32.7232 52.0461 33.6933 59.554C33.6933 59.554 34.275 66.2839 36.5639 70.2126C36.5639 70.2126 38.2754 70.6016 39.1194 71.1122C39.1194 71.1122 40.2108 71.6668 40.9527 71.5354C40.9527 71.5354 41.2869 72.0751 40.2833 72.2358C40.2833 72.2358 38.407 72.5274 37.9555 72.5126C37.9555 72.5126 39.2214 73.3297 40.2108 73.5481C40.2108 73.5481 42.0875 72.5566 42.9457 73.4463C42.9457 73.4463 42.9167 74.1611 42.4074 74.4527C42.4074 74.4527 43.6586 74.7009 43.6443 75.2263C43.6443 75.2263 43.4984 75.6054 43.1927 75.7656C43.1927 75.7656 43.3386 76.4952 42.3202 76.9035C42.3202 76.9035 42.4365 77.9103 40.3414 78.0413C40.3414 78.0413 37.112 78.4061 34.7843 76.0285C34.7843 76.0285 32.5871 74.4527 30.2308 68.9096C30.2308 68.9096 27.9321 64.2998 26.681 58.8442C26.681 58.8442 25.5171 53.0965 26.681 49.3042C26.681 49.3042 28.2229 43.9356 34.0424 38.9758C34.0424 38.9758 40.4144 34.016 44.2841 32.7031L48.5128 42.0879Z" fill="#F46152"/>
</svg>
