<?xml version="1.0" encoding="UTF-8"?>
<svg width="24px" height="24px" viewBox="0 0 24 24" version="1.1" xmlns="http://www.w3.org/2000/svg" xmlns:xlink="http://www.w3.org/1999/xlink">
    <title>ic_tab_explore_outline</title>
    <g id="ic_tab_explore_outline" stroke="none" stroke-width="1" fill="none" fill-rule="evenodd">
        <path d="M12,1.5 C17.799,1.5 22.5,6.20101 22.5,12 C22.5,17.799 17.799,22.5 12,22.5 C6.20101,22.5 1.5,17.799 1.5,12 C1.5,6.20101 6.20101,1.5 12,1.5 Z M12,3.6 C7.36081,3.6 3.6,7.36081 3.6,12 C3.6,16.6392 7.36081,20.4 12,20.4 C16.6392,20.4 20.4,16.6392 20.4,12 C20.4,7.36081 16.6392,3.6 12,3.6 Z M16.6151902,8.63580244 L16.5854,8.74256 L14.6245,14.6252 L8.74188,16.586 C7.9567287,16.8478 7.2080924,16.1446193 7.38393748,15.3646517 L7.41373,15.2579 L9.3746,9.37527 L15.2572,7.4144 C16.0424087,7.15268609 16.79102,7.85579735 16.6151902,8.63580244 Z M13.9291,10.0707 L11.0348,11.0355 L10.07,13.9297 L12.9643,12.965 L13.9291,10.0707 Z" id="Shape" fill="#6B6B78"></path>
    </g>
</svg>