<svg width="24" height="24" viewBox="0 0 24 24" xmlns="http://www.w3.org/2000/svg">
<path fill-rule="evenodd" clip-rule="evenodd" d="M12 2C12.5523 2 13 2.44772 13 3V4C13 4.02739 12.9989 4.05453 12.9967 4.08136C15.836 4.55002 18 6.98708 18 9.92308V13.6862L20.4422 16.3201C21.0357 16.9601 20.5818 18 19.709 18H4.29104C3.41821 18 2.9643 16.9601 3.55777 16.3201L5.99996 13.6863V9.92308C5.99996 6.98706 8.16392 4.54998 11.0033 4.08135C11.0011 4.05452 11 4.02739 11 4V3C11 2.44772 11.4477 2 12 2ZM16.5334 15.0461C16.1905 14.6763 16 14.1906 16 13.6862V9.92308C16 7.78067 14.2335 6 12 6C9.76641 6 7.99996 7.78067 7.99996 9.92308V13.6863C7.99996 14.1907 7.80942 14.6764 7.4665 15.0462L6.58207 16H17.4179L16.5334 15.0461Z" />
<path d="M13 19C13 19.5523 12.5523 20 12 20C11.4477 20 11 19.5523 11 19H9C9 20.6569 10.3431 22 12 22C13.6569 22 15 20.6569 15 19H13Z" />
</svg>
