<?xml version="1.0" encoding="UTF-8"?>
<svg width="24px" height="24px" viewBox="0 0 24 24" version="1.1" xmlns="http://www.w3.org/2000/svg" xmlns:xlink="http://www.w3.org/1999/xlink">
    <g id="ic_wallet" stroke="none" stroke-width="1" fill-rule="evenodd">
        <path d="M18,3 C19.05,3 19.9177686,3.82004132 19.9944872,4.85130541 L20,5 L20,7 C20.51285,7 20.9355092,7.38604429 20.9932725,7.88337975 L21,8 L21,16 C21,16.51285 20.613973,16.9355092 20.1166239,16.9932725 L20,17 L20,19 C20,20.05 19.1799587,20.9177686 18.1486946,20.9944872 L18,21 L4,21 C2.94045455,21 2.08136364,20.1799587 2.00545361,19.1486946 L2,19 L2,5 C2,3.95 2.81092975,3.0822314 3.85006292,3.00551277 L4,3 L18,3 Z M18,5 L4,5 L4,19 L18,19 L18,17 L15,17 C12.2386,17 10,14.7614 10,12 C10,9.23858 12.2386,7 15,7 L18,7 L18,5 Z M19,9 L15,9 C13.3431,9 12,10.3431 12,12 C12,13.6569 13.3431,15 15,15 L19,15 L19,9 Z M15,10.5 C15.8284,10.5 16.5,11.1716 16.5,12 C16.5,12.8284 15.8284,13.5 15,13.5 C14.1716,13.5 13.5,12.8284 13.5,12 C13.5,11.1716 14.1716,10.5 15,10.5 Z" id="Shape"></path>
    </g>
</svg>
