<svg width="24" height="24" viewBox="0 0 24 24" xmlns="http://www.w3.org/2000/svg">
<path fill-rule="evenodd" clip-rule="evenodd" d="M5 8C5 5.79086 6.79086 4 9 4C11.2091 4 13 5.79086 13 8C13 10.2091 11.2091 12 9 12C6.79086 12 5 10.2091 5 8ZM9 6C7.89543 6 7 6.89543 7 8C7 9.10457 7.89543 10 9 10C10.1046 10 11 9.10457 11 8C11 6.89543 10.1046 6 9 6Z" />
<path d="M7 14C4.23858 14 2 16.2386 2 19V20C2 20.5523 2.44772 21 3 21C3.55228 21 4 20.5523 4 20V19C4 17.3431 5.34315 16 7 16H11C12.6569 16 14 17.3431 14 19V20C14 20.5523 14.4477 21 15 21C15.5523 21 16 20.5523 16 20V19C16 16.2386 13.7614 14 11 14H7Z" />
<path d="M22 21H17.2675V19C17.2675 17.4633 16.6898 16.0615 15.7397 15H18C20.2091 15 22 16.7909 22 19V21Z" />
<path d="M20 10C20 11.6569 18.6569 13 17 13C15.3431 13 14 11.6569 14 10C14 8.34315 15.3431 7 17 7C18.6569 7 20 8.34315 20 10Z" />
</svg>
