<?xml version="1.0" encoding="UTF-8"?>
<svg width="24px" height="24px" viewBox="0 0 24 24" version="1.1" xmlns="http://www.w3.org/2000/svg" xmlns:xlink="http://www.w3.org/1999/xlink">
    <!-- Generator: Sketch 63.1 (92452) - https://sketch.com -->
    <title>icon_home_filled</title>
    <desc>Created with Sketch.</desc>
    <g id="icon_home_filled" stroke="none" stroke-width="1" fill="none" fill-rule="evenodd">
        <path d="M2.25018,12.7918 C1.9532,13.0804 1.48436,13.0674 1.203,12.7628 C0.921644,12.4582 0.934315,11.9774 1.2313,11.6888 L10.6755,2.54129 C11.4183,1.81957 12.5817,1.81957 13.3245,2.54129 L22.7687,11.6888 C23.0657,11.9774 23.0784,12.4582 22.797,12.7628 C22.5156,13.0674 22.0468,13.0804 21.7498,12.7918 L21.5000001,12.5498 L21.5000001,20.5 C21.5000001,21.3284 20.8284,22 20.0000001,22 C18.0000001,22 16.0000001,22 14.0000001,22 L14.0000001,15 L10.0000001,15 L10.0000001,22 C8.00000007,22 6.00000007,22 4.00000007,22 C3.17157,22 2.50000007,21.3284 2.50000007,20.5 L2.50000007,12.5498 L2.25018,12.7918 Z" id="Path" fill="#001027"></path>
    </g>
</svg>
