<svg width="128" height="200" fill="none" xmlns="http://www.w3.org/2000/svg"><mask id="a" maskUnits="userSpaceOnUse" x="0" y="0" width="128" height="200"><path fill="#C9B5F2" d="M0 0h128v200H0z"/></mask><g mask="url(#a)"><path fill="#C9B5F2" d="M0 0h128v200H0z"/><g opacity=".24" fill="#E0D5F8"><circle cx="-6.37" cy="44.369" r="4.635" transform="rotate(-45 -6.37 44.369)"/><circle cx="6.739" cy="31.258" r="4.635" transform="rotate(-45 6.74 31.258)"/><circle cx="19.852" cy="18.147" r="4.635" transform="rotate(-45 19.852 18.147)"/><circle cx="32.964" cy="5.036" r="4.635" transform="rotate(-45 32.964 5.036)"/><circle cx="-6.372" cy="96.813" r="4.635" transform="rotate(-45 -6.372 96.813)"/><circle cx="6.737" cy="83.702" r="4.635" transform="rotate(-45 6.737 83.702)"/><circle cx="19.85" cy="70.591" r="4.635" transform="rotate(-45 19.85 70.59)"/><circle cx="32.962" cy="57.48" r="4.635" transform="rotate(-45 32.962 57.48)"/><circle cx="46.073" cy="44.369" r="4.635" transform="rotate(-45 46.073 44.369)"/><circle cx="59.184" cy="31.258" r="4.635" transform="rotate(-45 59.184 31.258)"/><circle cx="72.294" cy="18.147" r="4.635" transform="rotate(-45 72.294 18.147)"/><circle cx="85.405" cy="5.036" r="4.635" transform="rotate(-45 85.405 5.036)"/><circle cx="-6.368" cy="149.257" r="4.635" transform="rotate(-45 -6.368 149.257)"/><circle cx="6.743" cy="136.146" r="4.635" transform="rotate(-45 6.743 136.146)"/><circle cx="19.854" cy="123.035" r="4.635" transform="rotate(-45 19.854 123.035)"/><circle cx="32.964" cy="109.924" r="4.635" transform="rotate(-45 32.964 109.924)"/><circle cx="46.079" cy="96.813" r="4.635" transform="rotate(-45 46.079 96.813)"/><circle cx="59.188" cy="83.702" r="4.635" transform="rotate(-45 59.188 83.702)"/><circle cx="72.3" cy="70.591" r="4.635" transform="rotate(-45 72.3 70.591)"/><circle cx="85.411" cy="57.48" r="4.635" transform="rotate(-45 85.411 57.48)"/><circle cx="98.52" cy="44.369" r="4.635" transform="rotate(-45 98.52 44.369)"/><circle cx="111.632" cy="31.258" r="4.635" transform="rotate(-45 111.632 31.258)"/><circle cx="124.743" cy="18.147" r="4.635" transform="rotate(-45 124.743 18.147)"/><circle cx="-6.37" cy="201.701" r="4.635" transform="rotate(-45 -6.37 201.701)"/><circle cx="6.743" cy="188.59" r="4.635" transform="rotate(-45 6.743 188.59)"/><circle cx="19.852" cy="175.479" r="4.635" transform="rotate(-45 19.852 175.479)"/><circle cx="32.964" cy="162.368" r="4.635" transform="rotate(-45 32.964 162.368)"/><circle cx="46.075" cy="149.257" r="4.635" transform="rotate(-45 46.075 149.257)"/><circle cx="59.184" cy="136.146" r="4.635" transform="rotate(-45 59.184 136.146)"/><circle cx="72.298" cy="123.035" r="4.635" transform="rotate(-45 72.298 123.035)"/><circle cx="85.407" cy="109.924" r="4.635" transform="rotate(-45 85.407 109.924)"/><circle cx="98.518" cy="96.813" r="4.635" transform="rotate(-45 98.518 96.813)"/><circle cx="111.632" cy="83.702" r="4.635" transform="rotate(-45 111.632 83.702)"/><circle cx="124.741" cy="70.591" r="4.635" transform="rotate(-45 124.741 70.591)"/><circle cx="46.075" cy="201.701" r="4.635" transform="rotate(-45 46.075 201.701)"/><circle cx="59.186" cy="188.59" r="4.635" transform="rotate(-45 59.186 188.59)"/><circle cx="72.298" cy="175.479" r="4.635" transform="rotate(-45 72.298 175.479)"/><circle cx="85.407" cy="162.368" r="4.635" transform="rotate(-45 85.407 162.368)"/><circle cx="98.52" cy="149.257" r="4.635" transform="rotate(-45 98.52 149.257)"/><circle cx="111.63" cy="136.146" r="4.635" transform="rotate(-45 111.63 136.146)"/><circle cx="124.741" cy="123.035" r="4.635" transform="rotate(-45 124.741 123.035)"/><circle cx="98.516" cy="201.701" r="4.635" transform="rotate(-45 98.516 201.701)"/><circle cx="111.626" cy="188.59" r="4.635" transform="rotate(-45 111.626 188.59)"/><circle cx="124.739" cy="175.479" r="4.635" transform="rotate(-45 124.739 175.479)"/><circle cx=".188" cy="11.591" r="4.635" transform="rotate(-45 .188 11.591)"/><circle cx="13.3" cy="-1.52" r="4.635" transform="rotate(-45 13.3 -1.52)"/><circle cx=".182" cy="64.035" r="4.635" transform="rotate(-45 .182 64.035)"/><circle cx="13.296" cy="50.924" r="4.635" transform="rotate(-45 13.296 50.924)"/><circle cx="26.407" cy="37.813" r="4.635" transform="rotate(-45 26.407 37.813)"/><circle cx="39.518" cy="24.702" r="4.635" transform="rotate(-45 39.518 24.702)"/><circle cx="52.63" cy="11.591" r="4.635" transform="rotate(-45 52.63 11.591)"/><circle cx="65.739" cy="-1.52" r="4.635" transform="rotate(-45 65.74 -1.52)"/><circle cx=".186" cy="116.479" r="4.635" transform="rotate(-45 .186 116.479)"/><circle cx="13.298" cy="103.368" r="4.635" transform="rotate(-45 13.298 103.368)"/><circle cx="26.407" cy="90.257" r="4.635" transform="rotate(-45 26.407 90.257)"/><circle cx="39.52" cy="77.146" r="4.635" transform="rotate(-45 39.52 77.146)"/><circle cx="52.63" cy="64.035" r="4.635" transform="rotate(-45 52.63 64.035)"/><circle cx="65.741" cy="50.924" r="4.635" transform="rotate(-45 65.741 50.924)"/><circle cx="78.854" cy="37.813" r="4.635" transform="rotate(-45 78.854 37.813)"/><circle cx="91.964" cy="24.702" r="4.635" transform="rotate(-45 91.964 24.702)"/><circle cx="105.075" cy="11.591" r="4.635" transform="rotate(-45 105.075 11.591)"/><circle cx="118.186" cy="-1.52" r="4.635" transform="rotate(-45 118.186 -1.52)"/><circle cx=".186" cy="168.923" r="4.635" transform="rotate(-45 .186 168.923)"/><circle cx="13.296" cy="155.812" r="4.635" transform="rotate(-45 13.296 155.812)"/><circle cx="26.407" cy="142.701" r="4.635" transform="rotate(-45 26.407 142.701)"/><circle cx="39.518" cy="129.59" r="4.635" transform="rotate(-45 39.518 129.59)"/><circle cx="52.628" cy="116.479" r="4.635" transform="rotate(-45 52.628 116.479)"/><circle cx="65.741" cy="103.368" r="4.635" transform="rotate(-45 65.741 103.368)"/><circle cx="78.852" cy="90.257" r="4.635" transform="rotate(-45 78.852 90.257)"/><circle cx="91.964" cy="77.146" r="4.635" transform="rotate(-45 91.964 77.146)"/><circle cx="105.075" cy="64.035" r="4.635" transform="rotate(-45 105.075 64.035)"/><circle cx="118.184" cy="50.924" r="4.635" transform="rotate(-45 118.184 50.924)"/><circle cx="131.296" cy="37.813" r="4.635" transform="rotate(-45 131.296 37.813)"/><circle cx="26.411" cy="195.145" r="4.635" transform="rotate(-45 26.411 195.145)"/><circle cx="39.52" cy="182.034" r="4.635" transform="rotate(-45 39.52 182.034)"/><circle cx="52.632" cy="168.923" r="4.635" transform="rotate(-45 52.632 168.923)"/><circle cx="65.743" cy="155.812" r="4.635" transform="rotate(-45 65.743 155.812)"/><circle cx="78.852" cy="142.701" r="4.635" transform="rotate(-45 78.852 142.701)"/><circle cx="91.968" cy="129.59" r="4.635" transform="rotate(-45 91.968 129.59)"/><circle cx="105.077" cy="116.479" r="4.635" transform="rotate(-45 105.077 116.479)"/><circle cx="118.188" cy="103.368" r="4.635" transform="rotate(-45 118.188 103.368)"/><circle cx="131.3" cy="90.257" r="4.635" transform="rotate(-45 131.3 90.257)"/><circle cx="78.852" cy="195.145" r="4.635" transform="rotate(-45 78.852 195.145)"/><circle cx="91.964" cy="182.034" r="4.635" transform="rotate(-45 91.964 182.034)"/><circle cx="105.075" cy="168.923" r="4.635" transform="rotate(-45 105.075 168.923)"/><circle cx="118.188" cy="155.812" r="4.635" transform="rotate(-45 118.188 155.812)"/><circle cx="131.298" cy="142.701" r="4.635" transform="rotate(-45 131.298 142.701)"/><circle cx="131.294" cy="195.146" r="4.635" transform="rotate(-45 131.294 195.146)"/></g></g></svg>