<svg width="24" height="24" viewBox="0 0 24 24" xmlns="http://www.w3.org/2000/svg">
<path d="M11.75 7C12.1642 7 12.5 7.33579 12.5 7.75V12.2L16.3419 14.5051C16.7041 14.7225 16.8192 15.1938 16.5978 15.5537C16.3781 15.9106 15.9106 16.0219 15.5537 15.8022L11 13V7.75C11 7.33579 11.3358 7 11.75 7Z" />
<path fill-rule="evenodd" clip-rule="evenodd" d="M2 12C2 6.5 6.5 2 12 2C17.5 2 22 6.5 22 12C22 17.5 17.5 22 12 22C6.5 22 2 17.5 2 12ZM4 12C4 16.4 7.6 20 12 20C16.4 20 20 16.4 20 12C20 7.6 16.4 4 12 4C7.6 4 4 7.6 4 12Z" />
</svg>
