<svg width="106" height="189" viewBox="0 0 106 189" fill="none" xmlns="http://www.w3.org/2000/svg">
<path fill-rule="evenodd" clip-rule="evenodd" d="M53 188.241C82.2711 188.241 106 185.788 106 182.763C106 179.738 82.2711 177.285 53 177.285C23.7289 177.285 0 179.738 0 182.763C0 185.788 23.7289 188.241 53 188.241Z" fill="#F5F5FA"/>
<path fill-rule="evenodd" clip-rule="evenodd" d="M95.0852 58.5868C93.9287 58.9794 93.1587 60.2686 93.3666 61.4652C93.4994 62.2284 93.9769 62.9586 93.8275 63.7194C93.6314 64.7166 92.4939 65.1987 91.8836 66.0152C91.1436 67.0045 91.3278 68.556 92.2788 69.3483C93.1958 70.1107 94.5469 70.1107 95.6955 69.7801C96.2354 69.6246 96.7651 69.4009 97.1936 69.0405C98.1114 68.271 98.4371 66.9645 98.2687 65.7836C98.173 65.1139 97.9533 64.3727 98.3224 63.805C98.705 63.2177 99.5248 63.1219 100.093 62.7089C100.965 62.076 101.086 60.8528 101.13 59.781C101.15 59.3036 101.168 58.8137 101.006 58.3638C100.621 57.2905 99.3003 56.7903 98.1651 56.9544C97.0291 57.1193 96.0402 57.782 95.0939 58.4274L95.0852 58.5868Z" fill="#876FDF"/>
<path fill-rule="evenodd" clip-rule="evenodd" d="M91.8877 50.0821C91.6025 49.4724 90.9496 49.0676 90.2633 48.8938C89.5771 48.7208 88.8538 48.7468 88.1452 48.7888C87.2758 48.8403 86.3145 48.9568 85.7504 49.5781C85.4405 49.9199 85.2999 50.3689 85.0263 50.7375C84.5619 51.3646 83.6979 51.7085 82.8935 51.5876C82.0326 51.4572 81.29 50.8519 80.4175 50.8403C79.3117 50.8251 78.4021 51.8932 78.481 52.9272C78.559 53.9613 79.4516 54.8404 80.5033 55.1626C80.9793 55.3089 81.5125 55.3538 81.9739 55.172C82.5619 54.9396 82.9421 54.3827 83.5194 54.1278C84.796 53.5637 86.2048 54.6934 87.6158 54.7136C89.6644 54.744 91.0222 52.5087 93.0476 52.2226L91.8877 50.0821Z" fill="#876FDF"/>
<path fill-rule="evenodd" clip-rule="evenodd" d="M79.6228 177.367C82.6118 179.836 85.8394 182.002 89.242 183.824C89.242 183.824 86.3615 183.893 85.5575 183.853C80.9396 183.627 77.6694 183.415 73.0515 183.188C73.3691 181.418 73.682 179.102 73.9996 177.332C76.015 177.485 78.0389 177.525 80.0581 177.449L79.6228 177.367Z" fill="#F46152"/>
<path fill-rule="evenodd" clip-rule="evenodd" d="M13.5254 177.87C10.5687 180.15 7.37302 182.155 4 183.847C4 183.847 6.86726 183.89 7.66753 183.847C12.2618 183.606 15.5161 183.389 20.1103 183.148C19.7811 181.53 19.4519 179.414 19.1227 177.797C17.1174 177.952 15.1036 178.003 13.0921 177.949L13.5254 177.87Z" fill="#F46152"/>
<path fill-rule="evenodd" clip-rule="evenodd" d="M77.8191 55.944C69.5477 37.4707 60.5285 19.318 50.7905 1.54225C50.5283 1.06405 50.2479 0.566551 49.7859 0.26604C48.7426 -0.411461 47.2294 0.293079 46.6702 1.38851C46.1102 2.48395 46.2469 3.78642 46.4688 4.99155C47.8683 12.6078 60.3389 45.6748 64.2088 54.7906C64.3849 55.207 64.5832 55.6427 64.9567 55.9069C65.2624 56.1224 65.647 56.195 66.0198 56.2545C69.8131 56.8579 73.7399 56.6454 77.4416 55.6365L77.8191 55.944Z" fill="#F46152"/>
<path fill-rule="evenodd" clip-rule="evenodd" d="M88.0408 73.5508C94.5238 93.2739 100.235 113.257 105.158 133.437C105.29 133.98 105.422 134.55 105.286 135.092C104.977 136.315 103.377 136.798 102.216 136.337C101.056 135.877 100.269 134.788 99.6102 133.716C95.4518 126.942 82.1216 93.2157 78.7653 83.6257C78.6119 83.1878 78.4609 82.7212 78.5577 82.2665C78.6363 81.8947 78.8714 81.5794 79.1066 81.2824C81.4996 78.259 84.5468 75.7691 87.9716 74.0405L88.0408 73.5508Z" fill="#F46152"/>
<path fill-rule="evenodd" clip-rule="evenodd" d="M101.37 49.793C102.241 50.1202 102.752 51.0774 102.762 51.9971C102.773 52.9175 102.368 53.7958 101.86 54.5667C101.078 55.7539 100.04 56.7586 98.9266 57.6507C97.7369 58.604 96.4278 59.4509 94.9619 59.8892C93.4952 60.3284 91.8492 60.3245 90.4842 59.6371C89.1192 58.9504 88.3439 58.1871 88.1973 56.2451C88.115 55.1599 88.7933 53.9115 89.4746 53.057C91.3417 50.7142 94.1812 49.15 97.1805 48.812C98.7977 48.6289 100.624 48.8749 101.688 50.0919L101.37 49.793Z" fill="#F46152"/>
<path fill-rule="evenodd" clip-rule="evenodd" d="M91.4286 60.0625C88.9267 61.6621 85.2556 62.8926 84.8745 66.4128C84.4934 69.933 79.8246 75.488 82.1299 78.1582C79.0495 76.9292 69.6626 73.9366 67.9245 71.0909C64.6718 65.7669 72.8943 58.2383 68.6738 53.6582C72.9849 54.407 76.0184 56.3292 79.7008 58.7127C82.1307 60.2846 86.4426 57.8471 89.0974 56.3185C89.3143 57.0975 89.5303 57.8757 89.7472 58.6547L91.4286 60.0625Z" fill="#F46152"/>
<path fill-rule="evenodd" clip-rule="evenodd" d="M92.4134 51.4218C92.2675 50.908 91.9014 50.3431 91.415 50.0775C90.7068 49.6928 89.4052 50.3951 89.2204 51.1486C89.0347 51.9012 89.4459 52.6865 90.0197 53.2354L92.4134 51.4218Z" fill="#F46152"/>
<path fill-rule="evenodd" clip-rule="evenodd" d="M97.0668 58.3379C97.4125 58.8014 97.6923 59.507 97.6698 60.1362C97.6377 61.0512 96.4349 61.8402 95.7346 61.5395C95.0344 61.2378 94.5978 60.3506 94.433 59.4584L97.0668 58.3379Z" fill="#F46152"/>
<path fill-rule="evenodd" clip-rule="evenodd" d="M92.4433 51.32C93.97 53.415 95.995 55.1948 98.0252 56.801C97.5064 57.5942 96.9572 58.395 96.5361 58.9445C97.6173 59.2654 98.7241 58.8509 99.7251 58.1158L99.9849 58.3136C100.138 58.4312 100.304 58.5504 100.491 58.558C100.666 58.5647 100.83 58.4715 100.983 58.3766C101.866 57.8257 102.666 57.1135 103.338 56.2779C103.692 55.8362 104.608 54.0071 104.329 52.6836C103.764 49.9955 101.694 47.8195 99.2284 47.2477C96.7627 46.6758 93.5238 48.2047 91.4292 49.7397H91.4286C91.2678 50.1811 91.0488 50.4319 90.8298 50.6827C90.6109 50.9335 90.3919 51.1843 90.2311 51.6257C90.8389 51.5976 91.621 51.5015 92.4433 51.32Z" fill="#876FDF"/>
<path fill-rule="evenodd" clip-rule="evenodd" d="M32.3075 95.6707C23.7816 122.979 18.0047 150.923 13.1468 177.715C16.0469 178.715 19.4859 178.94 19.4859 178.94C24.9653 164.873 35.7488 129.99 42.0833 109.972C46.854 109.802 45.8751 109.999 50.6458 109.828C55.8105 131.692 67.5488 157.263 73.2151 178.94C76.2149 179.117 76.5825 178.362 79.5277 177.766C73.8163 153.767 68.6648 128.792 62.9526 104.793C62.8264 104.263 62.6878 103.709 62.3225 103.308C61.895 102.839 61.2424 102.669 60.6279 102.521C51.1683 100.236 41.7079 97.9513 32.2475 95.666L32.3075 95.6707Z" fill="#3B83DB"/>
<path fill-rule="evenodd" clip-rule="evenodd" d="M78.7074 58.3623C78.6426 57.853 78.5138 57.3669 78.3302 56.9069C78.379 56.9133 78.4277 56.9193 78.4762 56.925C77.5467 53.8269 75.6998 49.8965 74.0387 47.125C70.1418 48.2099 66.2232 49.2153 62.2857 50.1407C62.4226 50.7269 62.5364 51.4626 62.6483 52.1862C62.7603 52.9107 62.8705 53.6231 63.0001 54.1615C61.6976 54.8658 60.4426 55.6838 59.2337 56.5191C51.7161 61.7151 44.8269 68.0223 39.9545 75.7682C35.0822 83.5141 31.698 91.2065 31.5238 97.143C39.585 100.258 52.9705 103.494 62.7811 104.292C65.1765 96.4174 70.4714 89.4772 77.3809 85.0461C77.5222 85.3276 77.6742 85.6076 77.8262 85.8876C78.197 86.5707 78.5678 87.2538 78.7828 87.9583C79.8615 87.5069 80.9753 87.1532 82.0887 86.7997C82.432 86.6907 82.7752 86.5817 83.1174 86.4699C85.9576 85.5406 88.7362 84.4108 91.4286 83.0906C90.5495 78.9799 89.2737 75.4322 87.1575 71.8384C87.1536 71.8427 87.1497 71.8471 87.1458 71.8515C86.0376 69.644 84.445 67.7358 84.445 67.7358C79.7092 66.9685 77.2561 61.582 78.7074 58.3623Z" fill="#21364F"/>
</svg>
