<?xml version="1.0" encoding="UTF-8"?>
<svg width="24px" height="24px" viewBox="0 0 24 24" version="1.1" xmlns="http://www.w3.org/2000/svg" xmlns:xlink="http://www.w3.org/1999/xlink">
    <title>ic_tab_explore_filled</title>
    <g id="ic_tab_explore_filled" stroke="none" stroke-width="1" fill="none" fill-rule="evenodd">
        <path d="M12,1.5 C17.799,1.5 22.5,6.20101 22.5,12 C22.5,17.799 17.799,22.5 12,22.5 C6.20101,22.5 1.5,17.799 1.5,12 C1.5,6.20101 6.20101,1.5 12,1.5 Z M16.6604,7.33946 C16.6226667,7.30172667 16.5241333,7.32479778 16.3410074,7.38490741 L15.9999,7.49988 L9.3746,9.37521 L7.49998,16 L7.35816162,16.4256483 C7.31891333,16.5552889 7.30813556,16.6289556 7.33958,16.6604 C7.37103,16.6918444 7.44470222,16.6810667 7.57435353,16.6418184 L8.00004,16.5 L14.6245,14.6251 L16.4999,7.99989 L16.6418012,7.57421686 C16.6810667,7.44457111 16.6918444,7.37090444 16.6604,7.33946 Z" id="Shape" fill="#001027"></path>
    </g>
</svg>
