<svg width="23" height="26" viewBox="0 0 23 26" xmlns="http://www.w3.org/2000/svg">
<path d="M11.4763 -5.60052e-05C11.267 0.00502205 11.0652 0.076363 10.9017 0.203063C10.9017 0.203063 10.0268 0.882079 9.02428 1.65939C7.18531 3.08498 5.101 4.18447 2.86613 4.90567C1.68142 5.28828 0.655605 5.61841 0.655605 5.61841C0.464744 5.6801 0.298762 5.79843 0.181181 5.95662C0.0635996 6.11482 0.00038272 6.30485 0.000488414 6.4998V10.4897C0.000488414 17.4018 4.46946 23.5812 11.1729 25.9434C11.2773 25.9803 11.3875 25.9993 11.4986 25.9996H11.5024C11.6135 25.9993 11.7237 25.9803 11.8281 25.9434C18.5317 23.5817 23.0005 17.4022 23.0005 10.4897V6.49979C23.0006 6.30485 22.9374 6.11481 22.8198 5.95662C22.7022 5.79843 22.5362 5.6801 22.3454 5.6184C22.3454 5.6184 21.3195 5.28828 20.1348 4.90567C17.9 4.18449 15.8157 3.08498 13.9767 1.65939C12.9742 0.882114 12.0993 0.20306 12.0993 0.20306C11.9227 0.0662514 11.702 -0.00569234 11.476 -5.87725e-05L11.4763 -5.60052e-05ZM11.5007 2.11814C11.8292 2.37274 12.0981 2.58076 12.7809 3.11019C14.7964 4.67266 17.0809 5.87614 19.5306 6.66661C20.3628 6.9354 20.7104 7.04818 21.0841 7.16897V10.4896C21.0841 16.504 17.2542 21.8374 11.5007 24.0241C5.74712 21.8373 1.91718 16.5039 1.91718 10.4896V7.16897C2.29089 7.04819 2.63851 6.9354 3.47075 6.66661C5.92029 5.87612 8.2049 4.67266 10.2204 3.11019C10.9032 2.58079 11.1722 2.37277 11.5007 2.11814Z" />
<path fill-rule="evenodd" clip-rule="evenodd" d="M11.5041 10.2102C11.2518 10.2102 11.0019 10.2584 10.7688 10.352C10.5357 10.4457 10.3239 10.5829 10.1455 10.7559C9.96719 10.9289 9.82577 11.1342 9.72937 11.3602C9.63297 11.5861 9.58347 11.8283 9.58371 12.0728C9.58408 12.3994 9.67319 12.7202 9.84207 13.0029C10.0109 13.2856 10.2537 13.5202 10.5458 13.6832V15.7869C10.544 15.91 10.5675 16.0322 10.6148 16.1463C10.6622 16.2605 10.7325 16.3644 10.8216 16.4521C10.9108 16.5397 11.0171 16.6093 11.1342 16.6568C11.2514 16.7043 11.3771 16.7287 11.5041 16.7287C11.6311 16.7287 11.7569 16.7043 11.8741 16.6568C11.9912 16.6093 12.0975 16.5397 12.1866 16.4521C12.2758 16.3644 12.3461 16.2605 12.3935 16.1463C12.4408 16.0322 12.4643 15.91 12.4625 15.7869V13.6814C12.7544 13.5185 12.9969 13.2842 13.1657 13.0018C13.3346 12.7195 13.4239 12.3991 13.4246 12.0728C13.4248 11.8283 13.3753 11.5861 13.2789 11.3602C13.1825 11.1342 13.0411 10.9289 12.8627 10.7559C12.6844 10.5829 12.4726 10.4457 12.2395 10.352C12.0064 10.2584 11.7565 10.2102 11.5041 10.2102Z" />
</svg>
