<?xml version="1.0" encoding="UTF-8"?>
<svg width="24px" height="24px" viewBox="0 0 24 24" version="1.1" xmlns="http://www.w3.org/2000/svg" xmlns:xlink="http://www.w3.org/1999/xlink">
    <g id="ic_dumbbell" stroke="none" stroke-width="1" fill-rule="evenodd">
        <path d="M18.1161,1.80121 L20.8972,4.36897 C22.0196,5.4053 22.0895,7.15532 21.0531,8.27776 C20.8295,8.51994 20.5727,8.71311 20.2961,8.85674 C20.8578,9.91003 20.7247,11.2465 19.8692,12.173 C18.7879,13.3442 16.9619,13.417 15.7907,12.3357 L15.1395,11.7345 L11.8409,15.3071 L12.4922,15.9083 C13.6633,16.9897 13.7362,18.8157 12.6549,19.9869 C11.7975,20.9155 10.472,21.1536 9.376,20.6734 C9.2552,20.9671 9.0811,21.2446 8.85314,21.4915 C7.82408,22.6061 6.08633,22.6754 4.97176,21.6464 L2.16215,19.0523 C1.04759,18.0232 0.97827,16.2855 2.00734,15.1709 C2.23533,14.924 2.49812,14.7283 2.78121,14.5846 C2.21529,13.5302 2.3471,12.19 3.20444,11.2614 C4.28577,10.0903 6.11179,10.0174 7.28297,11.0988 L7.76694,11.5456 L11.0655,7.97299 L10.5815,7.52612 C9.4103,6.44479 9.3375,4.61877 10.4188,3.44759 C11.2743,2.52106 12.5958,2.28193 13.6904,2.75786 C13.8116,2.47071 13.9837,2.1993 14.2073,1.95712 C15.2436,0.834681 16.9937,0.764878 18.1161,1.80121 Z M4.44542246,16.4166083 C4.14467595,16.2115669 3.73111727,16.2521455 3.47679,16.5276 C3.19703,16.8306 3.21587,17.3031 3.51888,17.5828 L6.32849,20.1769 L6.41505529,20.2458143 C6.71579579,20.4509157 7.12936273,20.4102545 7.38369,20.1348 C7.66345,19.8318 7.64461,19.3594 7.3416,19.0796 L4.53199,16.4855 L4.44542246,16.4166083 Z M5.83239473,12.4925715 C5.47475958,12.2422597 4.97826083,12.288475 4.6739,12.6182 C4.34186,12.9778 4.36423,13.5385 4.72385,13.8705 L9.9331,18.6801 L10.0269409,18.7557285 C10.3845618,19.0060403 10.8810667,18.959825 11.1854,18.6301 C11.5174,18.2705 11.4951,17.7098 11.1354,17.3778 L5.92624,12.5682 L5.83239473,12.4925715 Z M12.5349,9.32972 L9.2364,12.9023 L10.3715,13.9503 L13.67,10.3777 L12.5349,9.32972 Z M13.1406,4.75437 C12.781,4.42233 12.2203,4.4447 11.8883,4.80432 C11.5562,5.16394 11.5786,5.72464 11.9382,6.05667 L17.1474,10.8663 C17.507,11.1983 18.0677,11.1759 18.3998,10.8163 C18.7318,10.4567 18.7094,9.89598 18.3498,9.56395 L13.1406,4.75437 Z M16.7594,3.27066 C16.4485,2.98363 15.9638,3.00296 15.6768,3.31384 C15.3897,3.62472 15.4091,4.10942 15.72,4.39645 L18.5011,6.96421 C18.8119,7.25124 19.2966,7.23191 19.5837,6.92103 C19.8707,6.61015 19.8514,6.12545 19.5405,5.83842 L16.7594,3.27066 Z" id="Shape"></path>
    </g>
</svg>
