<?xml version="1.0" encoding="UTF-8"?>
<svg width="24px" height="24px" viewBox="0 0 24 24" version="1.1" xmlns="http://www.w3.org/2000/svg" xmlns:xlink="http://www.w3.org/1999/xlink">
    <!-- Generator: Sketch 54.1 (76490) - https://sketchapp.com -->
    <title>icon-booking-padding-final</title>
    <desc>Created with Sketch.</desc>
    <g id="icon-booking-padding-final" stroke="none" stroke-width="1" fill-rule="evenodd">
        <path d="M9,3 L9,4 L15,4 L15,3 C15,2.44772 15.4477,2 16,2 C16.5523,2 17,2.44772 17,3 L17,4 L19,4 C20.1046,4 21,4.89543 21,6 L21,19 C21,20.1046 20.1046,21 19,21 L5,21 C3.89543,21 3,20.1046 3,19 L3,6 C3,4.89543 3.89543,4 5,4 L7,4 L7,3 C7,2.44772 7.44772,2 8,2 C8.55228,2 9,2.44772 9,3 Z M7,6 L5,6 L5,10 L19,10 L19,6 L17,6 L17,7 C17,7.55228 16.5523,8 16,8 C15.4477,8 15,7.55228 15,7 L15,6 L9,6 L9,7 C9,7.55228 8.55228,8 8,8 C7.44772,8 7,7.55228 7,7 L7,6 Z M5,12 L5,19 L19,19 L19,12 L5,12 Z" id="Shape"></path>
    </g>
</svg>
