<svg width="24" height="24" viewBox="0 0 24 24" xmlns="http://www.w3.org/2000/svg">
<path d="M17.707 7.70711C18.0975 7.31658 18.0975 6.68342 17.707 6.29289C17.3165 5.90237 16.6833 5.90237 16.2928 6.29289L12 10.5857L7.70711 6.29289C7.31658 5.90237 6.68342 5.90237 6.29289 6.29289C5.90237 6.68342 5.90237 7.31658 6.29289 7.70711L10.5857 12L6.2928 16.2929C5.90228 16.6834 5.90228 17.3166 6.2928 17.7071C6.68333 18.0976 7.31649 18.0976 7.70702 17.7071L12 13.4142L16.2929 17.7071C16.6834 18.0976 17.3166 18.0976 17.7071 17.7071C18.0976 17.3166 18.0976 16.6834 17.7071 16.2929L13.4142 12L17.707 7.70711Z" />
</svg>
