<?xml version="1.0" encoding="utf-8"?>
<!-- Generator: Adobe Illustrator 25.4.1, SVG Export Plug-In . SVG Version: 6.00 Build 0)  -->
<svg version="1.1" id="Camada_1" xmlns="http://www.w3.org/2000/svg" xmlns:xlink="http://www.w3.org/1999/xlink" x="0px" y="0px"
	 viewBox="0 0 219 43" style="enable-background:new 0 0 219 43;" xml:space="preserve">
<g>
	<path d="M35.7,17.1h8.8L41.3,33h-6.5l0.4-1.9c-1.1,0.9-2.3,1.5-3.5,1.9c-1.3,0.4-2.7,0.6-4.2,0.6c-2.4,0-4.6-0.5-6.6-1.6
		c-2-1.1-3.6-2.6-4.8-4.7c-1.2-2-1.8-4.4-1.8-7c0-3.5,0.8-6.7,2.5-9.4c1.6-2.8,3.9-4.9,6.8-6.4c2.9-1.5,6.3-2.3,10.1-2.3
		c3,0,5.7,0.5,8,1.5c2.4,1,4.3,2.5,5.7,4.4L40,13.7c-0.9-1.2-2-2.1-3.1-2.6c-1.1-0.5-2.4-0.8-3.8-0.8c-1.8,0-3.3,0.4-4.6,1.2
		c-1.3,0.8-2.3,1.9-3,3.2c-0.7,1.4-1.1,3-1.1,4.8c0,1.9,0.5,3.4,1.5,4.5c1,1.1,2.4,1.6,4.2,1.6c1.3,0,2.7-0.4,4-1.2L35.7,17.1z"/>
	<path d="M74.6,9.4l-14.5,24c-1.3,2.2-2.6,3.8-3.8,5c-1.2,1.2-2.5,2-3.9,2.5c-1.4,0.5-3,0.8-4.9,0.8c-1.3,0-2.6-0.2-3.9-0.6
		c-1.3-0.4-2.3-0.9-3.1-1.5l4.2-6.8c1.1,0.8,2.3,1.2,3.5,1.2c0.9,0,1.7-0.3,2.4-1L45.6,9.4h9.7l2.4,12.7l7.4-12.7H74.6z"/>
	<path d="M108.2,11.1c1.5,1.4,2.3,3.4,2.3,6c0,1-0.1,2-0.3,2.9l-2.6,13h-9.7l2.4-11.7c0.1-0.5,0.2-1,0.2-1.5c0-0.9-0.2-1.5-0.6-1.9
		c-0.4-0.4-0.9-0.6-1.5-0.6c-2,0-3.2,1.4-3.8,4.1L92.2,33h-9.7l2.4-11.7c0.1-0.5,0.2-1,0.2-1.5c0-0.9-0.2-1.5-0.6-1.9
		c-0.4-0.4-0.9-0.6-1.5-0.6c-2,0-3.2,1.4-3.8,4.3L76.8,33h-9.7l4.7-23.5h9.2l-0.5,2.3c1-0.9,2-1.6,3.2-2S86,9,87.2,9
		c1.5,0,2.8,0.3,4,0.9c1.2,0.6,2.2,1.6,2.9,2.8c1-1.2,2.3-2.1,3.7-2.8c1.4-0.6,2.9-1,4.6-1C104.8,9,106.7,9.7,108.2,11.1z"/>
	<path d="M111.7,32c-1-1-1.5-2.2-1.5-3.7c0-1.8,0.6-3.2,1.8-4.3s2.6-1.7,4.3-1.7c1.6,0,2.9,0.5,3.8,1.4c1,0.9,1.5,2.2,1.5,3.7
		c0,1.8-0.6,3.2-1.8,4.3c-1.2,1.1-2.6,1.7-4.3,1.7C114,33.4,112.7,32.9,111.7,32z"/>
	<path d="M151.4,25.7l-1,7.1c-1.4,0.4-2.9,0.6-4.3,0.6c-2,0-3.6-0.4-4.9-1.1c-1.3-0.7-2.2-1.7-2.6-2.9c-1.9,2.7-4.5,4-7.6,4
		c-1.6,0-3.2-0.4-4.6-1.3c-1.5-0.9-2.7-2.1-3.6-3.8c-0.9-1.6-1.4-3.6-1.4-5.8c0-2.5,0.6-4.8,1.7-6.9c1.1-2.1,2.7-3.7,4.6-4.9
		c1.9-1.2,4-1.8,6.2-1.8c3.2,0,5.4,1,6.7,2.9l0.5-2.5h9.7l-2.8,14c-0.1,0.5-0.1,0.7-0.1,0.9c0,1.2,0.6,1.8,1.9,1.8
		C150.4,26.1,151,25.9,151.4,25.7z M137.7,24.3c0.8-1,1.2-2.3,1.2-3.9c0-1.1-0.3-2-0.9-2.7c-0.6-0.7-1.5-1-2.6-1
		c-1.3,0-2.3,0.5-3.1,1.5c-0.8,1-1.2,2.3-1.2,3.9c0,1.1,0.3,2,0.9,2.7c0.6,0.7,1.5,1,2.6,1C135.9,25.7,136.9,25.3,137.7,24.3z"/>
	<path d="M173.9,10.3c1.5,0.9,2.7,2.1,3.6,3.8c0.9,1.7,1.4,3.6,1.4,5.8c0,2.5-0.6,4.8-1.7,6.9c-1.1,2.1-2.7,3.7-4.6,4.9
		c-1.9,1.2-4,1.8-6.2,1.8c-3.2,0-5.4-1-6.7-2.9l-2.2,10.8h-9.7l6.4-31.9h9.2l-0.4,2.2c1.8-1.7,3.9-2.6,6.4-2.6
		C170.9,9,172.4,9.4,173.9,10.3z M167.9,24.3c0.8-1,1.2-2.3,1.2-3.9c0-1.1-0.3-2-0.9-2.7c-0.6-0.7-1.5-1-2.6-1
		c-1.3,0-2.3,0.5-3.1,1.5c-0.8,1-1.2,2.3-1.2,3.9c0,1.1,0.3,2,0.9,2.7c0.6,0.7,1.5,1,2.6,1C166.1,25.7,167.1,25.3,167.9,24.3z"/>
	<path d="M200.6,10.3c1.5,0.9,2.7,2.1,3.6,3.8c0.9,1.7,1.4,3.6,1.4,5.8c0,2.5-0.6,4.8-1.7,6.9c-1.1,2.1-2.7,3.7-4.6,4.9
		c-1.9,1.2-4,1.8-6.2,1.8c-3.2,0-5.4-1-6.7-2.9l-2.2,10.8h-9.7l6.4-31.9h9.2l-0.4,2.2c1.8-1.7,3.9-2.6,6.4-2.6
		C197.6,9,199.1,9.4,200.6,10.3z M194.6,24.3c0.8-1,1.2-2.3,1.2-3.9c0-1.1-0.3-2-0.9-2.7c-0.6-0.7-1.5-1-2.6-1
		c-1.3,0-2.3,0.5-3.1,1.5c-0.8,1-1.2,2.3-1.2,3.9c0,1.1,0.3,2,0.9,2.7c0.6,0.7,1.5,1,2.6,1C192.8,25.7,193.8,25.3,194.6,24.3z"/>
</g>
</svg>
