<svg width="24" height="24" viewBox="0 0 24 24" xmlns="http://www.w3.org/2000/svg">
<path fill-rule="evenodd" clip-rule="evenodd" d="M10.6083 4L10.2516 6.46895L9.72779 6.6873C9.24285 6.88945 8.78888 7.14456 8.38654 7.44893L7.94012 7.78665L5.54087 6.84784L4.17548 9.14344L6.19781 10.6852L6.11658 11.2646C6.08154 11.5145 6.06017 11.7623 6.06017 12C6.06017 12.2373 6.08144 12.4862 6.11739 12.7542L6.19462 13.3301L4.17548 14.8694L5.54087 17.165L7.94012 16.2262L8.38654 16.5639C8.79388 16.8721 9.23351 17.1243 9.72013 17.3224L10.2508 17.5385L10.6065 20H13.3916L13.7484 17.531L14.2722 17.3127C14.7571 17.1106 15.2111 16.8554 15.6134 16.5511L16.0599 16.2133L18.4591 17.1522L19.8245 14.8566L17.8022 13.3148L17.8834 12.7354C17.9184 12.4855 17.9398 12.2377 17.9398 12C17.9398 11.7627 17.9185 11.5138 17.8826 11.2458L17.8054 10.6699L19.8245 9.13059L18.4591 6.83498L16.0599 7.77379L15.6134 7.43607C15.2061 7.12792 14.7665 6.87573 14.2798 6.6776L13.7492 6.46153L13.3935 4H10.6083ZM8.70278 3.2072C8.82845 2.51456 9.43961 2 10.1494 2H13.8506C14.5457 2 15.1631 2.49852 15.2952 3.18357L15.2996 3.20662L15.5683 5.06592C15.8396 5.20045 16.1003 5.34923 16.3513 5.51211L18.1632 4.80309L18.1741 4.79911C18.8135 4.5659 19.5583 4.79358 19.9363 5.40641L19.9405 5.41329L21.7923 8.52657C22.1901 9.18132 21.9854 9.96567 21.4655 10.3936L21.4512 10.4054L19.9251 11.5688C19.9344 11.7102 19.9398 11.8541 19.9398 12C19.9398 12.1416 19.9347 12.2817 19.9258 12.4189L21.4512 13.5817L21.4655 13.5936C21.9854 14.0215 22.1901 14.8058 21.7922 15.4606L19.9405 18.5739L19.9363 18.5807C19.5583 19.1936 18.8135 19.4212 18.1741 19.188L18.1632 19.1841L16.3499 18.4745C16.0972 18.6373 15.836 18.785 15.5687 18.9181L15.3004 20.7751L15.2972 20.7928C15.1715 21.4854 14.5604 22 13.8506 22H10.1494C9.45427 22 8.83685 21.5015 8.70479 20.8164L8.70035 20.7934L8.43169 18.9341C8.16034 18.7996 7.89968 18.6508 7.64872 18.4879L5.83674 19.1969L5.82583 19.2009C5.18645 19.4341 4.44171 19.2064 4.06367 18.5936L4.05943 18.5867L2.20774 15.4735C1.80988 14.8187 2.01452 14.0343 2.53443 13.6064L2.54882 13.5946L4.07487 12.4312C4.06553 12.2898 4.06017 12.1459 4.06017 12C4.06017 11.8584 4.06522 11.7183 4.07413 11.5811L2.54882 10.4183L2.53443 10.4064C2.01453 9.97853 1.80989 9.19418 2.20771 8.53942L4.05943 5.42615L4.06367 5.41927C4.44171 4.80644 5.18645 4.57876 5.82583 4.81197L5.83674 4.81595L7.65011 5.52551C7.90273 5.36273 8.16401 5.21495 8.43125 5.08187L8.69957 3.2249L8.70278 3.2072ZM8.35625 12C8.35625 10.0075 10.02 8.42857 12 8.42857C13.98 8.42857 15.6437 10.0075 15.6437 12C15.6437 13.9925 13.98 15.5714 12 15.5714C10.02 15.5714 8.35625 13.9925 8.35625 12ZM12 10.4286C11.0719 10.4286 10.3562 11.164 10.3562 12C10.3562 12.836 11.0719 13.5714 12 13.5714C12.9281 13.5714 13.6437 12.836 13.6437 12C13.6437 11.164 12.9281 10.4286 12 10.4286Z" />
</svg>
