<svg width="24" height="24" viewBox="0 0 24 24" xmlns="http://www.w3.org/2000/svg">
<path d="M7.3999 7.2C6.8999 7.8 6.8999 8.7 7.3999 9.2C7.9999 9.7 8.8999 9.7 9.3999 9.2C9.8999 8.6 9.8999 7.7 9.3999 7.2C8.7999 6.6 7.8999 6.6 7.3999 7.2Z" />
<path d="M20.4999 16.5999L14.3999 10.5999C15.3999 8.19994 14.8999 5.39994 12.8999 3.49994C10.3999 0.999944 6.29994 1.09994 3.79994 3.59994C1.29994 6.19994 1.29994 10.2999 3.89994 12.7999C5.49994 14.3999 7.79994 14.9999 9.89994 14.4999L12.0999 16.5999C10.8999 17.7999 10.9999 19.6999 12.0999 20.7999C13.1999 21.8999 15.1999 21.8999 16.2999 20.7999C17.4999 21.9999 19.3999 21.8999 20.4999 20.7999C21.6999 19.5999 21.6999 17.6999 20.4999 16.5999ZM19.0999 19.3999C18.6999 19.7999 18.0999 19.7999 17.6999 19.3999L16.1999 17.9999L14.7999 19.3999C14.3999 19.7999 13.7999 19.7999 13.3999 19.3999C12.9999 18.9999 12.9999 18.3999 13.3999 17.9999L14.7999 16.5999L10.3999 12.2999L9.29994 12.4999C7.79994 12.7999 6.29994 12.3999 5.09994 11.2999C3.49994 9.69994 3.39994 6.79994 5.19994 4.99994C6.89994 3.19994 9.79994 3.19994 11.5999 4.99994C12.8999 6.29994 13.2999 8.29994 12.5999 9.89994L12.0999 11.0999L19.0999 17.9999C19.4999 18.3999 19.4999 18.9999 19.0999 19.3999Z" />
</svg>
