<svg width="128" height="160" fill="none" xmlns="http://www.w3.org/2000/svg"><path fill-rule="evenodd" clip-rule="evenodd" d="M59.5 160c9.665 0 17.5-2.686 17.5-6s-7.835-6-17.5-6-17.5 2.686-17.5 6 7.835 6 17.5 6z" fill="#6B6B78" opacity=".1"/><path d="M60.092 148.489c1.016-.663 5.344 2.714 6.976 1.82 1.632-.91 2.972.925 2.603 2.405-.355 1.48-1.125 3.192-1.956 3.438-.832.247-1.032.463-2.788-1.773-1.77-2.235-2.125-.755-3.65-2.158-1.524-1.419-2.217-3.069-1.185-3.732zM50.497 150.124c1.047-.756 5.729 2.621 7.407 1.588 1.679-1.018 3.157.848 2.85 2.421-.309 1.572-1.048 3.392-1.895 3.685-.862.293-1.062.524-3.018-1.743-1.956-2.266-2.264-.694-3.927-2.097-1.663-1.403-2.449-3.114-1.417-3.854z" fill="#0F3E78"/><path d="M57.369 56.517c-1.34.185-2.649.555-3.896 1.064-.293.124-.6.262-.832.494-.631.632-.462 1.711-.077 2.513.093.185.185.37.354.493.2.14.462.154.709.154.539.016 1.078.031 1.601-.092 1.371-.308 2.449-1.604 2.51-2.991" fill="#C34E42"/><path d="M80.497 114.553s-5.082 14.447-5.59 17.408c-.508 2.96.523 7.74-1.817 12.226-2.326 4.487-3.696 6.846-4.066 8.126-.37 1.28-3.172-.925-3.003-1.773.17-.848 2.633-7.432 3.172-15.002.54-7.571 1.756-18.934 2.896-21.91 1.14-2.976 8.408.925 8.408.925zM70.412 113.566s-4.682 15.403-5.082 18.533c-.4 3.13.893 8.095-1.355 12.921-2.249 4.826-3.589 7.37-3.912 8.712-.324 1.356-3.373-.818-3.234-1.727.154-.895 2.433-7.925 2.649-15.897.215-7.971.96-20.932 2.022-24.108 1.078-3.161 8.912 1.566 8.912 1.566z" fill="#F46152"/><path d="M50.375 54.266s-19.604 6.97-19.373 7.37c.231.401 9.27 22.681 9.27 22.681l17.495-7.4 2.064-.71-7.885-21.895-1.57-.046z" fill="#5123AF"/><path d="M51.947 54.297s-20.436 7.308-20.205 7.725c.231.416 9.271 22.68 9.271 22.68l17.495-7.4 2.063-.71-8.624-22.295z" fill="#652CDB"/><path d="M51.53 55.377s-18.973 6.8-18.773 7.17c.216.385 8.625 21.077 8.625 21.077l16.247-6.877 1.925-.663-8.024-20.707z" fill="#fff"/><path opacity=".44" d="M65.27 140.009c0 .031 0 .062-.016.092 0-.046 0-.077.015-.092zM65.19 140.626c0 .03-.016.077-.016.108.015-.047.015-.078.015-.108zM65.342 138.683v.139a.215.215 0 010-.139z" fill="#E57C7D"/><path d="M88.09 52.863s4.774-.817 7.222 2.853c2.45 3.67 1.618 9.158 1.248 10.423-.37 1.264-4.097 7.493-4.097 7.493L88.09 52.863z" fill="#fff"/><path d="M71.658 55.608S58.03 60.14 60.493 69.468c.231 5.644 4.528 19.105 4.482 23.083-.046 3.978-.416 5.458-.986 6.953-.57 1.496 4.574 4.426 10.61 3.562 6.038-.863 9.133-1.835 10.088-4.379.94-2.56 8.67-24.022 9.363-27.614.693-3.593.678-11.965-2.094-15.835-1.109-1.635-4.112-3.392-9.302-2.144-5.19 1.25-10.996 2.514-10.996 2.514z" fill="#fff"/><path d="M54.117 77.27s-3.28 6.831-4.25 8.758c-.97 1.928-7.515-3.577-8.362-3.746-.124-.524-.047-2.79-1.11-3.377-.523-.848.016-3.145-.862-4.163-.877-1.017-.846.756-1.617 3.531-.677-1.372-1.663-3.855-1.663-3.855s-.831 2.56.74 5.212c.584 3.361 1.031 4.147 1.77 6.846.74 2.698 6.376 12.951 12.213 12.504 5.836-.447 12.72-11.61 12.72-11.61l-9.579-10.1z" fill="#F46152"/><path d="M52.255 62.037s4.512-12.967 4.912-13.183c.4-.215 1.463-.061 1.479.355.015.416-5.175 12.15-5.344 12.998-.17.848-1.386 1.943-1.386 1.943l.339-2.113z" fill="#001027"/><path d="M63.712 60.526c-1.155.54-2.695.077-3.342-1.033-.416-.694-.493-1.542-.708-2.344-.216-.786-.663-1.619-1.448-1.834a2.325 2.325 0 00-.924-.031c-.94.138-1.894.663-2.218 1.557-.323.894.478.555 1.417.524-.724.185-1.509 2.236-1.832 2.899-.093.185-.154.37-.124.57.062.386.447.617.77.817a6.54 6.54 0 012.002 2.005c.355.57.632 1.203 1.017 1.758.385.555.94 1.033 1.617 1.14.4.062.816-.015 1.217-.107.831-.185 1.724-.478 2.14-1.218M52.976 56.687c.4-.401 1.032-.679 1.71-.787.035.005.113.016.138.016-.308.663-.616 1.326-1.016 1.973-.077.108-.154.231-.293.324a.605.605 0 01-.493.093.566.566 0 01-.292-.232c-.278-.447-.154-.986.246-1.387z" fill="#F46152"/><path opacity=".44" d="M56.185 60.912c.894.663 2.234.632 3.096-.077" stroke="#C34E42" stroke-width="1.358" stroke-miterlimit="10"/><path opacity=".44" d="M74.181 141.304a.446.446 0 00-.03.139c0-.047.015-.093.03-.139zM74.275 140.903c-.015.046-.015.093-.03.139.015-.046.015-.093.03-.139zM74.076 141.72l-.047.139.047-.139zM73.814 142.553l-.046.139c0-.047.03-.093.046-.139zM73.66 142.969c-.016.047-.031.078-.047.124 0-.046.031-.093.046-.124zM73.953 142.136zM74.353 140.502c-.015.047-.015.077-.03.124.015-.047.03-.077.03-.124zM74.43 140.117c0 .031-.016.062-.016.092 0-.03 0-.061.016-.092zM74.672 137.789c0 .077-.016.154-.016.231 0-.077.016-.154.016-.231zM74.691 137.372c0 .077 0 .17-.015.247.015-.077.015-.154.015-.247zM74.642 138.189c0 .077-.015.139-.015.216.015-.077.015-.139.015-.216zM74.584 139.022c0 .046-.016.092-.016.154 0-.062 0-.108.016-.154zM74.611 138.606c0 .061-.015.123-.015.185 0-.062.015-.124.015-.185z" fill="#E57C7D"/><path d="M45.763 55.92l-1.71.63-1.062-2.673-5.279 1.774.943 2.915-1.742.644.647 1.65 8.777-3.045-.575-1.894zm-3.417-1.117l.24.799-3.39 1.26-.266-.876 3.416-1.183z" fill="#001027"/><path d="M68.32 60.989s8.316 3.855 3.296 14.54c-3.85 8.326-5.79 12.18-7.87 12.674-2.079.509-9.301-2.143-9.917-7.154-.616-5.012.308-2.73 2.171-8.681 1.863-5.952 4.035-14.401 12.32-11.379z" fill="#fff"/><path d="M72.954 71.704c-.246 1.157-.677 2.421-1.324 3.809-3.573 7.724-5.498 11.595-7.423 12.52.262 1.125.508 2.19.724 3.176 1.879-1.018 3.804-4.888 7.315-12.458.77-1.635 1.217-3.1 1.448-4.425a18.877 18.877 0 00-.74-2.622z" fill="#F5F5FA"/><path d="M83.039 57.258s-3.419-7.2-3.773-10.747c-.354-3.546 3.526-11.456-.555-14.016-4.08-2.56-8.932-3.623-10.749-1.88-1.817 1.742-3.588 4.548-3.742 6.013-.154 1.48-.786 17.006 7.469 13.953-.062 9.02-.231 10.069-.231 10.069s3.45 2.59 7.777.74c4.312-1.85 3.804-4.132 3.804-4.132z" fill="#F46152"/><path d="M72.86 48.453c1.51.463 3.096.633 4.652.51.754-.062 1.586-.232 2.032-.849.262-.354.355-.786.416-1.218.262-1.758.216-3.623 1.125-5.15.385-.647.924-1.187 1.293-1.835a4.047 4.047 0 00.37-2.898c-.108-.401-.278-.802-.34-1.203-.215-1.341.648-2.79.063-4.024-.324-.678-1.017-1.08-1.479-1.68-.539-.695-.74-1.635-1.34-2.298-.57-.632-1.509-.94-2.34-.756-.509.108-.986.386-1.494.355-.431-.03-.832-.262-1.201-.478-1.279-.725-2.896-1.326-4.174-.601-.539.308-.955.802-1.51 1.08-1.431.724-3.51-.17-4.604 1.017-.539.586-.6 1.449-.893 2.204-.37.956-1.14 1.727-1.57 2.652-.447.926-.417 2.267.492 2.76.139.078.277.124.385.232.447.4.077 1.326.585 1.634.308.185.693 0 1.063-.015 1.109-.031 1.617 1.557 2.71 1.82.2.045.447.06.57.23.077.108.077.263.077.401l-.046 2.313c0 .2 0 .416.092.586.385.678 1.51.046 2.187.432.354.2.477.632.6 1.017a9.669 9.669 0 002.434 3.932" fill="#0F3E78"/><path d="M69.986 44.998c.688-.028 1.209-.988 1.163-2.145-.046-1.157-.642-2.073-1.33-2.046-.689.028-1.21.988-1.163 2.145.046 1.157.641 2.073 1.33 2.046z" fill="#F46152"/><rect width="5.391" height=".8" rx=".4" transform="rotate(-19.652 203.889 -69.651) skewX(-.043)" fill="#D7DAF3"/><rect width="3.068" height=".8" rx=".4" transform="rotate(-19.652 208.622 -70.91) skewX(-.043)" fill="#D7DAF3"/><path d="M43.59 73.915a.2.2 0 01-.159-.005.236.236 0 01-.11-.128.313.313 0 01-.011-.09l.37-5.901-2.899 1.057a.227.227 0 01-.18-.007.228.228 0 01-.123-.134l-.24-.658a.264.264 0 01-.005-.188.24.24 0 01.144-.125l4.074-1.487a.24.24 0 01.19.005.24.24 0 01.126.143l.213.584c.047.13.064.274.052.432l-.365 5.857a.772.772 0 01-.06.211.278.278 0 01-.156.12l-.86.314zM47.933 72.331a.227.227 0 01-.181-.007.228.228 0 01-.123-.134l-.175-.482a.564.564 0 01.073-.52l.922-1.965c.312-.506.546-.91.702-1.212.16-.31.265-.58.315-.807.05-.229.042-.432-.023-.612-.106-.29-.267-.49-.482-.601-.215-.11-.48-.109-.794.006-.31.113-.52.294-.63.545a1.33 1.33 0 00-.069.823.288.288 0 01-.05.207.329.329 0 01-.15.108l-.833.304a.2.2 0 01-.266-.124 2.262 2.262 0 01-.074-1.128c.074-.391.252-.747.535-1.067.28-.326.657-.576 1.133-.75.493-.18.945-.246 1.353-.2.407.042.75.179 1.031.413.281.233.49.539.627.916.151.414.171.834.06 1.26-.107.416-.335.905-.683 1.466l-.811 1.777 2.62-.956a.24.24 0 01.19.005.24.24 0 01.126.143l.243.667a.241.241 0 01-.004.19.263.263 0 01-.146.117l-4.436 1.618z" fill="#D7DAF3"/><path d="M64.195 100.322c-2.04 1.304-4.25 9.389-4.695 12.918 0 0 2.133.261 2.823-1.718 0 0-.844 2.884 4.449 3.544 5.293.659 5.37-.031 5.37-.031l.629-2.041.322 2.164s6.075 2.178 9.496-.322c.139-.537 3.207-11.461 1.274-14.836-6.045 4.158-17.014 3.881-19.668.322z" fill="#652CDB"/><path d="M62.799 111.614l-.951-.153c.398-2.593 1.651-7 3.278-10.375l.874.414c-1.58 3.268-2.818 7.583-3.201 10.114zM82.59 114.835c.076-.245.26-.828.26-.966-3.743 2.562-9.343.583-9.895.337l.138.952c0-.016 6.075 2.178 9.497-.323z" fill="#fff"/><path d="M72.142 115.035l.23-.721c-.552.077-1.964.23-3.375.169-1.826-.092-3.56-.445-4.925-1.181-1.366-.737-1.212-4.173-1.212-4.173-.553 1.61-1.764 3.298-3.191 3.114-.077.337-.123.675-.169.997 0 0 2.133.261 2.823-1.718 0 0-.844 2.884 4.449 3.544 5.278.66 5.37-.031 5.37-.031z" fill="#fff"/><path d="M78.51 116.032a45.808 45.808 0 00-.354-2.884c-.445-2.792-4.142-4.633-4.142-4.633s-.72 2.7-1.242 4.479l.322 2.164s2.209.843 5.415.874z" fill="url(#paint0_linear)"/><defs><linearGradient id="paint0_linear" x1="73.14" y1="113.872" x2="76.153" y2="112.33" gradientUnits="userSpaceOnUse"><stop stop-color="#DEEAEE"/><stop offset="1" stop-color="#fff"/></linearGradient></defs></svg>