<?xml version="1.0" encoding="UTF-8"?>
<svg width="24px" height="24px" viewBox="0 0 24 24" version="1.1" xmlns="http://www.w3.org/2000/svg" xmlns:xlink="http://www.w3.org/1999/xlink">
    <!-- Generator: Sketch 63.1 (92452) - https://sketch.com -->
    <title>icon_checkin_filled</title>
    <desc>Created with Sketch.</desc>
    <g id="icon_checkin_filled" stroke="none" stroke-width="1" fill="none" fill-rule="evenodd">
        <path d="M12,2 C14.1217,2 16.1566,2.86201 17.6569,4.3964 C19.1571,5.93079 20,8.01186 20,10.1818 C20,15.0742 15.2715,19.4293 13.0851,21.1815 C12.4432,21.696 11.5568,21.696 10.9149,21.1815 L10.4567144,20.8060384 C8.13189459,18.8589582 4,14.7551304 4,10.1818 C4,8.01186 4.84285,5.93079 6.34315,4.3964 C7.84344,2.86201 9.87827,2 12,2 Z M15.2071,7.79292 C14.8466385,7.43244 14.2793793,7.40471077 13.8871027,7.70973231 L13.7929,7.79292 L11.0001,10.5857 L9.89448,9.48015 C9.50396,9.08962 8.8708,9.08962 8.48027,9.48015 C8.11979,9.84063 8.09206077,10.4078309 8.39708231,10.8001771 L8.48027,10.8944 L11.0001,13.4142 L15.2071,9.20714 C15.5976,8.81661 15.5976,8.18345 15.2071,7.79292 Z" id="Shape" fill="#001027"></path>
    </g>
</svg>
