<svg width="128" height="200" fill="none" xmlns="http://www.w3.org/2000/svg"><mask id="a" maskUnits="userSpaceOnUse" x="0" y="0" width="128" height="200"><path fill="#E8EFF9" d="M0 0h128v200H0z"/></mask><g mask="url(#a)"><path d="M0 0h128v200H0V0z" fill="#E8EFF9"/><g opacity=".24" fill-rule="evenodd" clip-rule="evenodd" fill="#89B5E9"><path d="M5.472 186.685l-1.059 1.032-.146.147-.907.929-1.356 1.413a111.406 111.406 0 00-3.408 3.72l-.253.324c-.641.859-.957 1.654-.892 2.87.029.602.269 1.264.65 1.953.16.285.323.542.473.757l.214.29.475.559a50.808 50.808 0 002.183 2.366l1.511 1.512.328.324c.767.75 1.54 1.45 2.203 2.024l.539.459.15.118c.24.183.55.394.909.596.69.388 1.36.628 1.983.647 1.228.063 2.043-.328 3.081-1.15l.24-.184.444-.378c.305-.267.674-.6 1.098-.99l.822-.763 2.257-2.141 1.369-1.32.979-1.002 1.359-1.416a108.879 108.879 0 003.39-3.703l.289-.365c.475-.627.742-1.181.849-2.004.033-.258.043-.525.028-.803-.029-.602-.268-1.264-.65-1.953a8.794 8.794 0 00-.474-.758l-.212-.288-.475-.559a49.56 49.56 0 00-2.356-2.54l-1.339-1.339-.328-.324a49.499 49.499 0 00-1.617-1.509l-.592-.52-.532-.454-.15-.118a8.136 8.136 0 00-.921-.607c-.699-.396-1.376-.64-2-.658-1.275-.048-2.09.33-3.03 1.074l-.135.107-.65.569-.344.308-.724.658-.769.71-1.224 1.153-1.28 1.227zm1.608 6.384a.994.994 0 00-.571.677 1.02 1.02 0 00.273.976l4.287 4.286.101.09a1.016 1.016 0 001.594-.507l1.779-6.028.03-.135a1.03 1.03 0 00-1.302-1.145l-6.065 1.741-.126.045zM35.171 193.756l-1.059 1.032-.146.147-.907.929-1.356 1.413a111.431 111.431 0 00-3.408 3.72l-.253.324c-.641.859-.957 1.654-.892 2.87.03.602.269 1.264.651 1.953.159.285.322.542.473.757l.213.29.475.559a50.795 50.795 0 002.184 2.366l1.51 1.512.328.324c.767.75 1.54 1.45 2.203 2.024l.539.46.15.117c.24.183.551.394.909.596.69.388 1.361.628 1.983.648 1.228.062 2.044-.329 3.082-1.151l.24-.183.443-.379c.305-.267.674-.6 1.099-.99l.821-.763 2.258-2.141 1.368-1.32.979-1.002 1.36-1.416a108.969 108.969 0 003.39-3.703l.288-.365c.475-.627.742-1.181.85-2.004.032-.258.043-.525.028-.803-.03-.602-.269-1.264-.651-1.952a8.645 8.645 0 00-.473-.759l-.213-.288-.475-.559a49.56 49.56 0 00-2.356-2.54l-1.339-1.339-.328-.324a49.499 49.499 0 00-1.617-1.509l-.592-.52-.532-.454-.15-.118a8.136 8.136 0 00-.921-.607c-.699-.396-1.375-.64-2-.658-1.274-.048-2.09.33-3.03 1.075l-.134.106-.65.569-.345.308-.724.658-.769.71-1.223 1.153-1.28 1.227zm1.608 6.384a.994.994 0 00-.57.677 1.02 1.02 0 00.272.976l4.287 4.286.101.09c.247.191.564.26.871.184.183-.045.344-.137.471-.263.117-.117.204-.262.253-.428l1.778-6.028.03-.135a1.03 1.03 0 00-1.301-1.145l-6.065 1.741-.127.045zM-1.598 156.987l-1.059 1.032-.146.146-.907.93-1.356 1.412a111.316 111.316 0 00-3.408 3.721l-.253.324c-.642.858-.957 1.654-.892 2.869.029.603.268 1.265.65 1.953.159.286.323.543.473.758l.213.289.476.559a50.81 50.81 0 002.183 2.366l1.511 1.512.328.324c.767.75 1.54 1.45 2.202 2.024l.54.46.15.118c.239.183.55.394.908.595.69.389 1.362.629 1.984.648 1.228.063 2.043-.328 3.081-1.151l.24-.183.443-.378c.306-.267.675-.6 1.1-.991l.82-.763 2.258-2.141 1.369-1.319.978-1.002 1.36-1.417a110.031 110.031 0 003.39-3.702l.288-.365c.476-.627.743-1.181.85-2.005a4.39 4.39 0 00.028-.802c-.029-.603-.269-1.265-.65-1.953a8.666 8.666 0 00-.474-.758l-.213-.289-.474-.559a49.52 49.52 0 00-2.357-2.54l-1.338-1.338-.329-.325a49.704 49.704 0 00-1.616-1.509l-.592-.52-.533-.454-.149-.118a8.131 8.131 0 00-.922-.607c-.698-.396-1.375-.639-1.999-.657-1.275-.048-2.091.329-3.03 1.074l-.135.107-.65.569-.344.307-.725.658-.768.711-1.224 1.152-1.28 1.228zm1.607 6.384a.99.99 0 00-.57.676 1.02 1.02 0 00.273.976l4.286 4.287.102.089a1.02 1.02 0 001.342-.079c.116-.116.203-.262.252-.427l1.779-6.028.03-.136a1.028 1.028 0 00-.29-.878 1.027 1.027 0 00-1.012-.267l-6.065 1.741-.127.046zM-8.67 127.288l-1.06 1.032-.146.147-.907.929-1.356 1.413a111.431 111.431 0 00-3.408 3.72l-.252.324c-.642.859-.958 1.654-.892 2.87.028.602.268 1.264.65 1.953.159.285.322.542.473.757l.213.29.476.559a50.795 50.795 0 002.183 2.366l1.51 1.512.329.324c.766.75 1.539 1.45 2.202 2.024l.54.459.149.118c.24.183.551.394.91.596.69.388 1.36.628 1.982.647 1.229.063 2.044-.328 3.082-1.15l.24-.184.443-.378c.306-.267.675-.6 1.099-.99l.821-.763 2.258-2.141 1.368-1.32.98-1.002 1.358-1.416c1.333-1.402 2.503-2.673 3.39-3.703l.29-.365c.474-.627.742-1.181.848-2.004.034-.258.044-.525.029-.803-.03-.602-.269-1.264-.65-1.953a8.77 8.77 0 00-.474-.758l-.213-.289-.475-.558a49.54 49.54 0 00-2.356-2.54l-1.338-1.339-.329-.324a49.601 49.601 0 00-1.617-1.509l-.591-.52-.533-.454-.15-.118a8.13 8.13 0 00-.921-.607c-.698-.396-1.375-.64-2-.658-1.274-.048-2.09.33-3.03 1.074l-.134.107-.65.569-.344.308-.725.658-.768.71-1.224 1.153-1.28 1.227zm1.607 6.384a.994.994 0 00-.57.677 1.02 1.02 0 00.272.976l4.287 4.286.102.09a1.016 1.016 0 001.594-.507L.4 133.166l.03-.135a1.03 1.03 0 00-1.301-1.145l-6.065 1.741-.127.045zM64.87 200.827l-1.058 1.032-.147.147-.907.929-1.355 1.413a112.433 112.433 0 00-3.409 3.72l-.252.325c-.642.858-.958 1.653-.892 2.869.028.602.268 1.265.65 1.953.159.285.322.542.473.757l.213.29.475.559a50.795 50.795 0 002.184 2.366l1.51 1.512.329.324c.767.75 1.539 1.45 2.202 2.024l.54.46.149.117c.24.183.551.394.91.596.69.388 1.36.628 1.982.648 1.229.063 2.044-.329 3.082-1.151l.24-.183.443-.379c.306-.267.675-.6 1.099-.99l.821-.763 2.258-2.141 1.368-1.32.98-1.002 1.358-1.416c1.333-1.402 2.503-2.673 3.39-3.703l.29-.365c.474-.627.742-1.181.848-2.004.034-.258.044-.525.029-.802-.03-.603-.269-1.265-.65-1.953a8.645 8.645 0 00-.474-.759l-.213-.288-.475-.559a49.515 49.515 0 00-2.356-2.54l-1.338-1.338-.329-.325a49.499 49.499 0 00-1.617-1.509l-.591-.52-.533-.454-.15-.118a8.127 8.127 0 00-.921-.607c-.698-.396-1.375-.64-2-.658-1.274-.048-2.09.33-3.03 1.075l-.134.106-.65.569-.344.308-.725.658-.768.71-1.224 1.153-1.28 1.227zm1.608 6.384a.994.994 0 00-.57.677 1.02 1.02 0 00.272.976l4.287 4.287.102.089c.247.191.563.26.87.184.184-.045.345-.137.472-.263.116-.117.203-.262.252-.428l1.778-6.028.03-.135a1.03 1.03 0 00-1.301-1.145l-6.065 1.741-.127.045zM28.101 164.058l-1.059 1.032-.146.146-.907.93-1.356 1.413a110.462 110.462 0 00-3.408 3.72l-.253.324c-.641.858-.957 1.654-.892 2.869.029.603.269 1.265.65 1.953a8.6 8.6 0 00.473.758l.214.289.475.559a49.749 49.749 0 002.183 2.366l1.511 1.512.328.325c.767.749 1.54 1.449 2.203 2.023l.539.46.15.118c.24.183.55.394.909.595.69.389 1.36.629 1.983.648 1.228.063 2.043-.328 3.081-1.151l.24-.183.444-.378c.305-.267.674-.6 1.098-.991l.822-.763 2.257-2.141 1.369-1.319.979-1.002 1.359-1.417a109.924 109.924 0 003.39-3.702l.289-.365c.475-.627.742-1.181.849-2.005.033-.257.043-.524.028-.802-.029-.602-.268-1.265-.65-1.953a8.618 8.618 0 00-.474-.758l-.213-.289-.474-.558a49.14 49.14 0 00-2.356-2.541l-1.339-1.338-.328-.325a48.354 48.354 0 00-1.617-1.508l-.592-.521-.532-.454-.15-.118a8.136 8.136 0 00-.921-.607c-.699-.396-1.376-.639-2-.657-1.275-.048-2.09.329-3.03 1.074l-.135.107-.65.569-.344.307-.725.658-.768.711-1.224 1.152-1.28 1.228zm1.608 6.384a.99.99 0 00-.571.676 1.02 1.02 0 00.273.976l4.287 4.287.101.089a1.02 1.02 0 001.342-.079c.116-.116.203-.262.252-.427l1.779-6.028.03-.136a1.03 1.03 0 00-.29-.878 1.027 1.027 0 00-1.012-.267l-6.065 1.741-.126.046zM-15.74 97.59l-1.06 1.032-.146.146-.907.93-1.356 1.412a111.367 111.367 0 00-3.408 3.721l-.253.324c-.641.858-.957 1.654-.892 2.869.03.603.269 1.265.65 1.953a8.6 8.6 0 00.473.758l.214.289.475.559a50.74 50.74 0 002.184 2.366l1.51 1.512.328.324c.767.75 1.54 1.45 2.203 2.024l.539.46.15.118a7.9 7.9 0 00.909.595c.69.389 1.361.629 1.983.648 1.228.063 2.044-.328 3.082-1.151l.239-.183.444-.379c.305-.266.674-.599 1.099-.99l.821-.763 2.257-2.141 1.369-1.319.979-1.002 1.36-1.417a109.956 109.956 0 003.39-3.702l.288-.365c.475-.627.742-1.181.849-2.005a4.39 4.39 0 00.028-.802c-.028-.603-.268-1.265-.65-1.953a8.64 8.64 0 00-.473-.758l-.213-.289-.475-.559a49.41 49.41 0 00-2.356-2.54l-1.339-1.338-.328-.325a49.36 49.36 0 00-1.617-1.508l-.592-.52-.532-.455-.15-.118a8.157 8.157 0 00-.921-.607c-.699-.396-1.375-.64-2-.657-1.274-.048-2.09.329-3.03 1.074l-.134.107-.65.569-.345.307-.724.658-.769.71-1.224 1.153-1.28 1.228zm1.607 6.384a.99.99 0 00-.571.676 1.02 1.02 0 00.273.976l4.287 4.287.101.089a1.02 1.02 0 001.342-.079c.116-.116.204-.262.253-.427l1.778-6.028.03-.136a1.028 1.028 0 00-.29-.878 1.027 1.027 0 00-1.011-.267l-6.066 1.741-.126.046zM57.798 171.129l-1.059 1.032-.146.146-.907.93-1.356 1.413a110.355 110.355 0 00-3.408 3.72l-.253.324c-.641.858-.957 1.654-.892 2.87.03.602.269 1.264.65 1.952.16.286.323.543.474.758l.213.289.475.559a49.855 49.855 0 002.184 2.366l1.51 1.512.328.325c.767.75 1.54 1.449 2.203 2.024l.539.459.15.118c.24.183.551.394.909.595.69.389 1.361.629 1.983.648 1.228.063 2.044-.328 3.082-1.15l.239-.184.444-.378c.305-.267.674-.6 1.099-.991l.821-.763 2.258-2.141 1.368-1.319.979-1.002 1.36-1.417a108.942 108.942 0 003.39-3.702l.288-.365c.475-.627.742-1.181.849-2.005.033-.257.043-.524.028-.802-.028-.602-.268-1.265-.65-1.953a8.666 8.666 0 00-.473-.758l-.213-.289-.475-.558a49.1 49.1 0 00-2.356-2.541l-1.339-1.338-.328-.325a48.55 48.55 0 00-1.617-1.508l-.592-.521-.532-.453-.15-.118a8 8 0 00-.921-.608c-.699-.396-1.375-.639-2-.657-1.274-.048-2.09.329-3.03 1.074l-.134.107-.65.569-.345.308-.724.657-.769.711-1.224 1.152-1.28 1.228zm1.608 6.384a.99.99 0 00-.571.676 1.02 1.02 0 00.273.976l4.287 4.287.101.089a1.013 1.013 0 001.595-.506l1.778-6.028.03-.136a1.03 1.03 0 00-.29-.878 1.027 1.027 0 00-1.011-.267l-6.066 1.741-.126.046zM21.029 134.359l-1.06 1.032-.145.147-.907.929-1.356 1.413a111.431 111.431 0 00-3.409 3.72l-.252.325c-.642.858-.957 1.653-.892 2.869.029.602.268 1.264.65 1.953.159.285.323.542.473.757l.213.29.476.559a50.795 50.795 0 002.183 2.366l1.511 1.512.328.324c.767.75 1.54 1.45 2.202 2.024l.54.46.15.117c.239.183.55.394.908.596.69.388 1.362.628 1.984.648 1.228.062 2.043-.329 3.081-1.151l.24-.183.443-.379c.306-.267.675-.6 1.1-.99l.82-.763 2.258-2.141 1.369-1.32.978-1.002 1.36-1.416c1.332-1.402 2.502-2.673 3.39-3.703l.288-.365c.475-.627.743-1.181.85-2.004.033-.258.043-.525.028-.802-.029-.603-.269-1.265-.65-1.953a8.67 8.67 0 00-.474-.759l-.213-.288-.474-.559a49.515 49.515 0 00-2.357-2.54l-1.338-1.338-.329-.325a49.499 49.499 0 00-1.616-1.509l-.592-.52-.533-.454-.149-.118a8.127 8.127 0 00-.922-.607c-.698-.396-1.375-.64-1.999-.658-1.275-.048-2.091.33-3.03 1.075l-.135.106-.65.569-.344.308-.725.658-.768.71-1.224 1.153-1.28 1.227zm1.607 6.384a.994.994 0 00-.57.677 1.02 1.02 0 00.273.976l4.286 4.287.102.089c.247.191.563.26.87.184.184-.045.345-.137.472-.263.116-.117.203-.262.252-.428l1.778-6.028.03-.135a1.03 1.03 0 00-1.301-1.145l-6.065 1.741-.127.045zM13.958 104.661l-1.058 1.032-.147.146-.907.93-1.356 1.413a110.42 110.42 0 00-3.408 3.72l-.253.324c-.641.858-.957 1.654-.891 2.869.028.603.268 1.265.65 1.953.159.286.322.543.473.758l.213.289.475.559a49.817 49.817 0 002.184 2.366l1.51 1.512.329.325c.766.75 1.539 1.449 2.202 2.023l.54.46.149.118c.24.183.551.394.91.595.69.389 1.36.629 1.982.648 1.229.063 2.044-.328 3.082-1.15l.24-.184.443-.378c.305-.267.674-.6 1.099-.991l.821-.763 2.258-2.141 1.368-1.319.979-1.002 1.36-1.417a109.909 109.909 0 003.39-3.702l.288-.365c.475-.627.742-1.181.85-2.005.033-.257.043-.524.028-.802-.03-.602-.269-1.265-.651-1.953a8.618 8.618 0 00-.473-.758l-.213-.289-.475-.558a49.096 49.096 0 00-2.356-2.541l-1.338-1.338-.329-.325a48.354 48.354 0 00-1.617-1.508l-.591-.521-.533-.454-.15-.118a8.196 8.196 0 00-.921-.607c-.699-.396-1.375-.64-2-.657-1.274-.048-2.09.33-3.03 1.074l-.134.107-.65.569-.345.307-.724.658-.769.711-1.223 1.152-1.28 1.228zm1.608 6.384a.99.99 0 00-.57.676 1.02 1.02 0 00.272.976l4.287 4.287.102.089a1.02 1.02 0 001.341-.079c.117-.116.204-.262.253-.427l1.778-6.028.03-.136a1.03 1.03 0 00-.289-.878 1.027 1.027 0 00-1.012-.267l-6.065 1.741-.127.046zM87.497 178.2l-1.058 1.032-.147.146-.907.93-1.356 1.413a110.355 110.355 0 00-3.408 3.72l-.252.324c-.642.858-.958 1.654-.892 2.87.028.602.268 1.264.65 1.952.159.286.322.543.473.758l.213.289.475.559a49.796 49.796 0 002.184 2.366l1.51 1.512.329.325c.766.75 1.539 1.449 2.202 2.024l.54.459.149.118c.24.183.551.394.91.596.69.388 1.36.628 1.982.647 1.229.063 2.044-.328 3.082-1.15l.24-.184.443-.378c.306-.267.675-.6 1.099-.991l.821-.763 2.258-2.141 1.368-1.319.979-1.002 1.359-1.417a108.493 108.493 0 003.391-3.702l.288-.365c.475-.627.743-1.181.849-2.005.034-.257.044-.524.029-.802-.029-.602-.269-1.264-.651-1.953a8.771 8.771 0 00-.473-.758l-.213-.289-.475-.558a49.309 49.309 0 00-2.356-2.541l-1.338-1.338-.329-.325a49.429 49.429 0 00-1.617-1.508l-.591-.521-.533-.453-.15-.118a8.124 8.124 0 00-.921-.608c-.699-.396-1.375-.639-2-.657-1.274-.048-2.09.329-3.03 1.074l-.134.107-.65.569-.344.308-.725.657-.769.711-1.223 1.152-1.28 1.228zm1.608 6.384a.993.993 0 00-.57.676 1.02 1.02 0 00.272.976l4.287 4.287.102.089a1.013 1.013 0 001.594-.506l1.778-6.028.03-.135a1.03 1.03 0 00-.289-.879 1.027 1.027 0 00-1.012-.267l-6.065 1.742-.127.045zM50.728 141.43l-1.059 1.032-.146.147-.907.929-1.356 1.413a111.431 111.431 0 00-3.408 3.72l-.253.325c-.641.858-.957 1.653-.892 2.869.029.602.268 1.264.65 1.953.16.285.323.542.473.757l.214.29.475.559a50.85 50.85 0 002.183 2.366l1.511 1.512.328.324c.767.75 1.54 1.45 2.203 2.024l.539.46.15.117c.24.183.55.394.909.596.69.388 1.36.628 1.983.648 1.228.063 2.043-.329 3.081-1.151l.24-.183.444-.379c.305-.267.674-.6 1.098-.99l.822-.763 2.257-2.141 1.369-1.32.979-1.002 1.359-1.416c1.333-1.402 2.502-2.673 3.39-3.703l.289-.365c.475-.627.742-1.181.849-2.004.033-.258.043-.525.028-.802-.029-.603-.268-1.265-.65-1.953a8.693 8.693 0 00-.474-.759l-.213-.288-.474-.559a49.565 49.565 0 00-2.357-2.54l-1.338-1.338-.328-.325a49.704 49.704 0 00-1.617-1.509l-.592-.52-.532-.454-.15-.118a8.127 8.127 0 00-.922-.607c-.698-.396-1.375-.64-1.999-.658-1.275-.048-2.09.33-3.03 1.075l-.135.106-.65.569-.344.308-.725.658-.768.71-1.224 1.153-1.28 1.227zm1.608 6.384a.994.994 0 00-.571.677 1.02 1.02 0 00.273.976l4.287 4.287.101.089c.247.191.564.26.87.184.184-.045.345-.137.472-.263.116-.117.203-.262.252-.428l1.779-6.028.03-.135a1.03 1.03 0 00-1.302-1.145l-6.065 1.741-.126.045zM6.886 74.962l-1.059 1.032-.146.147-.907.93-1.356 1.412a111.075 111.075 0 00-3.408 3.72l-.253.325c-.641.858-.957 1.653-.892 2.869.029.602.269 1.264.65 1.953.16.285.323.542.473.757l.214.29.475.559a50.41 50.41 0 002.184 2.366l1.51 1.512.328.324c.767.75 1.54 1.45 2.203 2.024l.539.46.15.117c.24.183.55.394.909.596.69.388 1.361.628 1.983.648 1.228.063 2.044-.329 3.082-1.151l.239-.183.444-.379c.305-.267.674-.6 1.099-.99l.821-.763 2.257-2.141 1.369-1.32.979-1.002 1.359-1.416a109.167 109.167 0 003.39-3.703l.289-.365c.475-.627.742-1.18.849-2.004.033-.258.043-.525.028-.802-.028-.603-.268-1.265-.65-1.953a8.737 8.737 0 00-.474-.759l-.212-.288-.475-.559a49.356 49.356 0 00-2.356-2.54l-1.339-1.338-.328-.325a49.573 49.573 0 00-1.617-1.509l-.592-.52-.532-.454-.15-.118a8.139 8.139 0 00-.921-.607c-.699-.396-1.376-.64-2-.658-1.274-.048-2.09.33-3.03 1.075l-.135.106-.65.57-.344.307-.724.658-.769.71-1.224 1.153-1.28 1.227zm1.608 6.384a.993.993 0 00-.571.677 1.02 1.02 0 00.273.976l4.287 4.287.101.089a1.017 1.017 0 001.342-.08c.116-.116.204-.261.252-.427l1.779-6.028.03-.135a1.03 1.03 0 00-.29-.879 1.028 1.028 0 00-1.012-.266L8.62 81.3l-.126.046zM80.425 148.501l-1.059 1.033-.146.146-.907.929-1.356 1.413a111.352 111.352 0 00-3.408 3.721l-.253.324c-.641.858-.957 1.653-.892 2.869.03.602.269 1.265.65 1.953.16.285.323.542.474.757l.213.29.475.559a50.795 50.795 0 002.184 2.366l1.51 1.512.328.324c.767.75 1.54 1.45 2.203 2.024l.539.46.15.117c.24.183.551.394.909.596.69.388 1.361.628 1.983.648 1.228.063 2.044-.329 3.082-1.151l.239-.183.444-.379c.305-.267.674-.6 1.098-.99l.822-.763 2.257-2.141 1.369-1.32.979-1.002 1.36-1.416c1.332-1.402 2.501-2.673 3.39-3.703l.288-.365c.475-.627.742-1.181.849-2.004.033-.258.043-.525.028-.802-.028-.603-.268-1.265-.65-1.953a8.645 8.645 0 00-.474-.759l-.212-.288-.475-.559a49.515 49.515 0 00-2.356-2.54l-1.339-1.338-.328-.325a49.499 49.499 0 00-1.617-1.509l-.592-.52-.532-.454-.15-.118a8.136 8.136 0 00-.921-.607c-.699-.396-1.376-.64-2-.658-1.274-.047-2.09.33-3.03 1.075l-.134.106-.65.569-.345.308-.724.658-.769.71-1.224 1.153-1.28 1.227zm1.608 6.384a.994.994 0 00-.571.677 1.02 1.02 0 00.273.976l4.287 4.287.101.089c.247.191.564.26.87.184.184-.045.345-.137.472-.263.116-.117.204-.262.252-.428l1.779-6.028.03-.135a1.03 1.03 0 00-1.301-1.145l-6.066 1.741-.126.045zM43.656 111.732l-1.06 1.032-.145.146-.907.93-1.356 1.413a110.355 110.355 0 00-3.409 3.72l-.252.324c-.642.858-.958 1.654-.892 2.87.029.602.268 1.264.65 1.952.159.286.323.543.473.758l.213.289.476.559a49.796 49.796 0 002.183 2.366l1.511 1.512.328.325c.767.75 1.54 1.449 2.202 2.024l.54.459.149.118c.24.183.551.394.91.595.69.389 1.36.629 1.983.648 1.228.063 2.043-.328 3.081-1.15l.24-.184.443-.378c.306-.267.675-.6 1.099-.991l.822-.763 2.257-2.141 1.368-1.319.98-1.002 1.358-1.417a109.062 109.062 0 003.391-3.702l.288-.365c.475-.627.743-1.181.85-2.005.033-.257.043-.524.028-.802-.029-.602-.269-1.265-.65-1.953a8.642 8.642 0 00-.474-.758l-.213-.289-.474-.558a49.1 49.1 0 00-2.357-2.541l-1.338-1.338-.329-.325a48.452 48.452 0 00-1.616-1.508l-.592-.521-.533-.453-.149-.119a8.129 8.129 0 00-.922-.607c-.698-.396-1.375-.639-2-.657-1.274-.048-2.09.329-3.029 1.074l-.135.107-.65.569-.344.308-.725.657-.768.711-1.224 1.152-1.28 1.228zm1.607 6.384a.99.99 0 00-.57.676 1.02 1.02 0 00.273.976l4.286 4.287.102.089a1.013 1.013 0 001.594-.506l1.778-6.028.03-.136a1.03 1.03 0 00-.289-.878 1.027 1.027 0 00-1.012-.267l-6.065 1.741-.127.046zM36.585 82.034l-1.059 1.031-.146.147-.907.93-1.356 1.412a110.911 110.911 0 00-3.408 3.72l-.253.325c-.641.858-.957 1.653-.892 2.869.03.602.269 1.264.651 1.953.159.285.322.542.473.757l.213.29.475.559a50.497 50.497 0 002.184 2.366l1.51 1.512.329.324c.766.75 1.539 1.45 2.202 2.024l.54.46.149.117c.24.183.551.394.909.596.69.388 1.361.628 1.983.648 1.228.063 2.044-.329 3.082-1.151l.24-.183.443-.379c.305-.267.674-.6 1.099-.99l.821-.763 2.258-2.141 1.368-1.32.979-1.002 1.36-1.416a109.393 109.393 0 003.39-3.703l.288-.365c.475-.627.742-1.18.85-2.004.032-.258.043-.525.028-.802-.03-.603-.269-1.265-.651-1.953a8.734 8.734 0 00-.473-.759l-.213-.288-.475-.559a49.353 49.353 0 00-2.356-2.54l-1.338-1.338-.329-.325a49.47 49.47 0 00-1.617-1.509l-.592-.52-.532-.454-.15-.118a8.164 8.164 0 00-.921-.607c-.699-.396-1.375-.64-2-.658-1.274-.047-2.09.33-3.03 1.075l-.134.106-.65.57c-.113.1-.228.202-.344.307l-.725.658-.769.71-1.223 1.153-1.28 1.228zm1.608 6.383a.993.993 0 00-.57.677 1.02 1.02 0 00.272.976l4.287 4.287.101.089a1.017 1.017 0 001.342-.08c.117-.116.204-.261.253-.427l1.778-6.028.03-.135a1.03 1.03 0 00-.289-.879 1.028 1.028 0 00-1.012-.266l-6.066 1.74-.126.046zM110.124 155.573l-1.058 1.032-.147.146-.907.929-1.356 1.413a112.087 112.087 0 00-3.408 3.721l-.253.324c-.641.858-.957 1.653-.891 2.869.028.603.268 1.265.65 1.953.159.286.322.542.473.757l.213.29.475.559a51.11 51.11 0 002.184 2.366l1.511 1.512.328.324c.766.75 1.539 1.45 2.202 2.024l.539.46.15.118c.24.182.551.394.909.595.69.389 1.361.628 1.983.648 1.229.063 2.044-.328 3.082-1.151l.239-.183.444-.379c.306-.267.674-.6 1.099-.99l.821-.763 2.258-2.141 1.368-1.319.979-1.003 1.359-1.416a109.467 109.467 0 003.391-3.703l.288-.365c.475-.627.742-1.181.849-2.004.034-.257.044-.525.029-.802-.029-.603-.269-1.265-.651-1.953a8.892 8.892 0 00-.473-.759l-.213-.288-.475-.559a49.316 49.316 0 00-2.356-2.54l-1.338-1.338-.329-.325a49.091 49.091 0 00-1.617-1.509l-.591-.52-.533-.454-.149-.118a8.113 8.113 0 00-.922-.607c-.699-.396-1.375-.64-1.999-.658-1.275-.047-2.091.33-3.03 1.075l-.135.106-.65.57c-.113.1-.228.202-.344.307l-.725.658-.769.71-1.223 1.153-1.281 1.228zm1.608 6.383a.994.994 0 00-.571.677 1.02 1.02 0 00.273.976l4.287 4.287.101.089a1.021 1.021 0 001.342-.079.997.997 0 00.253-.428l1.778-6.028.03-.135a1.032 1.032 0 00-1.301-1.145l-6.065 1.741-.127.045zM117.124 185.573l-1.058 1.032-.147.146-.907.929-1.356 1.413a112.087 112.087 0 00-3.408 3.721l-.253.324c-.641.858-.957 1.653-.891 2.869.028.603.268 1.265.65 1.953.159.286.322.542.473.757l.213.29.475.559a51.11 51.11 0 002.184 2.366l1.511 1.512.328.324c.766.75 1.539 1.45 2.202 2.024l.539.46.15.118c.24.183.551.394.909.595.69.389 1.361.628 1.983.648 1.229.063 2.044-.328 3.082-1.151l.239-.183.444-.379c.306-.267.674-.6 1.099-.99l.821-.763 2.258-2.141 1.368-1.319.979-1.003 1.359-1.416a109.467 109.467 0 003.391-3.703l.288-.365c.475-.627.742-1.181.849-2.004.034-.257.044-.525.029-.802-.029-.603-.269-1.265-.651-1.953a8.892 8.892 0 00-.473-.759l-.213-.288-.475-.559a49.316 49.316 0 00-2.356-2.54l-1.338-1.338-.329-.325a49.091 49.091 0 00-1.617-1.509l-.591-.52-.533-.454-.149-.118a8.113 8.113 0 00-.922-.607c-.699-.396-1.375-.64-1.999-.658-1.275-.047-2.091.33-3.03 1.075l-.135.106-.65.57c-.113.1-.228.202-.344.307l-.725.658-.769.71-1.223 1.153-1.281 1.228zm1.608 6.383a.994.994 0 00-.571.677 1.02 1.02 0 00.273.976l4.287 4.287.101.089a1.021 1.021 0 001.342-.079.997.997 0 00.253-.428l1.778-6.028.03-.135a1.032 1.032 0 00-1.301-1.145l-6.065 1.741-.127.045zM-.184 45.264l-1.059 1.032-.146.146-.907.93-1.356 1.413a110.968 110.968 0 00-3.408 3.72l-.253.324c-.642.858-.957 1.654-.892 2.87.029.602.268 1.264.65 1.952.159.286.323.543.473.758l.214.29.475.558a50.454 50.454 0 002.183 2.366l1.511 1.512.328.325c.767.75 1.54 1.45 2.203 2.024l.539.46.15.117c.24.183.55.394.909.595.69.389 1.36.629 1.983.648 1.228.063 2.043-.328 3.081-1.15l.24-.184.444-.378c.305-.267.674-.6 1.098-.99l.822-.764 2.257-2.14 1.369-1.32.978-1.002 1.36-1.417a109.167 109.167 0 003.39-3.702l.288-.365c.476-.627.743-1.181.85-2.005.033-.257.043-.524.028-.802-.029-.602-.268-1.265-.65-1.953a8.714 8.714 0 00-.474-.758l-.213-.289-.474-.558a49.398 49.398 0 00-2.357-2.54l-1.338-1.339-.328-.325a49.367 49.367 0 00-1.617-1.508l-.592-.52-.533-.455-.149-.118a8.152 8.152 0 00-.922-.607c-.698-.396-1.375-.64-1.999-.657-1.275-.048-2.091.33-3.03 1.074l-.135.107-.65.569-.344.308-.725.657-.768.71-1.224 1.153-1.28 1.228zm1.608 6.384a.993.993 0 00-.571.676 1.02 1.02 0 00.273.976l4.286 4.287.102.09a1.017 1.017 0 001.342-.08c.116-.116.203-.262.252-.427l1.779-6.028.03-.136a1.03 1.03 0 00-.29-.878 1.028 1.028 0 00-1.012-.267L1.55 51.602l-.126.046zM73.355 118.803l-1.059 1.032-.146.146-.907.93-1.356 1.413a110.462 110.462 0 00-3.408 3.72l-.253.324c-.641.858-.957 1.654-.892 2.87.029.602.269 1.264.65 1.952.16.286.323.543.473.758l.214.289.475.559a49.749 49.749 0 002.183 2.366l1.511 1.512.328.325c.767.75 1.54 1.449 2.203 2.024l.539.459.15.118a7.9 7.9 0 00.909.595c.69.389 1.36.629 1.983.648 1.228.063 2.043-.328 3.081-1.15l.24-.184.444-.378c.305-.267.674-.6 1.098-.991l.822-.763 2.257-2.141 1.369-1.319.978-1.002 1.36-1.417a109.047 109.047 0 003.39-3.702l.289-.365c.475-.627.742-1.181.849-2.005.033-.257.043-.524.028-.802-.029-.602-.268-1.264-.65-1.953a8.77 8.77 0 00-.474-.758l-.213-.289-.474-.558a49.14 49.14 0 00-2.357-2.541l-1.338-1.338-.328-.325a48.354 48.354 0 00-1.617-1.508l-.592-.521-.533-.453-.149-.118a8.13 8.13 0 00-.922-.608c-.698-.396-1.375-.639-1.999-.657-1.275-.048-2.091.329-3.03 1.074l-.135.107-.65.569-.344.308-.725.657-.768.711-1.224 1.152-1.28 1.228zm1.608 6.384a.993.993 0 00-.571.676 1.02 1.02 0 00.273.976l4.287 4.287.101.089a1.013 1.013 0 001.594-.506l1.779-6.028.03-.136a1.03 1.03 0 00-.29-.878 1.027 1.027 0 00-1.012-.267l-6.065 1.741-.126.046zM29.515 52.335l-1.059 1.032-.146.146-.907.93-1.356 1.413a111.01 111.01 0 00-3.408 3.72l-.253.324c-.641.858-.957 1.654-.892 2.87.029.602.269 1.264.65 1.952.16.286.323.543.473.758l.214.29.475.558a50.497 50.497 0 002.183 2.366L27 70.206l.328.325c.767.75 1.54 1.45 2.203 2.023l.539.46.15.118c.24.183.55.394.909.596.69.388 1.36.628 1.983.647 1.228.063 2.044-.328 3.081-1.15l.24-.184.444-.378c.305-.267.674-.6 1.098-.99l.822-.764 2.257-2.14 1.369-1.32.979-1.002 1.359-1.417a109.175 109.175 0 003.39-3.702l.289-.365c.475-.627.742-1.181.849-2.005.033-.257.043-.524.028-.802-.029-.602-.268-1.264-.65-1.953a8.722 8.722 0 00-.474-.758l-.212-.289-.475-.558a49.44 49.44 0 00-2.356-2.54l-1.339-1.339-.328-.325a49.58 49.58 0 00-1.617-1.508l-.592-.52-.532-.455-.15-.117a8.152 8.152 0 00-.922-.608c-.698-.396-1.375-.64-1.999-.657-1.275-.048-2.09.33-3.03 1.074l-.134.107-.65.569-.345.307-.724.658-.769.71-1.224 1.153-1.28 1.228zm1.608 6.384a.993.993 0 00-.571.676 1.02 1.02 0 00.273.976l4.287 4.287.101.09a1.017 1.017 0 001.342-.08c.116-.116.204-.262.252-.427l1.779-6.028.03-.136a1.03 1.03 0 00-.29-.878 1.027 1.027 0 00-1.012-.267l-6.065 1.741-.126.046zM103.054 125.874l-1.059 1.032-.146.146-.907.93-1.356 1.413a110.447 110.447 0 00-3.408 3.72l-.253.324c-.641.858-.957 1.654-.892 2.87.029.602.269 1.264.65 1.953.16.285.323.542.473.757l.214.289.475.559a49.802 49.802 0 002.183 2.366l1.511 1.513.328.324a50.88 50.88 0 002.203 2.024l.539.459.149.118c.24.183.552.394.91.596.69.388 1.361.628 1.983.647 1.228.063 2.044-.328 3.082-1.15l.239-.184.444-.378c.305-.267.674-.6 1.098-.991l.822-.763 2.257-2.141 1.369-1.319.979-1.002 1.359-1.416a110.443 110.443 0 003.391-3.703l.288-.365c.475-.627.742-1.181.849-2.005.033-.257.043-.524.028-.802-.028-.602-.268-1.264-.65-1.953a8.764 8.764 0 00-.474-.758l-.212-.289-.475-.558a49.35 49.35 0 00-2.356-2.54l-1.339-1.339-.328-.324a49.091 49.091 0 00-1.617-1.509l-.592-.521-.532-.453-.15-.118a8.223 8.223 0 00-.921-.608c-.699-.396-1.376-.639-2-.657-1.275-.048-2.091.329-3.03 1.074l-.134.107-.65.569-.345.308-.724.658-.769.71-1.224 1.153-1.28 1.227zm1.608 6.384a.992.992 0 00-.571.677c-.088.352.014.716.273.975l4.287 4.287.101.09a1.017 1.017 0 001.342-.08.991.991 0 00.252-.427l1.779-6.028.03-.135a1.031 1.031 0 00-1.302-1.145l-6.065 1.741-.126.045zM-7.255 15.565l-1.058 1.033-.147.146-.906.93-1.357 1.412a111.004 111.004 0 00-3.408 3.72l-.252.325c-.642.858-.958 1.653-.892 2.869.028.602.268 1.265.65 1.953.159.285.322.542.473.757l.213.29.476.559a50.493 50.493 0 002.183 2.366l1.51 1.512.329.324c.766.75 1.539 1.45 2.202 2.024l.54.46.149.117c.24.183.551.394.91.596.69.388 1.36.628 1.982.648 1.229.063 2.044-.328 3.082-1.15l.24-.184.443-.379c.306-.267.675-.6 1.099-.99l.821-.763 2.258-2.141 1.368-1.32.98-1.002 1.358-1.416a109.264 109.264 0 003.39-3.703l.29-.365c.474-.627.742-1.18.848-2.004.034-.258.044-.525.029-.802-.03-.603-.269-1.265-.65-1.953a8.686 8.686 0 00-.474-.759l-.213-.288-.475-.559a49.357 49.357 0 00-2.356-2.54L7.042 13.95l-.329-.325a49.357 49.357 0 00-1.617-1.509l-.591-.52-.533-.454-.15-.118a8.157 8.157 0 00-.921-.607c-.698-.396-1.375-.64-2-.658-1.274-.048-2.09.33-3.03 1.075l-.134.106-.65.57c-.113.1-.228.202-.344.307l-.725.658-.768.71-1.224 1.153-1.28 1.227zm1.608 6.384a.993.993 0 00-.57.677 1.02 1.02 0 00.272.976l4.287 4.287.102.089a1.017 1.017 0 001.342-.08c.116-.116.203-.261.252-.427l1.778-6.028.03-.135a1.03 1.03 0 00-.289-.879 1.028 1.028 0 00-1.012-.266l-6.065 1.74-.127.046zM66.284 89.105l-1.058 1.032-.147.146-.906.93-1.356 1.412a110.911 110.911 0 00-3.409 3.72l-.252.325c-.642.858-.958 1.653-.892 2.87.028.602.268 1.264.65 1.952.159.286.322.542.473.757l.213.29.476.559a50.79 50.79 0 002.183 2.366l1.51 1.512.329.324c.767.75 1.539 1.45 2.202 2.024l.54.46.149.118c.24.182.551.394.91.595.69.389 1.36.628 1.983.648 1.228.063 2.043-.328 3.081-1.151l.24-.183.443-.379c.306-.267.675-.6 1.099-.99l.822-.763 2.257-2.141 1.368-1.319.98-1.003 1.358-1.416a109.383 109.383 0 003.391-3.703l.288-.365c.475-.627.743-1.18.85-2.004.033-.257.043-.525.028-.802-.029-.603-.269-1.265-.65-1.953a8.71 8.71 0 00-.474-.759l-.213-.288-.475-.559a49.434 49.434 0 00-2.356-2.54l-1.338-1.338-.329-.325a49.375 49.375 0 00-1.617-1.509l-.591-.52-.533-.454-.15-.118a8.161 8.161 0 00-.92-.607c-.7-.396-1.376-.64-2-.658-1.275-.047-2.091.33-3.03 1.075l-.135.106-.65.57c-.113.1-.228.202-.344.307l-.725.658-.768.71-1.224 1.153-1.28 1.228zm1.608 6.383a.993.993 0 00-.57.677 1.02 1.02 0 00.272.976l4.287 4.287.102.089a1.02 1.02 0 001.342-.079c.116-.116.203-.262.252-.428l1.778-6.028.03-.135a1.03 1.03 0 00-.289-.879 1.028 1.028 0 00-1.012-.266l-6.065 1.741-.127.045zM59.212 59.406l-1.059 1.032-.146.146-.907.93-1.356 1.413a111.103 111.103 0 00-3.408 3.72l-.253.324c-.641.858-.957 1.654-.892 2.87.03.602.269 1.264.651 1.953.159.285.322.542.473.757l.213.29.475.558a50.443 50.443 0 002.184 2.366l1.51 1.513.328.324c.767.75 1.54 1.45 2.203 2.024l.539.46.15.117c.24.183.551.394.909.596.69.388 1.361.628 1.983.647 1.228.063 2.044-.328 3.082-1.15l.24-.184.443-.378c.305-.267.674-.6 1.099-.99l.821-.764 2.257-2.14 1.37-1.32.978-1.002 1.36-1.416a109.079 109.079 0 003.39-3.703l.288-.365c.475-.627.742-1.181.85-2.005.032-.257.043-.524.028-.802-.03-.602-.269-1.264-.651-1.953a8.674 8.674 0 00-.473-.758l-.213-.289-.475-.558a49.39 49.39 0 00-2.356-2.54l-1.339-1.339-.328-.325a49.375 49.375 0 00-1.617-1.508l-.591-.52-.533-.454-.15-.118a8.152 8.152 0 00-.921-.608c-.699-.396-1.375-.64-2-.657-1.274-.048-2.09.33-3.03 1.074l-.134.107-.65.57-.345.307-.724.657-.769.71-1.224 1.154-1.28 1.227zm1.608 6.384a.993.993 0 00-.57.676 1.02 1.02 0 00.272.976l4.287 4.287.101.09a1.016 1.016 0 001.342-.08c.117-.116.204-.261.253-.427l1.778-6.028.03-.135a1.03 1.03 0 00-.289-.879 1.028 1.028 0 00-1.012-.266l-6.066 1.74-.126.046zM132.751 132.945l-1.058 1.032-.147.146-.907.93-1.356 1.413a111.17 111.17 0 00-3.408 3.72l-.253.324c-.641.858-.957 1.654-.891 2.87.028.602.268 1.264.65 1.953.159.285.322.542.473.757l.213.29.475.558a50.104 50.104 0 002.184 2.366l1.511 1.513.328.324c.766.75 1.539 1.45 2.202 2.024l.539.459.15.118c.24.183.551.394.909.596.69.388 1.361.628 1.983.647 1.229.063 2.044-.328 3.082-1.15l.239-.184.444-.378c.305-.267.674-.6 1.099-.99l.821-.764 2.258-2.14 1.368-1.32.979-1.002 1.359-1.416a110.443 110.443 0 003.391-3.703l.288-.365c.475-.627.742-1.181.849-2.004a4.34 4.34 0 00.029-.803c-.029-.602-.269-1.264-.651-1.953a9.023 9.023 0 00-.473-.758l-.213-.289-.475-.558a48.906 48.906 0 00-2.356-2.54l-1.338-1.339-.329-.324a49.091 49.091 0 00-1.617-1.509l-.591-.521-.533-.453-.149-.118a8.339 8.339 0 00-.922-.608c-.699-.396-1.375-.639-1.999-.657-1.275-.048-2.091.329-3.03 1.074l-.135.107-.65.569-.345.308-.724.658-.769.71-1.223 1.153-1.281 1.227zm1.608 6.384a.994.994 0 00-.571.677c-.088.352.014.716.273.975l4.287 4.287.101.09a1.017 1.017 0 001.595-.507l1.778-6.028.03-.135a1.031 1.031 0 00-1.301-1.145l-6.065 1.741-.127.045zM22.443 22.637l-1.059 1.032-.146.146-.907.93-1.356 1.412a111.108 111.108 0 00-3.409 3.72l-.252.325c-.642.858-.957 1.653-.892 2.87.029.601.268 1.264.65 1.952.159.285.323.542.473.757l.213.29.476.559a50.437 50.437 0 002.183 2.366l1.511 1.512.328.324c.767.75 1.54 1.45 2.203 2.024l.538.46.15.117c.24.183.552.395.91.596.69.388 1.36.628 1.983.648 1.228.063 2.043-.328 3.081-1.15l.24-.184.444-.379c.305-.267.674-.6 1.098-.99l.822-.763 2.257-2.141 1.369-1.32.978-1.002 1.36-1.416a109.094 109.094 0 003.39-3.703l.288-.365c.476-.627.743-1.18.85-2.004.033-.258.043-.525.028-.802-.029-.603-.268-1.265-.65-1.953a8.698 8.698 0 00-.474-.759l-.213-.288-.474-.559a49.434 49.434 0 00-2.357-2.54L36.74 21.02l-.328-.325a49.375 49.375 0 00-1.617-1.509l-.592-.52-.533-.454-.149-.118a8.161 8.161 0 00-.922-.607c-.698-.396-1.375-.64-1.999-.658-1.275-.047-2.091.33-3.03 1.075l-.135.106-.65.57-.344.307-.725.658-.768.71-1.224 1.153-1.28 1.228zm1.607 6.383a.993.993 0 00-.57.677 1.02 1.02 0 00.273.976l4.287 4.287.1.089a1.017 1.017 0 001.343-.08c.116-.116.203-.261.252-.427l1.779-6.028.03-.135a1.03 1.03 0 00-.29-.879 1.027 1.027 0 00-1.012-.266l-6.065 1.741-.127.045zM95.982 96.176l-1.059 1.032-.146.146-.907.93-1.356 1.412a111.079 111.079 0 00-3.408 3.721l-.253.324c-.641.858-.957 1.653-.892 2.869.029.603.268 1.265.65 1.953.159.286.323.542.473.757l.214.29.475.559a50.85 50.85 0 002.183 2.366l1.511 1.512.328.324c.767.75 1.54 1.45 2.203 2.024l.539.46.15.118c.24.183.55.394.909.595.69.389 1.36.628 1.983.648 1.228.063 2.043-.328 3.081-1.151l.24-.183.444-.379c.305-.267.674-.6 1.098-.99l.822-.763 2.257-2.141 1.369-1.319.978-1.003 1.36-1.416a108.268 108.268 0 003.39-3.703l.289-.365c.475-.627.742-1.181.849-2.004.033-.257.043-.525.028-.802-.029-.603-.268-1.265-.651-1.953a8.42 8.42 0 00-.473-.759l-.213-.288-.474-.559a49.158 49.158 0 00-2.357-2.54l-1.338-1.338-.328-.325a50.937 50.937 0 00-1.617-1.509l-.592-.52-.533-.454-.149-.118a8.111 8.111 0 00-.922-.607c-.698-.396-1.375-.64-1.999-.658-1.275-.047-2.091.33-3.03 1.075l-.135.106-.65.57-.344.307-.725.658-.768.71-1.224 1.153-1.28 1.228zm1.608 6.383a.994.994 0 00-.571.677 1.02 1.02 0 00.273.976l4.287 4.287.101.089a1.02 1.02 0 001.342-.079c.116-.116.203-.262.252-.428l1.779-6.028.03-.135a1.032 1.032 0 00-1.302-1.145l-6.065 1.741-.126.045zM52.142 29.708l-1.059 1.032-.146.146-.907.93-1.356 1.412a111.201 111.201 0 00-3.408 3.72l-.253.325c-.641.858-.957 1.653-.892 2.87.029.602.269 1.264.65 1.952.16.285.323.542.473.757l.214.29.475.559a50.443 50.443 0 002.183 2.366l1.511 1.512.328.324c.767.75 1.54 1.45 2.203 2.024l.539.46.15.118c.24.182.55.394.909.595.69.389 1.36.628 1.983.648 1.228.063 2.044-.328 3.082-1.15l.239-.184.444-.379c.305-.267.674-.6 1.098-.99l.822-.763 2.257-2.141 1.369-1.32.979-1.002 1.359-1.416a109.079 109.079 0 003.39-3.703l.289-.365c.475-.627.742-1.18.849-2.004.033-.258.043-.525.028-.802-.029-.603-.268-1.265-.65-1.953a8.674 8.674 0 00-.474-.759l-.212-.288-.475-.559a49.39 49.39 0 00-2.356-2.54l-1.339-1.338-.328-.325a49.259 49.259 0 00-1.617-1.509l-.592-.52-.533-.454-.149-.118a8.161 8.161 0 00-.922-.607c-.698-.396-1.375-.64-1.999-.658-1.275-.047-2.09.33-3.03 1.075l-.135.106-.65.57-.344.307-.725.658-.768.71-1.224 1.153-1.28 1.228zm1.608 6.383a.993.993 0 00-.571.677 1.02 1.02 0 00.273.976l4.287 4.287.101.09a1.017 1.017 0 001.342-.08c.116-.116.203-.262.252-.428l1.779-6.027.03-.136a1.03 1.03 0 00-.29-.879 1.028 1.028 0 00-1.012-.266l-6.065 1.741-.126.045zM125.681 103.247l-1.059 1.032-.146.146-.907.929-1.356 1.413a112.087 112.087 0 00-3.408 3.721l-.253.324c-.641.858-.957 1.653-.892 2.869.029.603.269 1.265.651 1.953a8.6 8.6 0 00.472.757l.214.29.475.559a51.047 51.047 0 002.183 2.366l1.511 1.512.328.324a49.68 49.68 0 002.203 2.024l.539.46.149.118c.24.183.552.394.91.595.69.389 1.361.628 1.983.648 1.228.063 2.044-.328 3.082-1.151l.239-.183.444-.379c.305-.267.674-.6 1.098-.99l.822-.763 2.257-2.141 1.369-1.319.979-1.003 1.359-1.416a108.268 108.268 0 003.39-3.703l.289-.365c.475-.627.742-1.181.849-2.004.033-.257.043-.525.028-.802-.029-.603-.268-1.265-.65-1.953a8.64 8.64 0 00-.474-.759l-.212-.288-.475-.559a49.767 49.767 0 00-2.356-2.54l-1.339-1.338-.328-.325a48.748 48.748 0 00-1.617-1.509l-.592-.52-.532-.454-.15-.118a8.117 8.117 0 00-.921-.607c-.699-.396-1.376-.64-2-.657-1.275-.048-2.091.329-3.03 1.074l-.135.106-.649.57-.345.307-.724.658-.769.71-1.224 1.153-1.28 1.228zm1.608 6.383a.994.994 0 00-.571.677 1.02 1.02 0 00.273.976l4.287 4.287.101.089a1.02 1.02 0 001.342-.079.995.995 0 00.252-.428l1.779-6.027.03-.136a1.03 1.03 0 00-.289-.878 1.028 1.028 0 00-1.013-.267l-6.065 1.741-.126.045zM15.372-7.062L14.314-6.03l-.147.146-.906.93-1.356 1.413A110.993 110.993 0 008.495.179l-.252.324c-.642.858-.958 1.654-.892 2.87.028.602.268 1.264.65 1.952.159.286.322.543.473.758l.213.29.475.558a50.478 50.478 0 002.184 2.366l1.51 1.512.329.325c.766.75 1.539 1.45 2.202 2.024l.54.46.149.117c.24.183.551.394.91.596.69.388 1.36.628 1.982.647 1.229.063 2.044-.328 3.082-1.15l.24-.184.443-.378c.305-.267.674-.6 1.099-.99l.821-.764 2.258-2.14 1.368-1.32.979-1.002 1.36-1.417a109.312 109.312 0 003.39-3.702l.288-.365c.475-.627.742-1.181.85-2.005.033-.257.043-.524.028-.802-.03-.602-.269-1.264-.65-1.953a8.706 8.706 0 00-.474-.758l-.213-.289-.475-.558a49.361 49.361 0 00-2.356-2.54l-1.338-1.339-.329-.325a49.476 49.476 0 00-1.617-1.508l-.591-.52-.533-.454-.15-.118a8.14 8.14 0 00-.921-.608c-.698-.396-1.375-.64-2-.657-1.274-.048-2.09.33-3.03 1.074l-.134.107-.65.569-.344.308-.725.657-.768.71-1.224 1.153-1.28 1.228zM16.98-.678a.993.993 0 00-.57.676 1.02 1.02 0 00.272.976l4.287 4.287.101.09a1.017 1.017 0 001.343-.08c.116-.116.203-.262.252-.427l1.778-6.028.03-.136a1.03 1.03 0 00-.289-.878 1.028 1.028 0 00-1.012-.267L17.107-.724l-.127.046zM88.912 66.477l-1.06 1.032-.146.147-.907.929-1.356 1.413a111.004 111.004 0 00-3.408 3.72l-.252.324c-.642.858-.958 1.654-.892 2.87.028.602.268 1.264.65 1.953.159.285.322.542.473.757l.213.29.475.558a50.447 50.447 0 002.184 2.366l1.51 1.513.329.324c.767.75 1.539 1.45 2.202 2.024l.54.46.149.117c.24.183.551.394.91.596.69.388 1.36.628 1.982.647 1.229.063 2.044-.328 3.082-1.15l.24-.184.443-.378c.306-.267.675-.6 1.099-.99l.821-.763 2.258-2.142 1.368-1.319.979-1.002 1.359-1.416c1.333-1.402 2.503-2.674 3.391-3.703l.288-.365c.475-.627.743-1.181.849-2.005.034-.257.044-.524.029-.802-.029-.602-.269-1.264-.651-1.953a8.69 8.69 0 00-.473-.758l-.213-.289-.475-.558a49.15 49.15 0 00-2.356-2.54l-1.338-1.339-.329-.325a48.962 48.962 0 00-1.617-1.508l-.591-.52-.533-.454-.15-.118a8.139 8.139 0 00-.921-.608c-.698-.396-1.375-.64-2-.657-1.274-.048-2.09.33-3.03 1.074l-.134.107-.65.57c-.113.1-.228.202-.344.307l-.725.658-.768.71-1.224 1.153-1.28 1.227zm1.607 6.384a.993.993 0 00-.57.677 1.02 1.02 0 00.272.975l4.287 4.287.102.09a1.017 1.017 0 001.341-.08c.117-.116.204-.261.253-.427l1.778-6.028.03-.135a1.03 1.03 0 00-.289-.879 1.028 1.028 0 00-1.012-.266l-6.065 1.74-.127.046zM81.84 36.779l-1.06 1.032-.146.146-.907.93-1.356 1.412a110.911 110.911 0 00-3.408 3.72l-.253.325c-.641.858-.957 1.653-.892 2.87.03.602.269 1.264.65 1.952.16.286.323.542.474.757l.213.29.475.559a50.487 50.487 0 002.184 2.366l1.51 1.512.329.324c.766.75 1.539 1.45 2.202 2.024l.539.46.15.118c.24.182.551.394.909.595.69.389 1.361.628 1.983.648 1.228.063 2.044-.328 3.082-1.15l.239-.184.444-.379c.305-.267.674-.6 1.099-.99l.821-.763 2.258-2.141 1.368-1.32.979-1.002 1.36-1.416a109.757 109.757 0 003.39-3.703l.288-.365c.475-.627.742-1.18.849-2.004.033-.257.043-.525.029-.802-.029-.603-.269-1.265-.651-1.953a8.935 8.935 0 00-.473-.758l-.213-.29-.475-.558a49.353 49.353 0 00-2.356-2.54l-1.339-1.338-.328-.325a49.47 49.47 0 00-1.617-1.509l-.592-.52-.532-.454-.15-.118a8.154 8.154 0 00-.921-.607c-.699-.396-1.375-.64-2-.657-1.274-.048-2.09.329-3.03 1.074l-.134.106-.65.57-.345.307-.724.658-.769.71-1.224 1.153-1.28 1.228zm1.607 6.383a.993.993 0 00-.571.677 1.02 1.02 0 00.273.976l4.287 4.287.101.09a1.017 1.017 0 001.342-.08c.117-.116.204-.262.253-.428l1.778-6.027.03-.136a1.03 1.03 0 00-.29-.879 1.028 1.028 0 00-1.011-.266l-6.066 1.741-.126.046zM45.07.01L44.01 1.04l-.145.146-.907.93-1.356 1.413a111.074 111.074 0 00-3.408 3.72l-.253.324c-.642.858-.958 1.654-.892 2.87.029.602.268 1.264.65 1.952.159.286.323.543.473.758l.214.29.475.558a50.447 50.447 0 002.183 2.366l1.511 1.513.328.324c.767.75 1.54 1.45 2.202 2.024l.54.46.15.117c.239.183.55.394.908.596.69.388 1.362.628 1.984.647 1.228.063 2.043-.328 3.081-1.15l.24-.184.443-.378c.306-.267.675-.6 1.1-.99l.82-.764 2.258-2.14 1.369-1.32.978-1.002 1.36-1.416a109.199 109.199 0 003.39-3.703l.288-.365c.475-.627.743-1.181.85-2.004.033-.258.043-.525.028-.803-.029-.602-.269-1.264-.65-1.953a8.705 8.705 0 00-.474-.758l-.213-.289-.474-.558a49.401 49.401 0 00-2.357-2.54l-1.338-1.339-.328-.324a49.511 49.511 0 00-1.617-1.51l-.592-.52-.533-.453-.149-.118a8.146 8.146 0 00-.922-.608c-.698-.396-1.375-.64-1.999-.657-1.275-.048-2.091.33-3.03 1.074l-.135.107-.65.57-.344.307-.725.658-.768.71-1.224 1.153L45.07.009zm1.607 6.383a.993.993 0 00-.57.677 1.02 1.02 0 00.273.975l4.286 4.287.102.09a1.017 1.017 0 001.342-.08c.116-.116.203-.261.252-.427l1.779-6.028.03-.135a1.03 1.03 0 00-.29-.879 1.028 1.028 0 00-1.012-.266l-6.065 1.74-.127.046zM118.609 73.548l-1.059 1.032-.146.147-.907.929-1.356 1.413a109.588 109.588 0 00-3.408 3.72l-.253.324c-.642.859-.957 1.654-.892 2.87.029.602.268 1.264.65 1.953.159.285.323.542.473.757l.214.29.475.558a50.692 50.692 0 002.183 2.367l1.511 1.512.328.324c.767.75 1.539 1.45 2.202 2.024l.54.46.149.117c.24.183.552.394.909.596.69.388 1.362.628 1.984.647 1.228.063 2.043-.328 3.081-1.15l.24-.184.443-.378c.306-.267.675-.6 1.099-.99l.822-.763 2.257-2.141 1.369-1.32.978-1.002 1.36-1.416c1.332-1.402 2.502-2.674 3.39-3.703l.289-.365c.475-.627.742-1.181.849-2.004.033-.258.043-.525.028-.803-.029-.602-.269-1.264-.651-1.953a8.443 8.443 0 00-.473-.758l-.213-.289-.474-.558a49.69 49.69 0 00-2.357-2.54l-1.338-1.339-.328-.324a51.061 51.061 0 00-1.617-1.51l-.592-.52-.533-.453-.149-.118a8.138 8.138 0 00-.922-.608c-.698-.395-1.375-.64-1.999-.657-1.275-.048-2.091.33-3.03 1.074l-.135.107-.65.57-.344.307-.725.658-.768.71-1.224 1.153-1.28 1.227zm1.607 6.384a.994.994 0 00-.57.677 1.02 1.02 0 00.273.975l4.286 4.287.102.09a1.016 1.016 0 001.342-.08c.116-.116.203-.261.252-.427l1.779-6.028.03-.135a1.029 1.029 0 00-.29-.879 1.027 1.027 0 00-1.012-.266l-6.065 1.74-.127.046zM74.769 7.08L73.71 8.112l-.146.146-.907.93-1.356 1.413a110.911 110.911 0 00-3.408 3.72l-.253.324c-.641.859-.957 1.654-.892 2.87.029.602.268 1.264.65 1.953.16.285.323.542.473.757l.214.29.475.558a50.548 50.548 0 002.183 2.366l1.511 1.513.328.324c.767.75 1.54 1.45 2.203 2.024l.539.46.15.117a8 8 0 00.909.596c.69.388 1.36.628 1.983.647 1.228.063 2.043-.328 3.081-1.15l.24-.184.444-.378c.305-.267.674-.6 1.098-.99l.822-.764 2.257-2.14 1.369-1.32.978-1.002 1.36-1.416a109.393 109.393 0 003.39-3.703l.289-.365c.475-.627.742-1.181.849-2.004.033-.258.043-.525.028-.803-.029-.602-.268-1.264-.65-1.953a8.734 8.734 0 00-.474-.758l-.213-.289-.474-.558a49.361 49.361 0 00-2.357-2.54l-1.338-1.339-.328-.324a49.511 49.511 0 00-1.617-1.51l-.592-.52-.532-.453-.15-.118a8.158 8.158 0 00-.922-.608c-.698-.396-1.375-.64-1.999-.657-1.275-.048-2.09.33-3.03 1.074l-.135.107-.65.57-.344.307-.725.658-.768.71-1.224 1.153-1.28 1.227zm1.608 6.384a.993.993 0 00-.571.677 1.02 1.02 0 00.273.975l4.287 4.287.101.09a1.017 1.017 0 001.342-.08c.116-.116.204-.261.252-.427l1.779-6.028.03-.135a1.03 1.03 0 00-.29-.879 1.028 1.028 0 00-1.012-.266l-6.065 1.74-.126.046zM111.538 43.85l-1.058 1.032-.147.146-.907.93-1.356 1.412a111.834 111.834 0 00-3.408 3.72l-.252.325c-.642.858-.958 1.654-.892 2.87.028.602.268 1.264.65 1.952.159.286.322.542.473.758l.213.29.475.558a50.753 50.753 0 002.184 2.366l1.511 1.512.328.324c.766.75 1.539 1.45 2.202 2.024l.539.46.15.118c.24.183.551.394.909.595.69.389 1.361.628 1.983.648 1.229.063 2.044-.328 3.082-1.15l.239-.184.444-.379c.306-.267.675-.6 1.099-.99l.821-.763 2.258-2.14 1.368-1.32.979-1.003 1.359-1.416c1.333-1.402 2.503-2.673 3.391-3.703l.288-.364c.475-.628.743-1.181.849-2.005.034-.257.044-.525.029-.802-.029-.603-.269-1.265-.651-1.953a8.676 8.676 0 00-.473-.759l-.213-.288-.475-.559a49.19 49.19 0 00-2.356-2.54l-1.338-1.338-.329-.325a48.97 48.97 0 00-1.617-1.509l-.591-.52-.533-.454-.149-.118a8.138 8.138 0 00-.922-.607c-.698-.396-1.375-.64-1.999-.657-1.275-.048-2.091.329-3.03 1.074l-.135.106-.65.57c-.113.1-.228.202-.344.307l-.725.658-.768.71-1.224 1.153-1.281 1.228zm1.608 6.383a.993.993 0 00-.571.677 1.02 1.02 0 00.273.976l4.287 4.287.102.09a1.015 1.015 0 001.594-.508l1.778-6.028.03-.135a1.03 1.03 0 00-1.301-1.145l-6.065 1.741-.127.045zM104.468 14.151l-1.059 1.032-.146.146-.907.93L101 17.672a111.295 111.295 0 00-3.408 3.72l-.253.324c-.641.858-.957 1.654-.892 2.87.029.602.269 1.264.65 1.953.16.285.323.542.474.757l.213.29.475.559a50.197 50.197 0 002.184 2.366l1.51 1.512.328.324c.767.75 1.54 1.45 2.203 2.024l.539.46.15.117c.239.183.551.394.909.596.69.388 1.361.628 1.983.647 1.228.063 2.044-.328 3.082-1.15l.239-.184.444-.378c.305-.267.674-.6 1.099-.99l.821-.764 2.257-2.14 1.369-1.32.979-1.002 1.359-1.416a109.773 109.773 0 003.391-3.703l.288-.365c.475-.627.742-1.181.849-2.004.033-.258.043-.525.028-.803-.028-.602-.268-1.264-.65-1.953a8.922 8.922 0 00-.473-.758l-.213-.289-.475-.558a49.599 49.599 0 00-2.356-2.54l-1.339-1.339-.328-.324a48.855 48.855 0 00-1.617-1.51l-.592-.52-.532-.453-.15-.118a8.11 8.11 0 00-.921-.608c-.699-.395-1.375-.639-2-.657-1.274-.048-2.091.33-3.029 1.074l-.135.107-.65.57-.345.307-.724.658-.769.71-1.224 1.153-1.28 1.227zm1.608 6.384a.992.992 0 00-.571.677 1.02 1.02 0 00.273.976l4.287 4.286.101.09a1.018 1.018 0 001.342-.08c.116-.116.204-.261.253-.427l1.778-6.028.03-.135a1.03 1.03 0 00-1.302-1.145l-6.065 1.74-.126.046zM67.699-22.618l-1.06 1.032-.145.146-.907.93-1.356 1.412a111.004 111.004 0 00-3.409 3.72l-.252.325c-.642.858-.958 1.653-.892 2.87.029.602.268 1.264.65 1.952.159.286.322.542.473.757l.213.29.476.559a50.493 50.493 0 002.183 2.366l1.51 1.512.329.324c.767.75 1.54 1.45 2.202 2.024l.54.46.149.118c.24.183.551.394.91.595.69.389 1.36.628 1.983.648 1.228.063 2.043-.328 3.081-1.15l.24-.184.443-.379c.306-.267.675-.6 1.099-.99l.822-.763 2.257-2.14 1.368-1.32.98-1.003 1.359-1.416a109.193 109.193 0 003.39-3.703l.288-.365c.475-.627.743-1.18.85-2.004.033-.257.043-.525.028-.802-.029-.603-.269-1.265-.65-1.953a8.734 8.734 0 00-.474-.759l-.213-.288-.474-.559a49.44 49.44 0 00-2.357-2.54l-1.338-1.338-.329-.325a49.58 49.58 0 00-1.616-1.509l-.592-.52-.533-.454-.15-.118a8.152 8.152 0 00-.92-.607c-.7-.396-1.376-.64-2-.657-1.275-.048-2.091.329-3.03 1.074l-.135.107-.65.569-.344.307-.725.658-.768.71-1.224 1.153-1.28 1.228zm1.607 6.383a.993.993 0 00-.57.677 1.02 1.02 0 00.272.976l4.287 4.287.102.09a1.017 1.017 0 001.342-.08c.116-.116.203-.262.252-.428l1.778-6.028.03-.135a1.03 1.03 0 00-.289-.878 1.028 1.028 0 00-1.012-.267l-6.065 1.741-.127.046zM97.396-15.547l-1.059 1.032-.146.146-.907.93-1.356 1.412a111.048 111.048 0 00-3.408 3.72l-.253.325c-.641.858-.957 1.653-.892 2.87.029.602.269 1.264.65 1.952.16.286.323.542.473.758l.214.29.475.558A50.444 50.444 0 0093.37.812l1.511 1.512.328.324c.767.75 1.54 1.45 2.203 2.024l.539.46.15.118c.24.183.55.394.909.595.69.389 1.361.628 1.983.648 1.228.063 2.043-.328 3.081-1.15l.24-.184.444-.379c.305-.267.674-.6 1.098-.99l.822-.763 2.257-2.14 1.369-1.32.978-1.003 1.36-1.416a108.583 108.583 0 003.39-3.703l.289-.364c.475-.627.742-1.181.849-2.005.033-.257.043-.525.028-.802-.029-.603-.268-1.265-.65-1.953a8.669 8.669 0 00-.474-.758l-.213-.29-.474-.558a49.158 49.158 0 00-2.357-2.54l-1.338-1.338-.328-.325a50.937 50.937 0 00-1.617-1.509l-.592-.52-.533-.454-.149-.118a8.111 8.111 0 00-.922-.607c-.698-.396-1.375-.64-1.999-.657-1.275-.048-2.091.329-3.03 1.074l-.135.107-.65.569-.344.307-.725.658-.768.71-1.224 1.153-1.28 1.228zm1.608 6.384a.993.993 0 00-.571.676 1.02 1.02 0 00.273.976l4.287 4.287.101.09a1.018 1.018 0 001.342-.08c.116-.116.203-.262.252-.427l1.779-6.028.03-.136a1.03 1.03 0 00-1.302-1.145L99.13-9.209l-.126.046zM134.165 21.222l-1.058 1.032-.147.147-.907.93-1.356 1.412a111.934 111.934 0 00-3.408 3.72l-.252.324c-.642.859-.958 1.654-.892 2.87.028.602.268 1.264.65 1.953.159.285.322.542.473.757l.213.29.475.559a50.702 50.702 0 002.184 2.366l1.511 1.512.328.324a49.87 49.87 0 002.202 2.024l.539.46.15.117c.24.183.551.394.909.596.69.388 1.361.628 1.983.648 1.229.062 2.044-.329 3.082-1.151l.239-.184.444-.378c.306-.267.675-.6 1.099-.99l.821-.763 2.258-2.141 1.368-1.32.979-1.002 1.359-1.416a109.773 109.773 0 003.391-3.703l.288-.365c.475-.627.743-1.18.849-2.004.034-.258.044-.525.029-.803-.029-.602-.269-1.264-.651-1.953a8.676 8.676 0 00-.473-.758l-.213-.288-.475-.559a49.109 49.109 0 00-2.356-2.54l-1.338-1.339-.329-.324a48.855 48.855 0 00-1.617-1.509l-.591-.52-.533-.454-.149-.118a8.111 8.111 0 00-.922-.607c-.699-.396-1.375-.64-1.999-.658-1.275-.048-2.091.33-3.03 1.074l-.135.107-.65.57c-.113.1-.228.202-.344.307l-.725.658-.769.71-1.223 1.153-1.281 1.227zm1.608 6.384a.992.992 0 00-.571.677 1.02 1.02 0 00.273.976l4.287 4.286.102.09a1.015 1.015 0 001.594-.507l1.778-6.028.03-.135a1.03 1.03 0 00-1.301-1.145l-6.065 1.74-.127.046z"/></g></g></svg>