<svg width="128" height="160" fill="none" xmlns="http://www.w3.org/2000/svg"><path fill-rule="evenodd" clip-rule="evenodd" d="M52.175 160c-19.809 0-35.867-1.555-35.867-3.474 0-1.918 16.058-3.474 35.867-3.474 19.808 0 35.866 1.556 35.866 3.474 0 1.919-16.058 3.474-35.866 3.474z" fill="#6B6B78" opacity=".1"/><path fill-rule="evenodd" clip-rule="evenodd" d="M12.352 77.36c.182-.026.277.079.327.214.016-.155.077-.29.239-.299.256-.014.354.335.39.576-.004-.195.034-.439.262-.387.338.077.367.734.369.845 0-.09.008-.518.261-.424.274.102.222.415.396 1.122.496.621.914 1.363 1.176 1.875.192.374.58.612 1.011.622.591.014 1.555.058 2.891.178.838.021 1.85.026 4.678.575 5.566.841 12.783 2.355 17.566 3.616 4.782 1.262 12 3.532 19.304 7.148 0 0 8.609 17.238 6.58 17.35-2.03.112-9.276-1.177-16.29-4.485-7.015-3.307-12-6.727-14.783-8.52-1-.645-2.234-1.116-3.647-1.587a13.66 13.66 0 01-3.935-1.062c-1.71-.76-3.48-1.6-5.054-2.452h-.002c-.008-.006-.016-.01-.024-.014l-.516-.277c-4.839-2.573-6.289-2.642-8.003-2.99-1.623-.329-1.427-1.878-2.065-4.344-.424-1.641-1.31-4.027-1.378-5.49-.146-.674-.2-1.729.247-1.79z" fill="#F46152"/><path fill-rule="evenodd" clip-rule="evenodd" d="M52.473 89.242a95.628 95.628 0 018.749 3.78s8.609 17.237 6.58 17.349c-2.03.112-9.276-1.177-16.29-4.484a98.36 98.36 0 01-1.483-.717c2.673-5.527 2.586-13.11 2.444-15.928z" fill="#5123AF"/><path fill-rule="evenodd" clip-rule="evenodd" d="M67.916 64.556c-1.826-3.195-6.956-10.805-8.609-14.337-1.652-3.532-5.826-10.931-7.652-13.706-1.826-2.775-3.348-5.55-4.217-5.214-.87.337 1.434 4.247 1.434 4.247l-1.478.35-1.101.673s-1.247 1.542-.26 2.383c0 0 .535 3.069 2.144 6.727 1.609 3.658 3.957 10.258 6 14.8 2.043 4.54 6.174 12.024 7.652 13.916l6.087-9.838z" fill="#F46152"/><path fill-rule="evenodd" clip-rule="evenodd" d="M53.543 39.723c-.717-1.189-2.092-2.442-3.34-2.79-1.097-.304-1.327-1.492-1.327-1.492s-.523-.447-1.085-.362c-.562.085-.608.77-.608.77s-.4-.243-.794-.069c-.393.174-.288.843-.288.843s-.415-.054-.677.289c-.36.473-.358 1.574.477 2.268 0 0 .049.625.317 1.55.263.91.716 1.69.716 1.69s1.906.49 3.87-.337c1.966-.827 2.739-2.36 2.739-2.36z" fill="#F46152"/><path fill-rule="evenodd" clip-rule="evenodd" d="M46.906 36.825c-.44-.353-.84-.392-1.141-.277-.301.115-.473.29-.59.918-.112.609.106 1.391.464 1.853.358.463.838.766 1.181.565.344-.2.446-.86.083-1.197-.363-.337.003-1.862.003-1.862z" fill="#F46152"/><path fill-rule="evenodd" clip-rule="evenodd" d="M47.85 35.975c-.488-.39-.93-.433-1.265-.306-.334.128-.524.321-.653 1.018-.125.674.116 1.542.514 2.054.396.513.93.85 1.31.627.38-.223.493-.954.09-1.328-.401-.374.004-2.065.004-2.065z" fill="#F46152"/><path fill-rule="evenodd" clip-rule="evenodd" d="M48.801 35.419c-.487-.39-.802-.438-1.136-.31-.334.127-.524.32-.653 1.017-.124.675.117 1.542.513 2.054.397.513.93.85 1.31.627.381-.223.494-.954.092-1.327-.402-.374-.126-2.061-.126-2.061z" fill="#F46152"/><path fill-rule="evenodd" clip-rule="evenodd" d="M48.956 36.449c.787.026 1.785.17 2.623.781l1.003.771c.225.37.941 1.675 1.088 1.918 0 0-.238.573-.673 1.041l-2.785 1.617c-.232.066-.75.097-.976.135-.069-.187-.538-1.427-.718-2.093-.404-1.496.11-2.643.11-2.643s-.591.105-1.416-.09c-.823-.194-.556-1.238-.556-1.238s1.513-.226 2.3-.2z" fill="#F46152"/><path fill-rule="evenodd" clip-rule="evenodd" d="M70.058 97.568c-5.73-.567-8.271-1.879-9.7-2.763a.88.88 0 01-.049.202c-.64-7.849-.42-18.263 2.045-24.017 2.522-5.887 6.696-8.746 12-8.746l15.826 6.139s.783 8.66.957 14.379c.092 3.016-.108 7.877-.686 12.749-5.795 1.88-14.095 2.681-20.393 2.057z" fill="#fff"/><path fill-rule="evenodd" clip-rule="evenodd" d="M69.879 60.954s-.221 1.08-.238 2.163a27.13 27.13 0 00.058 2.11s-1.842.17-2.48-1.135c-.57-1.163-.147-2.206.77-2.777.776-.485 1.89-.36 1.89-.36z" fill="#F46152"/><path fill-rule="evenodd" clip-rule="evenodd" d="M74.385 56.639c3.256-.295 5.926 1.686 6.276 6.68.35 4.996-1.47 17.808-8.959 18.094-7.034.27-2.822-11.351-2.87-16.627-.05-5.277 1.617-7.79 5.553-8.147z" fill="#0F3E78"/><path fill-rule="evenodd" clip-rule="evenodd" d="M78.587 60.988s.27 1.07.335 2.151c.067 1.081.038 2.11.038 2.11s1.848.092 2.427-1.24c.515-1.185.047-2.208-.895-2.741-.798-.451-1.905-.28-1.905-.28zM70.942 65.749c.75-.56 1.801-.938 2.983-1.006 1.182-.067 2.272.19 3.084.66.893-.838 1.417-2.014 1.339-3.287-.144-2.365-2.305-4.166-4.828-4.022-2.523.143-4.45 2.177-4.306 4.542.077 1.273.74 2.382 1.728 3.113z" fill="#F46152"/><path fill-rule="evenodd" clip-rule="evenodd" d="M74.16 56.744l-.073-.832.423.405.243-.86.372.693.32-.535.12 1.027-1.405.102z" fill="#0F3E78"/><path fill-rule="evenodd" clip-rule="evenodd" d="M73.612 66.832c.265.064.545.061.806.007.26-.055.503-.166.668-.33.16-.165.258-.37.17-.64a9.253 9.253 0 00-.86-.131 1.639 1.639 0 00-.51.018c-.148.033-.29.092-.452.19a2.657 2.657 0 00-.555.469c.213.236.466.35.733.417z" fill="#F46152"/><path fill-rule="evenodd" clip-rule="evenodd" d="M71.437 58.557l.32.261.221-.335.312.129.181-.26.388.154.196-.275.316.202.257-.264.258.264.198-.246.273.263.261-.206.24.221.188-.157.241.221.229-.233-1.456-.504-1.66.124-.963.642z" fill="#E6E5CE"/><path fill-rule="evenodd" clip-rule="evenodd" d="M79.595 58.734c-.547-.318-2.653-.786-4.957-.946-2.413-.169-4.152.252-4.76.904-.454.485-.696 1.338-.696 1.702 0 .365.66-.203 2.282-.4 1.624-.196 3.964-.216 5.994.148 2.029.364 2.847.757 2.876.505.03-.253-.304-1.661-.739-1.913z" fill="#fff"/><path fill-rule="evenodd" clip-rule="evenodd" d="M81.003 65.23c1.364-3.405 5.53-13.207 6.673-16.922 1.144-3.715 4.247-11.592 5.67-14.58 1.421-2.988 2.542-5.936 3.45-5.716.909.22-.829 4.394-.829 4.394l1.514.155 1.185.522s1.45 1.365.591 2.327c0 0-.103 3.111-1.186 6.946-1.084 3.834-2.329 10.834-3.72 15.6-1.39 4.766-3.304 11.73-4.13 14.421 0 0-2.552 1.267-6-1.261-3.448-2.528-3.218-5.886-3.218-5.886z" fill="#F46152"/><path fill-rule="evenodd" clip-rule="evenodd" d="M91.928 37.154c.545-1.271 1.733-2.693 2.921-3.2 1.044-.445 1.106-1.652 1.106-1.652s.456-.51 1.025-.5c.569.01.71.683.71.683s.362-.292.776-.172c.414.121.404.798.404.798s.403-.108.71.198c.425.421.575 1.513-.155 2.31 0 0 .039.626-.098 1.575-.134.938-.473 1.77-.473 1.77s-1.82.734-3.883.171c-2.062-.563-3.043-1.981-3.043-1.981z" fill="#F46152"/><path fill-rule="evenodd" clip-rule="evenodd" d="M98.097 33.416c.386-.407.777-.497 1.091-.423.315.075.51.225.712.833.196.588.09 1.392-.2 1.896-.29.505-.724.869-1.092.715-.369-.154-.561-.794-.249-1.176.313-.381-.262-1.845-.262-1.845z" fill="#F46152"/><path fill-rule="evenodd" clip-rule="evenodd" d="M97.044 32.698c.428-.45.86-.55 1.21-.468.349.082.564.249.79.922.217.653.1 1.544-.223 2.103-.321.56-.802.963-1.21.792-.409-.171-.622-.88-.276-1.303.346-.423-.291-2.046-.291-2.046z" fill="#F46152"/><path fill-rule="evenodd" clip-rule="evenodd" d="M96.021 32.272c.429-.45.734-.539 1.083-.456.349.082.564.25.789.923.218.652.1 1.543-.222 2.102-.322.56-.803.963-1.21.792-.409-.17-.622-.88-.276-1.303.346-.423-.164-2.058-.164-2.058z" fill="#F46152"/><path fill-rule="evenodd" clip-rule="evenodd" d="M93.522 34.428l-.886.895c-.171.395-.7 1.782-.81 2.042 0 0-.062 1.575.435 1.982l1.787 1.352c1.002 0 2.332-1.153 2.561-1.145.042-.195.334-1.484.419-2.168.191-1.535-.478-2.604-.478-2.604s.6.026 1.39-.274c.79-.3.38-1.3.38-1.3s-1.531-.026-2.308.103c-.776.13-1.745.403-2.49 1.117z" fill="#F46152"/><path fill-rule="evenodd" clip-rule="evenodd" d="M60.35 95.543l-.044-.536a.895.895 0 00.049-.202c1.428.884 3.97 2.196 9.7 2.763 6.297.624 14.597-.176 20.392-2.058-.518 4.364-1.34 8.735-2.531 11.794-2.522 6.474-13.479 5.225-19.13 4.3-5.653-.925-7.74-8.156-8.436-16.06z" fill="#652CDB"/><path fill-rule="evenodd" clip-rule="evenodd" d="M63.224 123.196c.783-7.147 4.696-17.658 5.827-18.415 1.13-.757 4.521-2.271 8.695-1.934 4.174.336 6.957 1.492 9.979 4.856 0 0-1.979 5.823-6.935 12.971-2.03 2.926-4.65 6.056-6.408 8.078l.147-.132c.001.053 2.247 6.756 2.824 12.303.162 1.551.282 2.748.392 3.702.647 2.905 1.27 3.837 1.851 4.989.685 1.357-.618 2.111-2.145 3.993-1.015 1.253-2.336 3.268-3.42 4.161-.435.495-1.214 1.143-1.52.857-.124-.116-.099-.245-.024-.358-.128.077-.267.112-.367.001-.159-.177.052-.448.216-.614-.147.116-.356.23-.447.036-.137-.288.352-.688.435-.753-.069.053-.403.293-.477.057-.08-.255.191-.399.634-.933.19-.715.52-1.444.762-1.928.175-.353.134-.77-.106-1.085-.307-.402-.633-1.222-1.145-2.25-.806-1.13-1.864-2.661-2.86-4.599-3.799-7.383-5.027-12.296-6.049-14.775 0 0-.047-.196-.03-.444-.159-.524-.43-2.291.171-7.784z" fill="#F46152"/><path fill-rule="evenodd" clip-rule="evenodd" d="M68.778 104.518c1.13-.757 5.068-2.799 9.242-2.463 4.174.337 6.683 2.286 9.705 5.649 0 0-1.978 5.823-6.935 12.971-1.274 1.837-2.781 3.755-4.162 5.428-1.207-1.294-3.687-3.377-7.836-4.424-2.469-.623-4.133-.755-5.248-.688 1.21-6.925 4.215-15.791 5.234-16.473z" fill="#652CDB"/><path fill-rule="evenodd" clip-rule="evenodd" d="M78.799 61.86c.21-.065.442-.073.669 0 .564.18.87.767.685 1.313-.167.488-.671.774-1.18.7.006-.582-.102-1.482-.174-2.012zM68.004 62.521c.147-.43.556-.701 1-.71-.186 1.278-.144.906-.168 2.055-.05-.008-.098-.015-.147-.03a1.033 1.033 0 01-.685-1.315z" fill="#D65048"/></svg>