<svg width="24" height="24" viewBox="0 0 24 24" xmlns="http://www.w3.org/2000/svg">
<path d="M13 3C8.02998 3 3.99998 7.03 3.99998 12H2.68993C2.0663 12 1.75398 12.754 2.19495 13.195L4.88998 15.89L4.95998 16.03L7.80143 13.1956C8.24324 12.7549 7.93112 12 7.30706 12H5.99998C5.99998 8.13 9.12998 5 13 5C16.87 5 20 8.13 20 12C20 15.87 16.87 19 13 19C11.07 19 9.31998 18.21 8.05998 16.94L6.63998 18.36C8.26998 19.99 10.51 21 13 21C17.97 21 22 16.97 22 12C22 7.03 17.97 3 13 3ZM12.75 8C12.3358 8 12 8.33579 12 8.75V13L15.6751 15.181C16.0093 15.3793 16.4409 15.2695 16.6397 14.9355C16.8386 14.6012 16.7287 14.1688 16.3943 13.97L13.5 12.25V8.75C13.5 8.33579 13.1642 8 12.75 8Z" />
</svg>
